<svg width="75" height="66" viewBox="0 0 75 66" fill="none" xmlns="http://www.w3.org/2000/svg">
<path d="M6.7 15.7C6.63333 16.0333 6.56667 16.3 6.5 16.5L6.3 16.7L6.2 17H5.6V16.9H5.3C5.36667 16.6333 5.43333 16.3333 5.5 16L5.6 15.3H6.4V15.7H6.7ZM18.7 64.6C18.3667 64.7333 18.2 64.8333 18.2 64.9H16.4L16.3 65.3L16.2 65.6C15.8667 65.6667 15.6 65.6333 15.4 65.5L15.1 65.4L14.8 65.3L14.7 65.4V65.5C14.7 65.5667 14.6333 65.6 14.5 65.6L14.4 65.3C14.3333 65.1667 14.2333 65.0333 14.1 64.9C13.8333 64.7667 13.4333 64.8333 12.9 65.1L12.3 65.4L12.1 65.5L11.9 65.6C11.5 65.6667 11.2 65.5667 11 65.3C10.5333 65.2333 10.2667 65.3333 10.2 65.6H9.1V65.3L8.7 65.4L8.3 65.6V64.9C7.96667 64.8333 7.53333 64.9 7 65.1L6.5 65.4L6 65.6H5.9C5.23333 65.8 4.33333 65.8333 3.2 65.7L1.8 65.5C1.26667 65.3667 0.866667 65.3 0.6 65.3V64.5H0.4C0.4 61.8333 0.6 60.0667 1 59.2H4.5V59.1C4.7 58.8333 5.06667 58.7 5.6 58.7C5.73333 57.7667 5.76667 56.1 5.7 53.7L5.6 50.8V44.7H5.9V44.3H5.6V43.1H5.8C5.73333 43.1 5.7 43.0333 5.7 42.9C5.63333 42.8333 5.6 42.7667 5.6 42.7V42.3H5.9L5.7 41.3C5.63333 40.9667 5.6 40.6667 5.6 40.4C5.73333 39.7333 5.76667 38.7667 5.7 37.5L5.6 35.9V34.1C5.73333 34.0333 5.83333 34 5.9 34L6 33.9L6.2 33.7C6.26667 33.5667 6.3 33.5333 6.3 33.6C6.36667 33.6 6.4 33.5333 6.4 33.4H5.9C5.9 33.1333 6 32.8 6.2 32.4H5.9V31.7H5.6C5.53333 31.5 5.63333 31.3667 5.9 31.3C5.9 31.1 5.86667 31 5.8 31H5.7L5.6 30.9L5.7 30.6L5.9 30.4C6.03333 30.2 6.03333 29.9667 5.9 29.7H5.6V28.9H5.9V28.6H6.2V29.4H6.4V27.9L6.2 28.1C6.13333 28.2333 6.03333 28.3 5.9 28.3C5.76667 28.3 5.66667 28.2333 5.6 28.1L5.5 27.9L5.3 27.8C5.36667 27.3333 5.56667 26.8667 5.9 26.4L6.2 25.8C6.26667 25.6 6.33333 25.3667 6.4 25.1H5.9L5.8 24.8L5.7 24.3C5.63333 23.9667 5.6 23.7 5.6 23.5H6.4V23.2H6.7V24.3C7.1 24.2333 7.36667 24.1333 7.5 24V23.2H7.2L6.8 22.7L6.5 22.4C6.23333 22.1333 6.03333 21.8 5.9 21.4H5.6C5.46667 21.2 5.46667 20.9333 5.6 20.6L5.8 20.3L5.9 20.1H5.6V18.9H6.2C6.13333 18.6333 6.1 18.4667 6.1 18.4L5.9 18.2V17.9H7.1V17.8H7.2V16.2L7.5 16.1L7.4 15.9L7.2 15.8C7.06667 15.7333 7.03333 15.5333 7.1 15.2H7.2C7.26667 14.9333 7.3 14.6667 7.3 14.4L7.1 13.8C6.96667 13.4 7 13.0667 7.2 12.8V11.9C7.13333 12.0333 7.03333 12.1667 6.9 12.3C6.76667 12.3667 6.6 12.4333 6.4 12.5L6.5 12.8V13.1C6.56667 13.3667 6.53333 13.8333 6.4 14.5L6.3 14.4H6.1C5.9 14.3333 5.76667 14.2 5.7 14V13.8L5.6 13.7H5V14L4 14.8C3.53333 15.2 3.16667 15.5 2.9 15.7C2.9 16.0333 2.83333 16.3333 2.7 16.6L2.4 16.7L2.1 16.8C1.9 16.8 1.7 16.8667 1.5 17H0.6V16.9C0.2 16.4333 0.0333335 15.4 0.1 13.8V11.7C0.166667 10.8333 0.2 10.2333 0.2 9.9V7.6H0.4L0.6 7.3L0.7 7.09999C0.833333 6.9 0.933333 6.66666 1 6.4C1.06667 6.4 1.56667 6.13333 2.5 5.6V4.79999H3.3V4.5H3.7C3.43333 4.1 3.3 3.83333 3.3 3.7C3.5 3.63333 3.63333 3.56666 3.7 3.5H3.9L4.1 3.39999V2.6C4.5 2.6 4.8 2.5 5 2.3L5.2 2.1L5.6 1.8V0.999995L6.3 0.899997H7C7.53333 0.833331 7.96667 0.766665 8.3 0.699999V0.499996L10 0.599995L11.7 0.699999V0.499996H12.5V0.699999C12.7667 1.03333 12.9 1.66667 12.9 2.6V5C13.0333 6.4 13.1667 8.43333 13.3 11.1H12.9V14.5H13.3L13.2 15.7C13.1333 16.2333 13.0333 16.6667 12.9 17C13.3667 18.4 13.5667 20.6333 13.5 23.7V25.6L13.4 27.5C13.3333 29.1 13.3 30.2333 13.3 30.9V37.4L13.5 37.9C13.5667 38.1 13.6333 38.2333 13.7 38.3H13.3V49.7H13.7C13.7 50.1667 13.5667 50.4667 13.3 50.6V55.8L13.7 56.4V58.4H14.5L14.6 58.7L14.7 59.1C14.7667 59.4333 14.8 59.8 14.8 60.2H15.2V59L15.3 58.9V58.7H16.2C17 58.7 17.5667 58.8 17.9 59C17.9 59.0667 17.9333 59.1 18 59.1C18.0667 59.1667 18.1667 59.2333 18.3 59.3L18.7 59.5V64.6ZM2.1 7.99999C2.16667 7.86666 2.13333 7.73333 2 7.6L1.7 7.4L1.5 7.2C1.16667 7.93333 0.966667 8.5 0.9 8.9C0.833333 9.56667 1.03333 10.1 1.5 10.5V10.7H1.8V9.5L1.6 9.3L1.4 9.1C1.2 8.9 1.16667 8.63333 1.3 8.3C1.43333 8.1 1.7 7.99999 2.1 7.99999ZM2.1 11.4L1.7 11.2L1.3 11.1V11.9L1.7 12.1L2.1 12.2V11.4ZM6.4 19.4V19C6.4 18.9333 6.36667 18.9 6.3 18.9H6.2V19.4H6.4ZM7.2 32.1H7.1C6.9 32.3 6.66667 32.7333 6.4 33.4H7.1C7.16667 33.2 7.16667 33.1 7.1 33.1C7.1 33.0333 7.13333 32.9667 7.2 32.9V32.1ZM6.7 34.6H6.4V36.2H6.7V34.6ZM7.5 37.1H7.2L7.1 37C7.03333 37 6.9 36.9667 6.7 36.9L6.6 37.1C6.6 37.0333 6.53333 37.0333 6.4 37.1L6.6 37.8L6.7 38.6H7.2L7.4 38.3C7.4 38.2333 7.43333 38.1667 7.5 38.1V37.1ZM7.9 58.7H6.7V58.4H6.4V59.2H7.9V58.7ZM43.6984 48.7L43.3984 48.8V50.2L43.1984 50.9L43.0984 51.5C42.9651 51.9 42.6651 52.2 42.1984 52.4V52.8C42.5984 52.8 42.9651 52.6667 43.2984 52.4L43.3984 52.9L43.4984 53.5C43.5651 53.9667 43.5318 54.3667 43.3984 54.7H43.2984V58.9C43.0984 59.2333 42.7318 59.9 42.1984 60.9C41.6651 61.7 41.2651 62.3 40.9984 62.7H40.2984C40.2318 62.7 40.1318 62.8333 39.9984 63.1H39.4984C39.3651 63.1667 39.2651 63.2667 39.1984 63.4V63.8H38.6984C38.4318 63.8667 38.2984 64.0333 38.2984 64.3H37.5984V64.6L37.3984 64.7H37.1984C36.9984 64.7667 36.7651 64.8667 36.4984 65V65.1C35.9651 65.3 34.8984 65.4667 33.2984 65.6C31.4984 65.6667 30.2984 65.6 29.6984 65.4V65.1H28.4984V65C28.3651 64.8667 28.1984 64.7667 27.9984 64.7L27.3984 64.6V64.3C26.9984 64.3 26.5318 64.1667 25.9984 63.9C25.8651 63.8333 25.6651 63.5667 25.3984 63.1C24.7984 62.9 24.2984 62.6333 23.8984 62.3V61.8L23.4984 61.6L23.0984 61.5L22.7984 60.6L22.4984 59.7H22.2984V59.2H21.9984V51.9H21.5984L21.6984 49.5C21.7651 48.5667 21.8651 47.7667 21.9984 47.1H21.5984L21.6984 46.1V45.1C21.7651 44.3 21.8651 43.6 21.9984 43C21.9984 42.3333 21.9651 41.6 21.8984 40.8V39.8L21.7984 38.9C21.7318 37.5667 21.8651 36.3667 22.1984 35.3C22.1984 34.9 22.2651 34.2 22.3984 33.2C22.4651 32.1333 22.4984 31.3333 22.4984 30.8C22.5651 30.5333 22.6984 30.1 22.8984 29.5L23.0984 28.7L23.2984 27.7C23.6984 26.0333 23.9984 24.9667 24.1984 24.5L24.3984 23.5L24.5984 22.5H24.7984V21.8H24.9984C25.0651 21.6 25.1318 21.2667 25.1984 20.8L25.2984 20.2L25.3984 19.5H25.6984V19.1H25.9984L26.4984 17.3L26.8984 15.6C27.2984 14.2 27.5984 12.9667 27.7984 11.9L27.8984 11.6C27.8984 11.4667 27.9651 11.4 28.0984 11.4V11H28.2984V10.1H28.4984L28.5984 9C28.6651 8.53333 28.7651 8.13333 28.8984 7.8H29.0984L29.1984 7.7V7.4C29.2651 7.06666 29.3318 6.9 29.3984 6.9V6.1H29.6984V5.3H29.8984C30.0984 4.83333 30.1984 4.2 30.1984 3.39999C30.3984 3.26666 30.5318 3.2 30.5984 3.2V1.99999H30.6984C31.1651 1.66666 31.5651 1.23333 31.8984 0.699999H35.3984C36.7318 0.699999 37.8318 0.733332 38.6984 0.799998V1.2H38.7984C38.3984 2.93333 37.9651 5.1 37.4984 7.7H37.1984V8.1H36.7984L36.6984 9.3C36.6318 9.7 36.5651 10.0333 36.4984 10.3H36.3984L36.2984 10.7L36.1984 11.1C36.1318 11.1 36.0651 11.1333 35.9984 11.2V12.2H35.5984V13H35.3984C35.3984 13.0667 35.3651 13.1667 35.2984 13.3C35.2318 13.4333 35.1984 13.5667 35.1984 13.7H34.9984C34.9984 13.7667 35.0318 13.9 35.0984 14.1L35.1984 14.4H34.7984L34.6984 14.9V15.3L34.5984 16C34.5318 16 34.4651 16.0667 34.3984 16.2C34.3318 16.3333 34.2651 16.4 34.1984 16.4V18.3H33.9984V19.1H33.7984V19.8C33.7318 19.8 33.6651 19.8667 33.5984 20C33.5318 20.1333 33.4651 20.2 33.3984 20.2L33.0984 21.6L32.8984 23H32.5984V23.3L32.4984 23.7C32.4318 23.7 32.3984 23.7333 32.3984 23.8C32.3318 23.9333 32.2651 24 32.1984 24V24.9H31.8984C31.8318 25.7667 31.6651 26.7333 31.3984 27.8H31.0984V28.2L31.4984 28.1L31.7984 28C31.9984 27.8667 32.1318 27.8 32.1984 27.8V28.2H33.3984V27.8H35.1984C35.8651 28.2 36.6318 28.6 37.4984 29L39.9984 30.2L40.0984 30.6C40.1651 30.8 40.2318 30.9667 40.2984 31.1C40.7651 31.4333 41.3984 32 42.1984 32.8L42.3984 33.3L42.5984 33.9H42.8984V34.4H43.2984V37.9H43.3984V38.7H43.6984V43H43.3984C43.3318 43.3333 43.3651 43.5667 43.4984 43.7L43.5984 44L43.6984 44.2V45.4H43.3984C43.3984 45.8667 43.4984 46.1667 43.6984 46.3C43.7651 46.6333 43.6651 47.1 43.3984 47.7H43.6984L43.7984 47.9V48.1C43.8651 48.3 43.9651 48.4667 44.0984 48.6L43.6984 48.7ZM35.5984 45.1C35.7318 44.7 35.8651 43.9667 35.9984 42.9H35.5984V39H35.3984V36.4C35.2651 36.5333 35.1984 36.3667 35.1984 35.9L34.4984 35.7L33.7984 35.6V35.2H31.7984L31.3984 35.1C31.2651 35.3 31.0651 35.5 30.7984 35.7L29.8984 36.3L29.7984 36.9L29.6984 37.5H29.3984V39.7H29.0984L29.1984 48.3L29.3984 56.9C29.5984 56.9667 29.7984 57.1667 29.9984 57.5L30.2984 57.9L30.5984 58.4H33.9984L34.0984 58L34.1984 57.7H34.7984C34.8651 57.5 34.9318 57.3667 34.9984 57.3L35.1984 57H35.2984L35.3984 56.9L35.2984 56.6C35.2318 56.4 35.1984 56.2667 35.1984 56.2H35.3984V54.6H35.5984V50.8C35.7984 50.3333 35.9651 49.4333 36.0984 48.1C36.2318 46.7 36.1984 45.7 35.9984 45.1H35.5984ZM24.9984 53.5C24.9318 53.3667 24.8984 53.2667 24.8984 53.2L24.7984 53.1V53.6C24.9984 53.5333 25.1318 53.5333 25.1984 53.6L25.3984 53.5H24.9984ZM25.6984 54.3H25.3984L24.9984 53.9C24.8651 54.3 24.7984 54.7 24.7984 55.1C24.2651 54.9667 23.9651 54.7 23.8984 54.3C23.6318 54.4333 23.3318 54.6 22.9984 54.8L22.6984 55.1L22.2984 55.4V55.7L22.6984 55.8L23.0984 55.9V56.2C23.2984 56.2667 23.4651 56.2667 23.5984 56.2L23.9984 56C24.2651 55.8667 24.5984 56.0333 24.9984 56.5H25.3984V55.7H25.6984V54.3ZM74.3375 35.2C73.9375 35.2667 73.0042 35.3 71.5375 35.3H64.2375C64.1708 39.2333 64.1375 42.3667 64.1375 44.7V48.1C63.8042 48.1 63.4042 48.1333 62.9375 48.2L61.5375 48.3C60.4708 48.4333 59.6708 48.4333 59.1375 48.3H58.1375C58.0708 47.9 57.9708 43.5333 57.8375 35.2L57.5375 35.4C57.4042 35.4 57.2375 35.3667 57.0375 35.3V35H48.5375V34.8L48.4375 34.7V33.3C48.5042 32.8333 48.5042 32.5333 48.4375 32.4V30.4C48.4375 29.6 48.4708 29.0333 48.5375 28.7H50.3375C51.8042 28.7667 54.3708 28.8 58.0375 28.8L57.9375 28.6L57.8375 28.4C57.7708 28.2 57.7708 28 57.8375 27.8H58.1375V16.3H58.3375L58.4375 16.2H59.8375C60.3042 16.2667 60.6042 16.2667 60.7375 16.2H62.7375C63.5375 16.2 64.1042 16.2333 64.4375 16.3V19.6C64.3708 22.1333 64.3375 25.2333 64.3375 28.9C70.4708 28.9667 73.7375 29 74.1375 29C74.1375 29.5333 74.2042 30.3667 74.3375 31.5C74.4708 32.7 74.5375 33.5333 74.5375 34L74.3375 35.2ZM63.4375 21.9C62.7708 20.9667 62.5375 20.1333 62.7375 19.4H62.2375V20.2L61.8375 20.1L61.5375 20C61.3375 19.9333 61.2042 19.9 61.1375 19.9C61.0042 20.0333 60.9042 20.1667 60.8375 20.3L60.7375 20.7H61.2375C61.5042 21.2333 61.8375 21.5333 62.2375 21.6V22.3C62.2375 22.5 62.4042 22.3667 62.7375 21.9H63.4375ZM59.6375 20.5H59.2375L59.0375 20.9L58.8375 21.4V21.6H59.6375V20.5ZM61.0375 24.2C60.9708 23.4667 60.5708 23.0667 59.8375 23V23.8H60.6375V24.2H61.0375ZM64.1375 28.1V27.6L64.0375 27.2H63.6375V26.6H63.3375V25.5L63.1375 25.4H62.8375L62.6375 24.8L62.5375 24.3C62.0042 24.5667 61.5042 24.7 61.0375 24.7V24.3H59.5375L60.0375 24.8L60.6375 25.4C60.5708 25.7333 60.4375 26.0667 60.2375 26.4H59.8375C59.7708 26.8 59.9042 27.0667 60.2375 27.2C60.3042 27.6667 60.1708 27.8667 59.8375 27.8V28.1H60.2375C60.2375 28.3 60.1708 28.4333 60.0375 28.5L59.7375 28.6L59.5375 28.7V28.9H60.6375C60.9042 28.7 61.0375 28.5 61.0375 28.3C61.1708 28.4333 61.3375 28.5333 61.5375 28.6L61.8375 28.7C62.1042 28.4333 62.2375 28.0333 62.2375 27.5C62.5042 27.4333 62.7042 27.3333 62.8375 27.2H63.0375L62.7375 28L62.5375 28.9C62.9375 28.7667 63.2042 28.5 63.3375 28.1H64.1375ZM59.4375 25.4C59.3042 25.2667 59.1042 25.1667 58.8375 25.1H58.6375L58.4375 25V25.5H59.4375V25.4ZM61.3375 26.6V26.4H61.0375C61.2375 26.0667 61.5042 25.7667 61.8375 25.5V26.2H62.5375V26.6H61.3375ZM61.0375 28.1V27.5H61.3375V28.1H61.0375Z" fill="#4D4D4D"/>
</svg>
