<svg width="37" height="24" viewBox="0 0 37 24" fill="none" xmlns="http://www.w3.org/2000/svg">
<path d="M1.96 2.84V2.49H2.135V2.84H1.96ZM2.135 3.295V3.155H2.275V3.295H2.135ZM1.05 4.87C1.02667 4.84667 0.991667 4.75333 0.945 4.59H1.155V4.87H1.05ZM1.155 6.025C1.13167 6.00167 1.10833 5.955 1.085 5.885L1.05 5.745C1.07333 5.76833 1.13167 5.78 1.225 5.78V6.025H1.155ZM1.155 6.62V6.445H1.225V6.62H1.155ZM0.525 6.34V6.06H0.665V6.34H0.525ZM8.54 17.75C8.44667 17.9367 8.4 18.135 8.4 18.345C8.4 18.415 8.41167 18.555 8.435 18.765L8.505 19.255C8.55167 19.6983 8.56333 20.025 8.54 20.235H8.4V20.9H8.26V21.075H8.155V21.355H8.12C8.02667 21.4717 7.98 21.6117 7.98 21.775C7.84 21.7983 7.71167 21.8683 7.595 21.985L7.455 22.125L7.315 22.265V22.405H7.07C7.02333 22.4517 6.965 22.545 6.895 22.685C6.52167 22.9183 5.88 23.0817 4.97 23.175C3.99 23.2683 3.36 23.175 3.08 22.895H2.94L2.975 22.72C2.99833 22.65 3.03333 22.5917 3.08 22.545C3.01 22.5217 2.835 22.51 2.555 22.51H2.24C2.14667 22.51 2.065 22.4983 1.995 22.475V22.405C1.73833 22.1483 1.55167 21.8683 1.435 21.565H1.33V20.935C1.21333 20.5617 1.16667 19.9433 1.19 19.08V18.555L1.225 18.03V17.05C1.20167 15.9067 1.17833 14.2033 1.155 11.94L1.085 9.385L1.05 6.865H1.225V7.145H1.33V7.25H1.435L1.4 7.11L1.365 7.005C1.34167 6.935 1.33 6.88833 1.33 6.865H1.435L1.54 6.655L1.645 6.48H1.855V6.445C1.90167 6.445 1.94833 6.49167 1.995 6.585C2.01833 6.655 2.04167 6.74833 2.065 6.865C2.04167 6.725 2.03 6.375 2.03 5.815L1.995 5.22C2.065 5.19667 2.12333 5.16167 2.17 5.115L2.24 5.045C2.28667 4.975 2.345 4.94 2.415 4.94L2.59 5.08V4.94L2.555 4.485V4.03H2.8L2.73 3.785H2.555C2.555 3.62167 2.50833 3.30667 2.415 2.84H2.555V2.21H2.66V1.965C2.56667 1.965 2.485 1.95333 2.415 1.93C2.50833 1.60333 2.555 1.35833 2.555 1.195H2.765C2.85833 1.17167 3.02167 1.07833 3.255 0.914999V0.844999C3.395 0.704998 3.535 0.623331 3.675 0.599998C3.745 0.506665 4.04833 0.436665 4.585 0.389999C5.09833 0.343333 5.47167 0.354999 5.705 0.424999V0.564999H6.125V0.599998H6.51V0.704999H6.685V0.844999C6.91833 0.891665 7.12833 0.938332 7.315 0.985L7.35 1.09V1.195L7.525 1.335L7.665 1.475C7.78167 1.59167 7.88667 1.67333 7.98 1.72C7.98 1.83667 8.02667 1.97667 8.12 2.14H8.155L8.225 2.42V2.56L8.26 2.735H8.4C8.4 3.20167 8.44667 3.63333 8.54 4.03H8.575C8.62167 4.12333 8.62167 4.24 8.575 4.38C8.52833 4.52 8.51667 4.63667 8.54 4.73L8.575 4.8L8.61 4.87C8.63333 4.94 8.62167 5.02167 8.575 5.115H8.54V6.06C8.51667 6.41 8.47 6.67833 8.4 6.865C8.35333 6.865 8.24833 6.88833 8.085 6.935L7.875 7.005L7.63 7.04C7.18667 7.15667 6.90667 7.19167 6.79 7.145V7.005L6.37 6.97L5.985 6.9L5.845 6.865C5.845 6.74833 5.85667 6.46833 5.88 6.025V4.975C5.90333 4.08833 5.845 3.575 5.705 3.435C5.68167 3.225 5.62333 3.05 5.53 2.91L5.39 2.77C5.34333 2.72333 5.30833 2.665 5.285 2.595H4.48V2.735H4.235C4.21167 2.735 4.18833 2.75833 4.165 2.805L4.095 2.875C4.025 3.155 3.94333 3.435 3.85 3.715V5.71H3.71V6.9H3.85V7.145H3.955L3.92 7.565C3.89667 7.75167 3.87333 7.915 3.85 8.055V9.91H3.955V10.12H4.095C4.095 10.2367 4.04833 10.3067 3.955 10.33V12.22H3.85L3.92 12.43L3.955 12.64C3.955 12.7333 3.92 12.815 3.85 12.885C3.82667 13.0017 3.86167 13.095 3.955 13.165V16.385C3.97833 16.7817 4.025 17.0733 4.095 17.26C4.00167 17.96 3.955 18.5083 3.955 18.905V19.815C3.955 20.165 4.01333 20.3983 4.13 20.515C4.17667 20.6317 4.24667 20.7133 4.34 20.76L4.445 20.865L4.515 20.935C4.84167 20.935 5.19167 20.795 5.565 20.515C5.565 20.4683 5.58833 20.3517 5.635 20.165L5.705 19.92L5.74 19.745V18.24H5.845V16.105H5.985V15.335C6.00833 15.3117 6.03167 15.3 6.055 15.3L6.09 15.23C6.16 15.23 6.265 15.2417 6.405 15.265C6.59167 15.265 6.76667 15.2767 6.93 15.3C7.39667 15.3467 7.65333 15.405 7.7 15.475C8.42333 15.475 8.715 15.8717 8.575 16.665H8.54L8.575 16.945V17.26C8.48167 17.26 8.47 17.33 8.54 17.47C8.56333 17.5167 8.575 17.61 8.575 17.75H8.54ZM2.8 21.46L2.625 21.495L2.415 21.565V22.09H2.555L2.59 22.125H2.66L2.8 22.09V21.46ZM18.8861 22.685V22.895L18.2211 22.93L17.5561 22.965L17.5211 23V23.07C17.5211 23.1167 17.4977 23.1283 17.4511 23.105V22.965H17.3111L17.1361 23L16.7161 23.035C16.3661 23.035 16.1444 22.9883 16.0511 22.895C15.9344 22.755 15.8994 22.6033 15.9461 22.44L15.9811 22.335L16.0161 22.23C16.0161 22.1133 15.9927 21.9967 15.9461 21.88H15.8761L15.7711 20.725C15.7244 20.2117 15.6777 19.8267 15.6311 19.57L15.5611 19.465H15.0011C14.7911 19.465 14.6511 19.43 14.5811 19.36H13.9161V19.465H13.8461V20.27C13.7994 20.4333 13.7644 20.6433 13.7411 20.9L13.6711 21.6C13.6244 22.1833 13.5427 22.615 13.4261 22.895C12.5627 23.035 11.6644 23.035 10.7311 22.895L10.8361 21.355L10.9761 19.85H11.0111V19.08H11.1511V18.135H11.2561V17.295H11.3611V16.49H11.4311V15.685H11.5361V15.09H11.6411V13.83C11.6877 13.6433 11.7344 13.41 11.7811 13.13L11.8511 12.325C11.9444 11.6483 12.0494 11.1583 12.1661 10.855V9.735H12.2011V9.35H12.3411V8.23H12.4811V6.62H12.5861V6.06H12.6211V5.115H12.7611V4.065C12.9944 3.45833 13.0877 2.64167 13.0411 1.615H12.8661C12.8661 1.335 12.9127 1.10167 13.0061 0.914999C13.0294 0.868332 13.0761 0.844999 13.1461 0.844999H13.2511L13.3561 0.81V0.739999L13.6361 0.704999H13.9161C14.1261 0.704999 14.2661 0.669999 14.3361 0.599998H15.0711C15.3744 0.599998 15.5611 0.646665 15.6311 0.739999H15.7711V1.02H15.9461L16.0161 1.3L16.0511 1.615H15.9461V1.825H15.8761V2.91H15.9461C15.9694 3.07333 15.9927 3.27167 16.0161 3.505L16.0511 4.065H16.1911V4.835C16.3077 5.23167 16.4127 5.72167 16.5061 6.305L16.7511 7.845C16.9144 9.245 17.0894 10.2483 17.2761 10.855V11.695C17.3227 11.8817 17.3694 12.115 17.4161 12.395L17.5211 13.13C17.6144 13.76 17.7077 14.2267 17.8011 14.53V15.44L17.9061 16.07L18.0111 16.735C18.1044 17.295 18.1744 17.7033 18.2211 17.96V18.8H18.3611V19.185H18.4661L18.4311 19.57L18.3611 19.99H18.4661V20.515H18.5711L18.6411 20.55L18.6061 20.69V21.285H18.7811C18.7811 21.6817 18.7344 22.055 18.6411 22.405C18.7344 22.475 18.8161 22.5333 18.8861 22.58H19.0261V22.685H18.8861ZM14.4411 3.05C14.3944 3.05 14.3127 3.02667 14.1961 2.98L14.0561 2.945L13.9161 2.91C13.9161 3.00333 13.8927 3.16667 13.8461 3.4C14.1027 3.4 14.2661 3.30667 14.3361 3.12H14.4411V3.05ZM15.1061 10.47C14.8727 10.3533 14.7327 10.295 14.6861 10.295L14.6161 10.4L14.5461 10.54C14.6394 10.5867 14.7327 10.5633 14.8261 10.47H14.8611V10.82H14.9661L15.0361 10.61C15.0594 10.54 15.0827 10.4933 15.1061 10.47ZM15.1061 10.995C15.0594 10.9483 15.0011 10.9017 14.9311 10.855H14.8611L14.8261 10.82V10.995H14.6161L14.5461 11.03H14.4761C14.4994 11.1467 14.5111 11.2167 14.5111 11.24C14.5111 11.2633 14.5227 11.2983 14.5461 11.345L14.7211 11.485C14.6977 11.4383 14.6861 11.38 14.6861 11.31V11.17L14.8961 11.205C14.9661 11.2283 15.0361 11.275 15.1061 11.345V10.995ZM15.3161 12.465C15.2927 12.3717 15.2811 12.3133 15.2811 12.29V12.22L15.2111 12.15V12.465H15.3161ZM15.2811 16.875L15.2461 16.28L15.2111 15.72C15.2344 15.6967 15.2577 15.615 15.2811 15.475H15.2111V15.125H15.0711C15.0477 15.0083 15.0361 14.8333 15.0361 14.6C14.9894 14.6 14.9427 14.5767 14.8961 14.53C14.8494 14.39 14.8611 14.2617 14.9311 14.145L15.0011 14.04L15.0361 14.005V13.865H14.9311V13.305H15.0361C15.0594 13.1417 15.0477 12.9667 15.0011 12.78L14.9311 12.57L14.8261 12.36C14.7094 12.08 14.7677 11.8583 15.0011 11.695V11.52L14.8611 11.555L14.7211 11.59C14.6277 11.6133 14.5577 11.6483 14.5111 11.695L14.4411 12.43L14.3711 13.235C14.3011 13.865 14.2194 14.3667 14.1261 14.74C14.1027 14.88 14.1027 15.0667 14.1261 15.3V15.895C14.1494 16.4083 14.1027 16.735 13.9861 16.875C14.0327 17.085 14.1261 17.2017 14.2661 17.225C14.3127 17.3183 14.3361 17.435 14.3361 17.575L14.4761 17.54L14.6161 17.47C14.7561 17.4233 14.8844 17.4 15.0011 17.4C15.0011 17.3767 14.9894 17.3183 14.9661 17.225C14.9427 17.1317 14.9311 17.05 14.9311 16.98H14.9661V16.875H15.2811ZM14.5111 17.225V16.875H14.6511V17.225H14.5111ZM27.8485 20.655C27.8252 20.6783 27.8135 20.7133 27.8135 20.76L27.7785 20.9C27.7552 21.04 27.7318 21.1217 27.7085 21.145L27.6385 21.46C27.6152 21.46 27.5918 21.4833 27.5685 21.53C27.5452 21.6 27.5218 21.635 27.4985 21.635C27.4985 21.6583 27.4752 21.6933 27.4285 21.74C27.3585 21.7633 27.3235 21.7983 27.3235 21.845H27.2535V21.985L27.1485 22.055L27.0435 22.125V22.335L26.9035 22.475H26.6235V22.58C26.6002 22.6267 26.5652 22.6617 26.5185 22.685H26.3435C26.2968 22.8017 26.2618 22.8717 26.2385 22.895H26.0635L25.9935 23C25.9702 23.0233 25.9585 23.0467 25.9585 23.07H25.7485V23.175H25.6085V23.315H25.2935V23.42H24.8735V23.455C24.7335 23.525 24.5352 23.5367 24.2785 23.49L23.9635 23.455L23.8585 23.42H23.7535L23.3335 23.35L22.9135 23.315V23.175H22.7735V23.07H22.5285C22.4585 23 22.3302 22.9067 22.1435 22.79L21.7235 22.475V22.335C21.6302 22.2417 21.5368 22.195 21.4435 22.195C21.3735 22.125 21.2918 21.9733 21.1985 21.74L21.0935 21.425C21.0702 21.355 21.0468 21.2733 21.0235 21.18C21.0935 21.11 21.1402 21.0517 21.1635 21.005C21.2568 21.005 21.3385 21.0167 21.4085 21.04C21.5018 21.0633 21.5835 21.0983 21.6535 21.145V20.9L22.0735 20.655L22.5285 20.41C22.5518 20.3633 22.5752 20.3283 22.5985 20.305L22.6335 20.2L22.5285 20.165L22.3885 20.095L22.1435 19.99L22.1085 19.815L22.0735 19.605H22.2135C22.2135 19.3717 22.1902 19.185 22.1435 19.045H22.2135V19.01C22.3068 18.9633 22.3768 18.975 22.4235 19.045L22.4585 19.185L22.4935 19.29L22.5635 19.22L22.6335 19.185C22.6802 19.1383 22.7268 19.08 22.7735 19.01H23.1585V19.045C23.2285 19.115 23.2752 19.2317 23.2985 19.395L23.3335 19.64V19.885C23.3568 20.3283 23.4385 20.6083 23.5785 20.725C23.6018 20.795 23.6485 20.865 23.7185 20.935L23.8235 21.04L23.9635 21.145C24.3835 21.145 24.7102 21.005 24.9435 20.725C25.1068 20.445 25.1885 20.1767 25.1885 19.92C25.1885 19.5467 25.1768 19.22 25.1535 18.94L25.1185 18.52L25.0135 18.065L24.9435 17.995L24.9785 17.785L24.9085 17.715L24.9435 17.47L24.8385 17.435C24.8385 17.2017 24.7685 16.8517 24.6285 16.385H24.5585V16.035L24.4535 15.895V15.65L24.3485 15.51V15.37H24.2085V15.02L24.1735 14.67L24.0335 14.495V14.075H23.9285L23.8235 13.865H23.7535L23.6835 13.585L23.6135 13.305L23.5785 13.165L23.4035 13.06L23.3685 12.885H23.2985L23.2635 12.64H23.1585L23.0885 12.325L22.9485 12.255L22.9135 12.08L22.8435 12.115L22.7735 11.73L22.6335 11.66L22.5635 11.24L22.3885 11.135L22.1785 10.61H22.1435V10.47H22.0385V10.19L21.8985 10.05C21.8752 9.91 21.8518 9.79333 21.8285 9.7L21.7935 9.595C21.7702 9.54833 21.7585 9.49 21.7585 9.42H21.6185L21.5485 9.245L21.5135 9.07C21.4902 8.93 21.4552 8.825 21.4085 8.755L21.1635 8.16C21.1168 7.99667 21.0818 7.88 21.0585 7.81V7.74L21.0235 7.705C21.0235 7.68167 21.0002 7.54167 20.9535 7.285L20.7785 6.76V6.48H20.6735L20.7085 6.025H20.5685L20.6035 5.675H20.5335L20.5685 5.395H20.4985L20.6035 5.01H20.4635L20.5335 4.695L20.4635 4.1C20.4402 3.89 20.4518 3.62167 20.4985 3.295L20.5685 2.91C20.5918 2.77 20.6035 2.67667 20.6035 2.63L20.8835 2.315H20.9185V2.14H21.0235V1.93C21.0468 1.93 21.1285 1.88333 21.2685 1.79V1.65H21.3035C21.4902 1.46333 21.6068 1.32333 21.6535 1.23H21.8635C21.8868 1.20667 21.8985 1.17167 21.8985 1.125L21.9335 0.985H22.1435C22.1902 0.961665 22.2135 0.903332 22.2135 0.81H22.4935V0.704999L22.5985 0.67L22.7735 0.634998C22.8902 0.611665 22.9835 0.576665 23.0535 0.529999V0.424999H23.6135L23.7535 0.354999H24.3835V0.424999H25.1885V0.529999C25.2818 0.576665 25.4218 0.611665 25.6085 0.634998L25.7835 0.67L25.9585 0.704999C25.9585 0.728332 25.9702 0.774999 25.9935 0.844999C26.0168 0.891665 26.0402 0.926665 26.0635 0.949998H26.2735L26.4835 0.985V1.09C26.5768 1.18333 26.7285 1.32333 26.9385 1.51V1.755H27.1135L27.2535 1.79C27.3002 1.97667 27.3702 2.23333 27.4635 2.56H27.5685V3.12H27.6385V3.54H27.5685C27.5685 3.61 27.5802 3.715 27.6035 3.855C27.6268 3.995 27.6385 4.11167 27.6385 4.205H27.7435C27.7435 4.275 27.7318 4.35667 27.7085 4.45L27.6735 4.59L27.6385 4.73L27.7085 4.94L27.8135 5.115C27.8602 5.27833 27.8835 5.465 27.8835 5.675H26.7635V5.78H26.3435V5.675C26.1802 5.605 25.9818 5.59333 25.7485 5.64L25.5035 5.71L25.2935 5.78C25.2235 5.36 25.1885 4.94 25.1885 4.52H25.2935V3.925H25.1885C25.1885 3.62167 25.0485 3.295 24.7685 2.945H23.7535V2.98H23.5785C23.5085 3.05 23.4385 3.13167 23.3685 3.225C23.2985 3.365 23.2518 3.49333 23.2285 3.61L23.1235 4.31L23.1935 4.765C23.2402 4.835 23.2518 4.96333 23.2285 5.15L23.1935 5.36V5.535H23.2285L23.2985 5.85L23.4035 5.99V6.165H23.5085L23.4735 6.445L23.5785 6.585L23.6485 6.795H23.7185L23.6835 7.11L23.8585 7.39L23.9285 7.635L23.9635 7.88C23.9868 8.09 24.0218 8.27667 24.0685 8.44L24.1735 8.58L24.2085 8.965H24.3135L24.3485 9.105L24.5585 9.42C24.6052 9.58333 24.7102 9.85167 24.8735 10.225L24.9435 10.19L24.9785 10.47L25.0835 10.61L25.3635 11.065H25.4685L25.5035 11.345H25.5735C25.7368 11.695 25.8652 12.0567 25.9585 12.43H25.9935V12.605L26.1685 12.675V12.85H26.2735C26.3435 13.1533 26.4018 13.34 26.4485 13.41H26.4835V13.83H26.5885L26.7285 14.18L26.8685 14.32V14.565L27.0085 14.705V15.195H27.1485C27.1718 15.2883 27.1952 15.4283 27.2185 15.615L27.2885 16.035H27.3585V16.175H27.4285C27.5452 16.595 27.6152 16.98 27.6385 17.33H27.7085L27.6385 17.61L27.7085 17.75L27.6735 17.89L27.7785 17.925L27.7435 18.205L27.8485 18.345L27.7785 18.625H27.8135L27.7435 19.325H27.8485V19.605L27.9185 19.92L27.8485 20.655ZM21.9335 19.465C21.7935 19.4183 21.7002 19.325 21.6535 19.185H21.9335V19.465ZM21.5835 19.465C21.4902 19.5817 21.3502 19.6517 21.1635 19.675C21.0935 19.745 21.0118 19.7917 20.9185 19.815C20.8952 19.745 20.8718 19.675 20.8485 19.605L20.7435 19.395C20.8368 19.3483 20.8952 19.2317 20.9185 19.045H21.2685C21.1985 19.185 21.1635 19.3017 21.1635 19.395H21.4435V19.465H21.5835ZM21.0235 20.9V21.005H20.9185V20.76H20.8835L20.9185 20.655V20.48H21.0235V20.76H21.1635V20.9H21.0235ZM23.6485 22.685C23.6252 22.615 23.6135 22.5683 23.6135 22.545L23.5785 22.475V22.685H23.6485ZM22.5285 21.425H22.4935V21.285C22.1902 21.3083 22.0035 21.495 21.9335 21.845H21.7235V21.985H22.2135C22.2835 21.8217 22.3885 21.6817 22.5285 21.565V21.425ZM21.6535 21.53C21.6302 21.4367 21.6185 21.3783 21.6185 21.355L21.5835 21.285V21.53H21.6535ZM36.6133 1.825C36.6133 2.22167 36.5666 2.51333 36.4733 2.7C36.2399 2.72333 35.9133 2.735 35.4933 2.735L34.8983 2.7H34.3033V2.91H34.1633V3.05H34.3033L34.2683 3.155L34.2333 3.26C34.1866 3.35333 34.1633 3.42333 34.1633 3.47H34.3033V11.1H34.1633L34.1983 11.275L34.2683 11.45C34.3383 11.59 34.3499 11.73 34.3033 11.87H34.1633C34.1633 11.94 34.1866 12.0217 34.2333 12.115L34.3033 12.325H34.1633C34.1633 12.6517 34.1399 12.8967 34.0933 13.06H33.2533V13.235H33.5333V13.34C33.6266 13.3867 33.7199 13.3517 33.8133 13.235C33.9066 13.235 33.9766 13.2467 34.0233 13.27L34.0933 13.305L34.1633 13.34C34.1633 13.5033 34.1399 13.6433 34.0933 13.76H33.6733V13.515C33.5099 13.5383 33.3816 13.585 33.2883 13.655C33.2183 13.6783 33.1483 13.725 33.0783 13.795C32.9383 13.9583 32.7749 14.0517 32.5883 14.075C32.5883 13.9817 32.5999 13.8883 32.6233 13.795L32.6933 13.515H32.5883V13.13H32.2733V13.235H32.1683C32.1683 13.4217 32.2033 13.5617 32.2733 13.655H32.3783V14.075H32.4483V14.25C32.4949 14.2733 32.5416 14.3083 32.5883 14.355C32.6349 14.3783 32.6699 14.4133 32.6933 14.46H33.1133C33.0899 14.5767 33.0549 14.705 33.0083 14.845L32.9383 15.02L32.8683 15.23C33.1016 15.3233 33.2299 15.405 33.2533 15.475C33.3466 15.4283 33.4283 15.335 33.4983 15.195L33.6033 15.055L33.6733 14.95H33.8133V14.74L33.8483 14.705C33.8483 14.6817 33.8599 14.6233 33.8833 14.53L33.7433 14.495L33.5683 14.46V14.145L33.6383 14.11L33.6733 14.075C33.9066 14.075 34.1166 14.1333 34.3033 14.25C34.2333 14.6233 34.1983 15.125 34.1983 15.755C34.1983 16.385 34.2333 16.8283 34.3033 17.085V18.24H34.1633C34.1633 18.4033 34.2099 18.5083 34.3033 18.555V19.115H34.1633C34.1399 19.255 34.1516 19.395 34.1983 19.535L34.2683 19.71L34.3033 19.885C34.3033 19.9783 34.2916 20.2 34.2683 20.55V21.005L34.2333 21.46C34.2099 22.2067 34.2683 22.6383 34.4083 22.755C34.4083 22.9883 34.3733 23.1517 34.3033 23.245C34.0699 23.2917 33.8016 23.3267 33.4983 23.35L32.6933 23.385V23.245H31.9583V23.14H31.8883V23.245C31.8649 23.2917 31.8183 23.3267 31.7483 23.35L31.5733 23.385L31.5383 23.28L31.5033 23.14C31.4566 23.0233 31.4683 22.895 31.5383 22.755H31.5733C31.5966 22.6383 31.6083 22.3817 31.6083 21.985C31.6083 21.565 31.5966 21.2267 31.5733 20.97C31.5499 20.62 31.5499 20.0483 31.5733 19.255V14.95L31.6083 14.74V14.565C31.6316 14.4017 31.6549 14.2617 31.6783 14.145H31.5733C31.5033 13.9117 31.4916 13.5617 31.5383 13.095L31.6083 12.605L31.6433 12.36L31.6783 12.185C31.6549 12.0917 31.6316 11.9867 31.6083 11.87L31.5733 11.625H31.6783V10.715H31.5733V10.435H31.5383V10.295H31.5733V10.155H31.6783V8.755C31.6783 8.70833 31.6899 8.59167 31.7133 8.405C31.7366 8.195 31.7483 7.985 31.7483 7.775C31.7716 7.145 31.7483 6.725 31.6783 6.515H31.6433C31.6666 6.515 31.6783 6.49167 31.6783 6.445V5.885H32.4483C32.4949 5.885 32.5416 5.97833 32.5883 6.165H32.6933C32.7399 5.97833 32.8333 5.885 32.9733 5.885C32.9733 5.48833 32.9266 5.23167 32.8333 5.115C32.7866 5.045 32.5999 4.94 32.2733 4.8V4.625H32.0983C32.0983 4.975 32.0283 5.20833 31.8883 5.325C31.8649 5.34833 31.7949 5.395 31.6783 5.465V5.325C31.6316 5.255 31.6316 5.115 31.6783 4.905C31.7016 4.765 31.7483 4.60167 31.8183 4.415H32.1683L32.2383 4.52C32.2616 4.56667 32.2733 4.60167 32.2733 4.625H32.4483C32.4949 4.57833 32.5299 4.52 32.5533 4.45L32.5883 4.31H31.8883V4.24C31.7716 4.14667 31.7016 3.93667 31.6783 3.61V2.77H29.2633V0.704999L32.8683 0.634998C34.4783 0.611665 35.6799 0.599998 36.4733 0.599998C36.5199 0.693332 36.5666 0.751665 36.6133 0.774998V1.825ZM32.4483 2.7C32.2149 2.74667 32.0516 2.77 31.9583 2.77C31.9583 2.86333 31.9466 2.98 31.9233 3.12C31.8999 3.26 31.8883 3.365 31.8883 3.435H32.0983V3.33C32.1449 3.28333 32.1683 3.24833 32.1683 3.225L32.2383 3.12C32.2616 3.07333 32.3316 3.05 32.4483 3.05V2.7ZM32.6933 7.18C32.5533 6.99333 32.3549 6.85333 32.0983 6.76V7.04L32.2383 7.11L32.3783 7.18H32.6933ZM32.4483 7.565H32.0983V7.95H32.3783V7.845H32.4483V7.565ZM32.6933 8.755L32.6583 8.685V8.615L32.6233 8.58L32.5883 8.51V8.755H32.6933ZM32.4483 8.37C32.3083 8.37 32.1449 8.41667 31.9583 8.51V8.65C32.0049 8.65 32.0633 8.66167 32.1333 8.685L32.2733 8.755C32.3433 8.545 32.4016 8.42833 32.4483 8.405V8.37ZM33.5683 11.065H33.3933V11.24H33.5683V11.065ZM32.3783 10.295V10.19L32.3433 10.015C32.2966 9.89833 32.2733 9.805 32.2733 9.735H31.9583L31.9933 9.98C32.0166 10.0733 32.0516 10.1667 32.0983 10.26H31.9583C31.8883 10.5867 31.9583 10.8083 32.1683 10.925V11.1H32.2733V10.295H32.3783ZM33.6733 12.185L33.5333 11.905V11.625C33.4866 11.5783 33.4516 11.5667 33.4283 11.59L33.3933 11.52H32.9733C32.8799 11.7533 32.9266 11.9283 33.1133 12.045V12.185C33.1599 12.115 33.2183 12.0683 33.2883 12.045C33.3583 11.9983 33.4399 11.9983 33.5333 12.045V12.185H33.6733ZM33.1833 13.235H32.8683C32.9149 13.375 33.0199 13.4683 33.1833 13.515V13.235ZM33.1833 17.54C33.2066 17.47 33.1949 17.4233 33.1483 17.4L33.1133 17.365V17.225H32.9733L32.9383 17.47C32.9149 17.54 32.8916 17.5983 32.8683 17.645C32.9616 17.6217 33.0433 17.5867 33.1133 17.54H33.1833Z" fill="#CCCCCC" fill-opacity="0.77"/>
</svg>
