<svg width="212" height="73" viewBox="0 0 212 73" fill="none" xmlns="http://www.w3.org/2000/svg">
<path d="M7.5 3.39999H6.3C6.23333 3.13333 6.13333 2.96666 6 2.89999V3.39999H6.3V3.7H6.5V4H7.5V3.39999ZM21.2 61.1H21V60.7C20.2667 60.7667 19.8667 61.1667 19.8 61.9H20.3C20.2333 62.2333 20.0667 62.5 19.8 62.7V62.9C20.1333 62.9 20.6 62.7 21.2 62.3V61.1ZM16.9 61.9V61.5H16.7V62.1C16.9 62.0333 17.0333 61.9667 17.1 61.9H16.9ZM15.4 65.4C15.3333 65.6 15.3 65.7667 15.3 65.9H13.6V66H12.4V65.9H11.2C11.1333 65.9 11.0667 65.9667 11 66.1L10.9 66.4C10.7 66.4 10.5333 66.3333 10.4 66.2L10.3 66H10.2C10.0667 66.0667 9.86667 66.1333 9.6 66.2L9 66.4C9 67.2 8.93333 68.2333 8.8 69.5C8.66667 70.3667 8.43333 71.3 8.1 72.3H7.3V72.4H6.1V72.3H1.2L1 64.6C0.933333 62.7333 0.9 61.4 0.9 60.6C1.23333 60.4667 1.66667 60.3667 2.2 60.3L4.8 60.1V56.7H5.2V55H4.8V54.7H5.2V54.4H4.8C4.93333 54.1333 5.03333 53.8333 5.1 53.5L5.2 52.6C5.06667 52.3333 4.93333 52.1667 4.8 52.1H5.2V44.9C4.86667 44.7667 4.73333 44.5 4.8 44.1H5.2V43H5.4C5.4 42.6 5.36667 42.0667 5.3 41.4C5.23333 40.7333 5.2 40.2333 5.2 39.9H5.4V38.8H5.6C5.6 38.2 5.53333 37.3 5.4 36.1H5.2C5.2 35.4333 5.23333 34.5 5.3 33.3L5.4 30.8H4.8C4.8 30.1333 4.93333 29.7 5.2 29.5H5.4V29.2H5.2C5.13333 28.7333 5.2 28.4333 5.4 28.3C5.4 27.8333 5.36667 27.2667 5.3 26.6C5.23333 25.9333 5.2 25.4333 5.2 25.1H5.4V21.5C5.73333 21.5 5.8 21.2667 5.6 20.8C5.46667 20.6 5.4 20.3333 5.4 20C5.73333 19.8 5.8 19.5333 5.6 19.2C5.53333 19 5.4 18.9 5.2 18.9C5.2 18.5667 5.23333 18.2333 5.3 17.9C5.36667 17.5 5.4 17.2 5.4 17H5.6C5.6 16 5.53333 14.8333 5.4 13.5L5.6 12.5L5.8 11.5C5.93333 10.6333 5.86667 9.93333 5.6 9.39999H5.4L5.3 5.3C5.23333 3.43333 5.2 2.1 5.2 1.3C5.53333 1.16666 5.96667 1.06666 6.5 0.999995H7.9C8.23333 0.799998 8.9 0.666664 9.9 0.599995C10.9 0.599995 11.6333 0.699995 12.1 0.899997C12.4333 0.966663 12.9333 0.999995 13.6 0.999995L14.9 1.09999H17.2L18.5 0.999995C19.1667 0.999995 19.6667 0.966663 20 0.899997C20.4667 0.699995 21.2 0.599995 22.2 0.599995C23.2 0.666664 23.8667 0.799998 24.2 0.999995H25.6C26.1333 1.06666 26.5667 1.16666 26.9 1.3C26.8333 2.1 26.7667 3.43333 26.7 5.3L26.5 9.39999H26.3C26.0333 9.93333 25.9667 10.6333 26.1 11.5L26.3 12.5L26.4 13.5C26.2667 14.8333 26.2 16 26.2 17H26.4C26.4 17.2 26.4333 17.5 26.5 17.9V18.9C26.3 18.9 26.1667 19 26.1 19.2C25.9 19.5333 25.9667 19.8 26.3 20C26.3 20.3333 26.2333 20.6 26.1 20.8C25.9 21.2667 25.9667 21.5 26.3 21.5L26.2 25.1H26.4C26.4 25.4333 26.3667 25.9333 26.3 26.6C26.2333 27.2667 26.2 27.8333 26.2 28.3C26.3333 28.4333 26.3667 28.7333 26.3 29.2H26.1V29.5H26.3C26.5667 29.7 26.7 30.1333 26.7 30.8H26.1L26.2 33.3V36.1H26C25.8667 37.3 25.7667 38.2 25.7 38.8H25.9V39.9H26.1C26.1 40.2333 26.0667 40.7333 26 41.4C25.9333 42.0667 25.9 42.6 25.9 43H26.1L26 44.1H26.4C26.4667 44.5 26.3333 44.7667 26 44.9L25.9 52.1H26.3C26.1667 52.1667 26.0333 52.3333 25.9 52.6L26 53.5C26.0667 53.8333 26.1333 54.1333 26.2 54.4H25.8V54.7H26.2V55H25.8V56.7H26.2L26.1 60.2L28.4 60.4C28.9333 60.4667 29.3667 60.5667 29.7 60.7C29.7 61.5 29.6667 62.8333 29.6 64.7L29.7 67.4H29.3V68.5H29.7V72.3H24.2V72.4H23V72.3H22.2C21.8667 71.3 21.7333 70.3333 21.8 69.4C21.8667 68.4667 21.8667 67.8667 21.8 67.6H21.7L21.6 66.5L21 66.3C20.7333 66.2333 20.5333 66.1667 20.4 66.1H20.3L20.2 66.3C20.0667 66.4333 19.9 66.5 19.7 66.5L19.6 66.2C19.5333 66.0667 19.4667 66 19.4 66H15.6C15.6 65.8 15.5333 65.6 15.4 65.4ZM18.6 60.4C18.6 60.2 18.6333 60 18.7 59.8L18.8 59.5L18.9 59.2C18.9667 58.8667 18.9667 58.5667 18.9 58.3H18.8V56.1H18.5C18.5 56.0333 18.5333 55.9333 18.6 55.8L18.7 55.4C18.8333 54.9333 18.8667 54.6 18.8 54.4H18.5L18.6 52.9C18.6 52.6333 18.7 52.3667 18.9 52.1H18.6L18.8 43.4H18.4L18.5 41.9C18.5667 41.3667 18.6667 40.9333 18.8 40.6C18.6667 40.2667 18.5333 39.6667 18.4 38.8H18.8C18.8667 38.4667 18.7667 38.3 18.5 38.3L18.6 31.2H18.2C18.3333 30.6 18.4333 29.9 18.5 29.1L18.7 27.1V26.9L18.6 26.6L18.5 26C18.3667 25.4 18.3 24.9333 18.3 24.6H18.7L18.8 21.5H18.4C18.5333 20.8333 18.6333 20.0333 18.7 19.1L18.9 16.9C18.6333 15.7667 18.5 14.1667 18.5 12.1L18.6 9.5L18.7 7.09999L18.1 6.9C17.8333 6.83333 17.6333 6.76667 17.5 6.7H17.4L17.3 6.9C17.1667 7.03333 17 7.09999 16.8 7.09999L16.7 6.8C16.6333 6.66666 16.5667 6.59999 16.5 6.59999H15.5C15.4333 6.59999 15.3667 6.66666 15.3 6.8L15.2 7.09999C15 7.09999 14.8333 7.03333 14.7 6.9L14.6 6.7H14.5C14.3667 6.76667 14.1667 6.83333 13.9 6.9L13.3 7.09999V9.5L13.4 12.1C13.3333 14.1667 13.1667 15.7667 12.9 16.9L13 19.1C13.0667 20.0333 13.1667 20.8333 13.3 21.5H12.9V24.6H13.3C13.3 24.9333 13.2333 25.4 13.1 26L13 26.6L12.9 26.9V27.1L13 29.1C13.0667 29.9 13.1667 30.6 13.3 31.2H12.9V38.3C12.6333 38.3 12.5 38.4667 12.5 38.8H12.9C12.7667 39.6667 12.6333 40.2667 12.5 40.6C12.6333 40.9333 12.7333 41.3667 12.8 41.9L12.9 43.4H12.5V52.1H12.2C12.4 52.3667 12.5 52.6333 12.5 52.9V54.4H12.2C12.1333 54.6 12.1667 54.9333 12.3 55.4L12.4 55.8C12.4667 55.9333 12.5 56.0333 12.5 56.1H12.2V58.3H12.1C12.0333 58.5667 12.0333 58.8667 12.1 59.2L12.2 59.5V59.8C12.2667 59.9333 12.3 60.1 12.3 60.3H15.7V60.4H18.6ZM73.5102 55.4L73.3102 55.3H72.9102C72.8435 55.5 72.9102 55.7 73.1102 55.9L73.2102 56.2L73.3102 56.4H72.9102C72.9102 57.8667 72.8768 58.9 72.8102 59.5H72.5102L71.9102 60.7L71.3102 61.9L70.7102 62L70.2102 62.1L69.7102 62.7L69.3102 63.3H68.7102L68.6102 63.6C68.5435 63.6667 68.4768 63.7333 68.4102 63.8H67.9102V64.1L67.3102 64.3L66.7102 64.5V64.6C66.2435 64.8 65.5768 64.9 64.7102 64.9V65.3H64.2102V65.6C63.6768 65.8 62.9102 65.8333 61.9102 65.7L60.8102 65.5C60.4102 65.3667 60.1102 65.3 59.9102 65.3V64.5L58.6102 64.7L57.3102 64.9V64.6H56.1102L56.0102 64.4L55.8102 64.1H54.9102V63.9C54.8435 63.7667 54.7768 63.6333 54.7102 63.5H54.1102C53.5768 62.9667 53.2435 62.5 53.1102 62.1L52.5102 62C52.3768 62 52.2768 61.9667 52.2102 61.9C52.0102 61.1 51.9102 60.4667 51.9102 60L51.6102 59.9H51.2102V58.8L51.0102 58.7H50.7102C50.6435 58.4333 50.7102 58.1667 50.9102 57.9L51.1102 57.6L51.2102 57.2L51.1102 57.1L50.9102 57C50.7102 56.8667 50.5435 56.7333 50.4102 56.6C50.3435 56.3333 50.4435 56.0667 50.7102 55.8L51.0102 55.5L51.2102 55.3H51.1102C50.7102 54.8333 50.4768 54.4333 50.4102 54.1H51.2102V53.6L51.1102 53.1H50.7102V52.6H50.4102L50.6102 52.2L50.7102 51.8C51.0435 51.7333 51.3102 51.6 51.5102 51.4L51.9102 51.8C51.9768 51.5333 52.1102 51.3333 52.3102 51.2V50.9H51.5102V50.6L51.1102 50.5H51.0102L50.7102 50.4L50.6102 50V49.6C50.5435 49.3333 50.4768 49.1 50.4102 48.9H50.7102V47.4C50.4435 47.5333 50.3435 47.3667 50.4102 46.9C50.6102 46.7667 50.7102 46.5667 50.7102 46.3H50.4102L50.6102 46L50.7102 45.8C50.6435 45.7333 50.5435 45.6667 50.4102 45.6L50.0102 45.5C50.1435 45.3667 50.2435 45.2 50.3102 45L50.4102 44.7H50.7102L50.6102 40.9C50.5435 39.4333 50.4768 38.1667 50.4102 37.1H50.0102V36.9H50.4102C50.4768 36.5 50.4435 36.1 50.3102 35.7L50.1102 35.2L50.0102 34.9H50.4102V34.1H50.7102C50.5768 33.5667 50.4768 33.2667 50.4102 33.2H50.0102V32.9H50.4102V30.5H50.0102C50.1435 30.2333 50.2435 29.9 50.3102 29.5L50.4102 28.6H50.0102V27.9H49.9102V27.8H50.0102V25.6H50.4102V25.5H50.0102V19.4C49.9435 19 49.9102 18.7333 49.9102 18.6H50.0102V17.3L49.9102 16.1H50.0102V15.3H50.4102V15.2H50.0102V8.3H50.4102V7.2H50.7102V6.3H51.1102V5.6C51.1768 5.53333 51.2768 5.46666 51.4102 5.4L51.9102 5.2C51.9102 4.8 52.0102 4.46666 52.2102 4.2H52.3102L52.5102 4.1L53.1102 4V3.7C53.7102 3.7 54.3102 3.8 54.9102 4V3.7H55.3102V3.39999H54.5102L54.6102 2.8L54.7102 2.2L54.9102 2.1H55.1102C55.3768 2.03333 55.5768 1.93333 55.7102 1.8V1.7H56.1102V1.4H57.3102V0.999995H58.5102V0.699999H59.9102V0.599995C60.5102 0.399997 61.4768 0.366664 62.8102 0.499996C63.2768 0.566662 63.7768 0.63333 64.3102 0.699999C64.7102 0.833331 65.0768 0.93333 65.4102 0.999995H66.4102V1.4L67.3102 1.6L68.1102 1.8V2.2H68.7102C68.7768 2.26666 68.8435 2.36666 68.9102 2.5L69.1102 2.89999H69.5102C69.9768 3.23333 70.2768 3.6 70.4102 4L70.8102 4.1L71.1102 4.2L71.4102 4.7L71.6102 5.1C71.7435 5.5 71.9102 5.8 72.1102 6V7.2H71.9102V7.6H72.1102V8.8H72.5102V11.1H72.8102C72.8768 11.4333 72.7768 11.6 72.5102 11.6V12.8H72.8102V16.5L72.9102 16.6H73.0102C73.0768 16.6667 73.0435 16.8 72.9102 17H72.8102V21.4C73.0768 21.6 73.1102 21.8667 72.9102 22.2H72.8102V27.1L72.9102 27.2L73.0102 27.3C73.0768 27.3667 73.0435 27.5333 72.9102 27.8H72.8102V28.9H72.9102L72.8102 29.1L72.7102 29.3C72.6435 29.5667 72.6768 29.8333 72.8102 30.1C72.9435 30.6333 72.9768 31.6333 72.9102 33.1L72.8102 34.8C72.8102 35.3333 72.8435 35.8 72.9102 36.2H73.3102C73.4435 36.4667 73.4102 36.6333 73.2102 36.7L73.0102 36.8L72.9102 36.9V39.9C72.8435 40.0333 72.8102 40.2 72.8102 40.4H72.9102V42H73.3102L73.2102 42.2V42.5C73.1435 42.6333 73.0435 42.7333 72.9102 42.8V47.3H73.3102L73.2102 47.9C73.1435 48.1667 73.0435 48.3667 72.9102 48.5H73.3102V54.3H73.7102C73.7768 54.6333 73.8102 55.0333 73.8102 55.5L73.5102 55.4ZM52.3102 6.4H52.2102V7.6H52.3102V6.4ZM65.6102 45.5L65.5102 43.7L65.4102 42C65.1435 37.4 65.0102 32.1667 65.0102 26.3L64.9102 17.9L64.7102 9.5C64.1768 8.43333 63.7435 7.63333 63.4102 7.09999L62.7102 7H62.1102C61.7102 6.93333 61.3768 6.86666 61.1102 6.8V7.09999H59.6102C59.4768 7.23333 59.2435 7.43333 58.9102 7.7L58.5102 7.99999L58.1102 8.3L58.0102 8.8L57.9102 9.3L57.6102 10.5H58.0102V14C58.1435 14 58.1768 14.3 58.1102 14.9C58.1102 14.9667 58.0768 15 58.0102 15L57.9102 14.9C57.8435 14.9 57.8768 15 58.0102 15.2H58.1102V16.2H58.0102V16.9H57.6102C57.5435 17.0333 57.5768 17.1667 57.7102 17.3H57.9102L58.0102 17.4V21.4H58.1102V22.8H58.0102C57.8768 23.2667 57.8435 23.7 57.9102 24.1L58.0102 24.6L58.1102 25.1V26.7H58.0102V30.2C58.0102 30.8 57.9768 31.6 57.9102 32.6L57.8102 35.1C57.7435 37.0333 57.8435 38.5 58.1102 39.5V50.1H58.5102C58.3768 50.2333 58.2768 50.4333 58.2102 50.7L58.1102 51.2L58.2102 53.2C58.2768 54 58.3768 54.7 58.5102 55.3H58.8102V57H59.0102V57.5C59.1435 57.5 59.2435 57.5333 59.3102 57.6L59.5102 57.8H59.6102L59.7102 58V58.2C59.7768 58.4 59.8435 58.5667 59.9102 58.7C61.5102 58.9667 63.1102 58.7333 64.7102 58C64.7768 57.6667 64.8768 57.5 65.0102 57.5V53.8H65.4102L65.5102 51.9L65.6102 50.1L65.5102 49.1L65.4102 48.1C65.4102 47.9667 65.4435 47.8 65.5102 47.6L65.7102 46.8C65.8435 46.1333 65.8768 45.7 65.8102 45.5H65.6102ZM71.3102 44H70.7102C70.8435 44.1333 71.0435 44.2333 71.3102 44.3V44ZM70.4102 57.8H69.9102V58.4H70.4102V57.8ZM53.9102 54.1H53.5102C53.2435 54.6333 52.9768 55.0333 52.7102 55.3V55.5C53.1102 55.3667 53.5102 55.1667 53.9102 54.9V54.1ZM51.9102 56.6V58H52.2102L52.3102 57.3V56.6H51.9102ZM118.093 49C117.826 49.2667 117.593 49.4 117.393 49.4V50.9C117.326 51.1 117.26 51.3667 117.193 51.7L117.093 52.2C116.96 52.5333 116.66 52.8333 116.193 53.1V53.5L116.793 53.3L117.293 53.1C117.693 55.7667 117.26 58.2667 115.993 60.6C114.793 62.7333 113.193 64.2667 111.193 65.2C109.993 65.3333 109.026 65.4 108.293 65.4V65.7L106.693 65.6L105.093 65.4V65.7C104.626 65.8333 104.026 65.9333 103.293 66L101.393 66.1L100.493 66L99.593 65.8C98.9263 65.7333 98.4596 65.8333 98.193 66.1H96.793V65.7C96.593 65.5 96.493 65.0667 96.493 64.4L96.393 63.6L96.293 62.9H95.993L96.093 59.6C96.1596 58.3333 96.2263 57.2333 96.293 56.3H96.593L96.393 55.1V54.4L96.293 53.7L96.393 51.7L96.593 49.7V47.7H96.293V47.4H96.593V45.9H96.293L96.393 45.6V45.2C96.4596 44.8667 96.5263 44.6 96.593 44.4H96.293V35.7H95.993L96.093 34C96.1596 33.3333 96.2263 32.8333 96.293 32.5C96.293 32.2333 96.193 32 95.993 31.8V30.7H96.293C96.3596 30.3667 96.3263 30 96.193 29.6L96.093 29.1L95.993 28.7C95.8596 28.3667 95.893 27.8 96.093 27L96.293 26.1V25.6H95.993V15.7H95.593L95.693 14.8L95.793 14C95.9263 13.3333 95.993 12.8 95.993 12.4C95.8596 12.1333 95.7596 12 95.693 12V11.3L95.593 10.7H95.493L95.293 7.99999L95.193 5.3H94.793C94.8596 4.7 95.2596 4.2 95.993 3.8V3H95.593L95.793 1.99999C95.9263 1.6 95.993 1.26666 95.993 0.999995L96.893 0.799998C97.2263 0.733332 97.5263 0.699999 97.793 0.699999V0.999995L98.293 0.899997L98.793 0.799998C99.2596 0.733332 99.693 0.699999 100.093 0.699999V0.499996L101.393 0.599995H102.093L102.893 0.699999V0.499996H107.093V0.699999C107.426 0.766665 107.693 0.766665 107.893 0.699999L108.093 0.599995L108.293 0.499996V0.699999H110.393L110.593 1.09999L110.793 1.49999L111.793 1.7L112.793 1.8L112.893 1.99999L113.093 2.1C113.16 2.16666 113.193 2.23333 113.193 2.3C113.393 2.43333 113.593 2.53333 113.793 2.6H114.293L114.793 3.2C114.926 3.46666 115.026 3.66666 115.093 3.8L115.493 4L115.793 4.2V4.6L116.193 5C116.793 5.86667 117.16 7.26666 117.293 9.2V14.2C117.293 14.7333 117.326 15.6 117.393 16.8L117.593 19.5C117.726 21.7667 117.726 23.6667 117.593 25.2C117.393 29.4667 116.293 32.1667 114.293 33.3C115.093 33.6333 115.693 34.2333 116.093 35.1L116.293 35.4L116.493 35.8C116.626 36 116.726 36.2667 116.793 36.6L116.893 37V37.4C116.96 37.4 117.026 37.4667 117.093 37.6L117.293 37.9V40.8H117.393V41.6H117.793V45.9H117.393C117.66 46.5 117.793 47.1667 117.793 47.9H117.393L117.593 48.3L117.793 48.6C117.86 48.8 117.96 48.9333 118.093 49ZM109.493 23.1C109.56 22.4333 109.56 21.5333 109.493 20.4V14.6H109.193L109.393 13.4L109.493 12.2H109.193C109.126 11.8 109.093 11.4 109.093 11L109.193 10.4L109.293 9.9C109.426 9.1 109.26 8.46666 108.793 7.99999C108.593 7.26666 108.026 6.83333 107.093 6.7C106.693 6.63333 106.193 6.63333 105.593 6.7H103.893C103.56 7.7 103.426 9.6 103.493 12.4L103.593 14L103.693 15.6C103.76 16.6667 103.76 17.4333 103.693 17.9V19L103.593 20.4C103.593 21.5333 103.693 22.2333 103.893 22.5C103.893 22.9667 103.86 23.6667 103.793 24.6V26.9C103.726 28.7667 103.893 30.1333 104.293 31C106.426 31 107.993 30.7 108.993 30.1C109.126 29.9 109.226 29.6333 109.293 29.3V28.9L109.393 28.6L109.493 27.6V23.1ZM109.693 45.6V42H109.493V39.5H109.193V38.7H108.793V38.4C108.726 38.2667 108.66 38.1 108.593 37.9C106.593 37.5667 105.16 37.4667 104.293 37.6C104.293 38.2 104.26 39.1333 104.193 40.4V43.4C104.193 45.8 104.326 47.6333 104.593 48.9L104.493 49.9L104.293 50.9H104.593L104.493 51.6V52.4C104.426 53.0667 104.36 53.5667 104.293 53.9C104.36 54.7 104.426 55.7 104.493 56.9V58.3L104.593 59.6H105.393L106.393 59.5C107.06 59.5 107.526 59.4 107.793 59.2C108.326 59 108.593 58.8 108.593 58.6L108.693 58.3C108.693 58.1667 108.726 58 108.793 57.8H109.193V57H109.493V55.1H109.693V51.3C109.893 50.8333 110.026 49.9667 110.093 48.7C110.226 47.3 110.193 46.2667 109.993 45.6H109.693ZM113.193 58.3C113.193 58.9667 113.06 59.7 112.793 60.5C112.993 60.3667 113.193 60.0667 113.393 59.6L113.593 58.9L113.793 58.3H113.193ZM162.202 55.4L162.002 55.3H161.602C161.535 55.5 161.602 55.7 161.802 55.9L161.902 56.2L162.002 56.4H161.602C161.602 57.8667 161.568 58.9 161.502 59.5H161.202L160.602 60.7L160.002 61.9L159.402 62L158.902 62.1L158.402 62.7L158.002 63.3H157.402L157.302 63.6C157.235 63.6667 157.168 63.7333 157.102 63.8H156.602V64.1L156.002 64.3L155.402 64.5V64.6C154.935 64.8 154.268 64.9 153.402 64.9V65.3H152.902V65.6C152.368 65.8 151.602 65.8333 150.602 65.7L149.502 65.5C149.102 65.3667 148.802 65.3 148.602 65.3V64.5L147.302 64.7L146.002 64.9V64.6H144.802L144.702 64.4L144.502 64.1H143.602V63.9C143.535 63.7667 143.468 63.6333 143.402 63.5H142.802C142.268 62.9667 141.935 62.5 141.802 62.1L141.202 62C141.068 62 140.968 61.9667 140.902 61.9C140.702 61.1 140.602 60.4667 140.602 60L140.302 59.9H139.902V58.8L139.702 58.7H139.402C139.335 58.4333 139.402 58.1667 139.602 57.9L139.802 57.6L139.902 57.2L139.802 57.1L139.602 57C139.402 56.8667 139.235 56.7333 139.102 56.6C139.035 56.3333 139.135 56.0667 139.402 55.8L139.702 55.5L139.902 55.3H139.802C139.402 54.8333 139.168 54.4333 139.102 54.1H139.902V53.6L139.802 53.1H139.402V52.6H139.102L139.302 52.2L139.402 51.8C139.735 51.7333 140.002 51.6 140.202 51.4L140.602 51.8C140.668 51.5333 140.802 51.3333 141.002 51.2V50.9H140.202V50.6L139.802 50.5H139.702L139.402 50.4L139.302 50V49.6C139.235 49.3333 139.168 49.1 139.102 48.9H139.402V47.4C139.135 47.5333 139.035 47.3667 139.102 46.9C139.302 46.7667 139.402 46.5667 139.402 46.3H139.102L139.302 46L139.402 45.8C139.335 45.7333 139.235 45.6667 139.102 45.6L138.702 45.5C138.835 45.3667 138.935 45.2 139.002 45L139.102 44.7H139.402L139.302 40.9C139.235 39.4333 139.168 38.1667 139.102 37.1H138.702V36.9H139.102C139.168 36.5 139.135 36.1 139.002 35.7L138.802 35.2L138.702 34.9H139.102V34.1H139.402C139.268 33.5667 139.168 33.2667 139.102 33.2H138.702V32.9H139.102V30.5H138.702C138.835 30.2333 138.935 29.9 139.002 29.5L139.102 28.6H138.702V27.9H138.602V27.8H138.702V25.6H139.102V25.5H138.702V19.4C138.635 19 138.602 18.7333 138.602 18.6H138.702V17.3L138.602 16.1H138.702V15.3H139.102V15.2H138.702V8.3H139.102V7.2H139.402V6.3H139.802V5.6C139.868 5.53333 139.968 5.46666 140.102 5.4L140.602 5.2C140.602 4.8 140.702 4.46666 140.902 4.2H141.002L141.202 4.1L141.802 4V3.7C142.402 3.7 143.002 3.8 143.602 4V3.7H144.002V3.39999H143.202L143.302 2.8L143.402 2.2L143.602 2.1H143.802C144.068 2.03333 144.268 1.93333 144.402 1.8V1.7H144.802V1.4H146.002V0.999995H147.202V0.699999H148.602V0.599995C149.202 0.399997 150.168 0.366664 151.502 0.499996C151.968 0.566662 152.468 0.63333 153.002 0.699999C153.402 0.833331 153.768 0.93333 154.102 0.999995H155.102V1.4L156.002 1.6L156.802 1.8V2.2H157.402C157.468 2.26666 157.535 2.36666 157.602 2.5L157.802 2.89999H158.202C158.668 3.23333 158.968 3.6 159.102 4L159.502 4.1L159.802 4.2L160.102 4.7L160.302 5.1C160.435 5.5 160.602 5.8 160.802 6V7.2H160.602V7.6H160.802V8.8H161.202V11.1H161.502C161.568 11.4333 161.468 11.6 161.202 11.6V12.8H161.502V16.5L161.602 16.6H161.702C161.768 16.6667 161.735 16.8 161.602 17H161.502V21.4C161.768 21.6 161.802 21.8667 161.602 22.2H161.502V27.1L161.602 27.2L161.702 27.3C161.768 27.3667 161.735 27.5333 161.602 27.8H161.502V28.9H161.602L161.502 29.1L161.402 29.3C161.335 29.5667 161.368 29.8333 161.502 30.1C161.635 30.6333 161.668 31.6333 161.602 33.1L161.502 34.8C161.502 35.3333 161.535 35.8 161.602 36.2H162.002C162.135 36.4667 162.102 36.6333 161.902 36.7L161.702 36.8L161.602 36.9V39.9C161.535 40.0333 161.502 40.2 161.502 40.4H161.602V42H162.002L161.902 42.2V42.5C161.835 42.6333 161.735 42.7333 161.602 42.8V47.3H162.002L161.902 47.9C161.835 48.1667 161.735 48.3667 161.602 48.5H162.002V54.3H162.402C162.468 54.6333 162.502 55.0333 162.502 55.5L162.202 55.4ZM141.002 6.4H140.902V7.6H141.002V6.4ZM154.302 45.5L154.202 43.7L154.102 42C153.835 37.4 153.702 32.1667 153.702 26.3L153.602 17.9L153.402 9.5C152.868 8.43333 152.435 7.63333 152.102 7.09999L151.402 7H150.802C150.402 6.93333 150.068 6.86666 149.802 6.8V7.09999H148.302C148.168 7.23333 147.935 7.43333 147.602 7.7L147.202 7.99999L146.802 8.3L146.702 8.8L146.602 9.3L146.302 10.5H146.702V14C146.835 14 146.868 14.3 146.802 14.9C146.802 14.9667 146.768 15 146.702 15L146.602 14.9C146.535 14.9 146.568 15 146.702 15.2H146.802V16.2H146.702V16.9H146.302C146.235 17.0333 146.268 17.1667 146.402 17.3H146.602L146.702 17.4V21.4H146.802V22.8H146.702C146.568 23.2667 146.535 23.7 146.602 24.1L146.702 24.6L146.802 25.1V26.7H146.702V30.2C146.702 30.8 146.668 31.6 146.602 32.6L146.502 35.1C146.435 37.0333 146.535 38.5 146.802 39.5V50.1H147.202C147.068 50.2333 146.968 50.4333 146.902 50.7L146.802 51.2L146.902 53.2C146.968 54 147.068 54.7 147.202 55.3H147.502V57H147.702V57.5C147.835 57.5 147.935 57.5333 148.002 57.6L148.202 57.8H148.302L148.402 58V58.2C148.468 58.4 148.535 58.5667 148.602 58.7C150.202 58.9667 151.802 58.7333 153.402 58C153.468 57.6667 153.568 57.5 153.702 57.5V53.8H154.102L154.202 51.9L154.302 50.1L154.202 49.1L154.102 48.1C154.102 47.9667 154.135 47.8 154.202 47.6L154.402 46.8C154.535 46.1333 154.568 45.7 154.502 45.5H154.302ZM160.002 44H159.402C159.535 44.1333 159.735 44.2333 160.002 44.3V44ZM159.102 57.8H158.602V58.4H159.102V57.8ZM142.602 54.1H142.202C141.935 54.6333 141.668 55.0333 141.402 55.3V55.5C141.802 55.3667 142.202 55.1667 142.602 54.9V54.1ZM140.602 56.6V58H140.902L141.002 57.3V56.6H140.602ZM188.984 3.39999H187.784C187.718 3.13333 187.618 2.96666 187.484 2.89999V3.39999H187.784V3.7H187.984V4H188.984V3.39999ZM202.684 61.1H202.484V60.7C201.751 60.7667 201.351 61.1667 201.284 61.9H201.784C201.718 62.2333 201.551 62.5 201.284 62.7V62.9C201.618 62.9 202.084 62.7 202.684 62.3V61.1ZM198.384 61.9V61.5H198.184V62.1C198.384 62.0333 198.518 61.9667 198.584 61.9H198.384ZM196.884 65.4C196.818 65.6 196.784 65.7667 196.784 65.9H195.084V66H193.884V65.9H192.684C192.618 65.9 192.551 65.9667 192.484 66.1L192.384 66.4C192.184 66.4 192.018 66.3333 191.884 66.2L191.784 66H191.684C191.551 66.0667 191.351 66.1333 191.084 66.2L190.484 66.4C190.484 67.2 190.418 68.2333 190.284 69.5C190.151 70.3667 189.918 71.3 189.584 72.3H188.784V72.4H187.584V72.3H182.684L182.484 64.6C182.418 62.7333 182.384 61.4 182.384 60.6C182.718 60.4667 183.151 60.3667 183.684 60.3L186.284 60.1V56.7H186.684V55H186.284V54.7H186.684V54.4H186.284C186.418 54.1333 186.518 53.8333 186.584 53.5L186.684 52.6C186.551 52.3333 186.418 52.1667 186.284 52.1H186.684V44.9C186.351 44.7667 186.218 44.5 186.284 44.1H186.684V43H186.884C186.884 42.6 186.851 42.0667 186.784 41.4C186.718 40.7333 186.684 40.2333 186.684 39.9H186.884V38.8H187.084C187.084 38.2 187.018 37.3 186.884 36.1H186.684C186.684 35.4333 186.718 34.5 186.784 33.3L186.884 30.8H186.284C186.284 30.1333 186.418 29.7 186.684 29.5H186.884V29.2H186.684C186.618 28.7333 186.684 28.4333 186.884 28.3C186.884 27.8333 186.851 27.2667 186.784 26.6C186.718 25.9333 186.684 25.4333 186.684 25.1H186.884V21.5C187.218 21.5 187.284 21.2667 187.084 20.8C186.951 20.6 186.884 20.3333 186.884 20C187.218 19.8 187.284 19.5333 187.084 19.2C187.018 19 186.884 18.9 186.684 18.9C186.684 18.5667 186.718 18.2333 186.784 17.9C186.851 17.5 186.884 17.2 186.884 17H187.084C187.084 16 187.018 14.8333 186.884 13.5L187.084 12.5L187.284 11.5C187.418 10.6333 187.351 9.93333 187.084 9.39999H186.884L186.784 5.3C186.718 3.43333 186.684 2.1 186.684 1.3C187.018 1.16666 187.451 1.06666 187.984 0.999995H189.384C189.718 0.799998 190.384 0.666664 191.384 0.599995C192.384 0.599995 193.118 0.699995 193.584 0.899997C193.918 0.966663 194.418 0.999995 195.084 0.999995L196.384 1.09999H198.684L199.984 0.999995C200.651 0.999995 201.151 0.966663 201.484 0.899997C201.951 0.699995 202.684 0.599995 203.684 0.599995C204.684 0.666664 205.351 0.799998 205.684 0.999995H207.084C207.618 1.06666 208.051 1.16666 208.384 1.3C208.318 2.1 208.251 3.43333 208.184 5.3L207.984 9.39999H207.784C207.518 9.93333 207.451 10.6333 207.584 11.5L207.784 12.5L207.884 13.5C207.751 14.8333 207.684 16 207.684 17H207.884C207.884 17.2 207.918 17.5 207.984 17.9V18.9C207.784 18.9 207.651 19 207.584 19.2C207.384 19.5333 207.451 19.8 207.784 20C207.784 20.3333 207.718 20.6 207.584 20.8C207.384 21.2667 207.451 21.5 207.784 21.5L207.684 25.1H207.884C207.884 25.4333 207.851 25.9333 207.784 26.6C207.718 27.2667 207.684 27.8333 207.684 28.3C207.818 28.4333 207.851 28.7333 207.784 29.2H207.584V29.5H207.784C208.051 29.7 208.184 30.1333 208.184 30.8H207.584L207.684 33.3V36.1H207.484C207.351 37.3 207.251 38.2 207.184 38.8H207.384V39.9H207.584C207.584 40.2333 207.551 40.7333 207.484 41.4C207.418 42.0667 207.384 42.6 207.384 43H207.584L207.484 44.1H207.884C207.951 44.5 207.818 44.7667 207.484 44.9L207.384 52.1H207.784C207.651 52.1667 207.518 52.3333 207.384 52.6L207.484 53.5C207.551 53.8333 207.618 54.1333 207.684 54.4H207.284V54.7H207.684V55H207.284V56.7H207.684L207.584 60.2L209.884 60.4C210.418 60.4667 210.851 60.5667 211.184 60.7C211.184 61.5 211.151 62.8333 211.084 64.7L211.184 67.4H210.784V68.5H211.184V72.3H205.684V72.4H204.484V72.3H203.684C203.351 71.3 203.218 70.3333 203.284 69.4C203.351 68.4667 203.351 67.8667 203.284 67.6H203.184L203.084 66.5L202.484 66.3C202.218 66.2333 202.018 66.1667 201.884 66.1H201.784L201.684 66.3C201.551 66.4333 201.384 66.5 201.184 66.5L201.084 66.2C201.018 66.0667 200.951 66 200.884 66H197.084C197.084 65.8 197.018 65.6 196.884 65.4ZM200.084 60.4C200.084 60.2 200.118 60 200.184 59.8L200.284 59.5L200.384 59.2C200.451 58.8667 200.451 58.5667 200.384 58.3H200.284V56.1H199.984C199.984 56.0333 200.018 55.9333 200.084 55.8L200.184 55.4C200.318 54.9333 200.351 54.6 200.284 54.4H199.984L200.084 52.9C200.084 52.6333 200.184 52.3667 200.384 52.1H200.084L200.284 43.4H199.884L199.984 41.9C200.051 41.3667 200.151 40.9333 200.284 40.6C200.151 40.2667 200.018 39.6667 199.884 38.8H200.284C200.351 38.4667 200.251 38.3 199.984 38.3L200.084 31.2H199.684C199.818 30.6 199.918 29.9 199.984 29.1L200.184 27.1V26.9L200.084 26.6L199.984 26C199.851 25.4 199.784 24.9333 199.784 24.6H200.184L200.284 21.5H199.884C200.018 20.8333 200.118 20.0333 200.184 19.1L200.384 16.9C200.118 15.7667 199.984 14.1667 199.984 12.1L200.084 9.5L200.184 7.09999L199.584 6.9C199.318 6.83333 199.118 6.76667 198.984 6.7H198.884L198.784 6.9C198.651 7.03333 198.484 7.09999 198.284 7.09999L198.184 6.8C198.118 6.66666 198.051 6.59999 197.984 6.59999H196.984C196.918 6.59999 196.851 6.66666 196.784 6.8L196.684 7.09999C196.484 7.09999 196.318 7.03333 196.184 6.9L196.084 6.7H195.984C195.851 6.76667 195.651 6.83333 195.384 6.9L194.784 7.09999V9.5L194.884 12.1C194.818 14.1667 194.651 15.7667 194.384 16.9L194.484 19.1C194.551 20.0333 194.651 20.8333 194.784 21.5H194.384V24.6H194.784C194.784 24.9333 194.718 25.4 194.584 26L194.484 26.6L194.384 26.9V27.1L194.484 29.1C194.551 29.9 194.651 30.6 194.784 31.2H194.384V38.3C194.118 38.3 193.984 38.4667 193.984 38.8H194.384C194.251 39.6667 194.118 40.2667 193.984 40.6C194.118 40.9333 194.218 41.3667 194.284 41.9L194.384 43.4H193.984V52.1H193.684C193.884 52.3667 193.984 52.6333 193.984 52.9V54.4H193.684C193.618 54.6 193.651 54.9333 193.784 55.4L193.884 55.8C193.951 55.9333 193.984 56.0333 193.984 56.1H193.684V58.3H193.584C193.518 58.5667 193.518 58.8667 193.584 59.2L193.684 59.5V59.8C193.751 59.9333 193.784 60.1 193.784 60.3H197.184V60.4H200.084Z" fill="#CCCCCC"/>
</svg>
