<svg width="60" height="24" viewBox="0 0 60 24" fill="none" xmlns="http://www.w3.org/2000/svg">
<path d="M5.58 1.86V1.615H5.65V1.58H5.58V1.055H5.755V1.86H5.58ZM3.445 2.98V2.84H2.92V2.14H3.06V2.105L3.095 2.07H3.13L3.165 2.035C3.18833 2.12833 3.2 2.30333 3.2 2.56C3.38667 2.60667 3.50333 2.65333 3.55 2.7V2.28C3.71333 2.23333 3.78333 2.18667 3.76 2.14V2.07C3.76 2.04667 3.78333 2.02333 3.83 2C3.92333 2.09333 4.08667 2.105 4.32 2.035V2H4.6C4.6 1.90667 4.64667 1.825 4.74 1.755L4.81 1.86L4.88 2H5.09V2.035C5.20667 2.08167 5.34667 2.09333 5.51 2.07L5.72 2.035L5.895 2V2.28L5.93 2.49C5.93 2.65333 5.91833 2.81667 5.895 2.98H3.445ZM4.53 11.905L4.39 12.01V11.765C4.53 11.835 4.61167 11.8817 4.635 11.905H4.53ZM5.755 12.57C5.685 12.57 5.615 12.535 5.545 12.465L5.475 12.57L5.44 12.675L5.335 12.85H4.88C4.62333 12.85 4.37833 12.8383 4.145 12.815C3.515 12.7917 3.18833 12.7567 3.165 12.71C3.11833 12.64 3.095 12.3717 3.095 11.905C3.095 11.4617 3.11833 11.1233 3.165 10.89H3.34V11.52C3.31667 11.7533 3.27 11.9283 3.2 12.045C3.27 12.0917 3.32833 12.15 3.375 12.22L3.445 12.325L3.55 12.43V12.465H3.62C3.66667 12.2317 3.69 11.9633 3.69 11.66L3.655 11.31L3.62 10.89H3.76L3.935 10.82C4.05167 10.7967 4.15667 10.785 4.25 10.785V10.89H4.95V11.065C4.69333 11.135 4.495 11.135 4.355 11.065L4.25 11.205C4.25 11.2517 4.26167 11.31 4.285 11.38L4.355 11.59H4.25V12.045C4.48333 12.045 4.65833 12.0333 4.775 12.01V11.485H4.95C4.95 11.275 4.985 11.1117 5.055 10.995H5.335C5.31167 11.0183 5.28833 11.065 5.265 11.135L5.23 11.275H5.335L5.37 11.555V11.835C5.39333 12.0683 5.42833 12.2667 5.475 12.43C5.52167 12.3833 5.56833 12.3367 5.615 12.29H5.755V12.57ZM2.92 22.615C2.57 22.685 2.115 22.7317 1.555 22.755H0.33L0.365 18.52V14.32H0.33C0.26 14.2267 0.225 14.0867 0.225 13.9H0.365L0.295 13.445L0.225 12.99H0.33V12.43H0.365V12.255L0.33 12.01C0.306667 11.8233 0.306667 11.6483 0.33 11.485H0.365V11.345H0.33V10.785H0.225C0.225 10.575 0.26 10.2717 0.33 9.875L0.085 9.595L0.33 9.455V8.265L0.225 3.365V2H0.085C0.085 1.51 0.131667 1.195 0.225 1.055H0.785V0.949998H1.31V1.055H1.45C1.38 1.125 1.345 1.20667 1.345 1.3V1.51C1.39167 1.67333 1.38 1.79 1.31 1.86C1.31 1.93 1.32167 2.05833 1.345 2.245C1.39167 2.455 1.42667 2.61833 1.45 2.735C1.54333 3.06167 1.59 2.82833 1.59 2.035H1.52L1.555 1.51L1.59 0.949998H1.8V1.23H1.94V1.475H2.01V0.949998C2.10333 0.973333 2.17333 1.00833 2.22 1.055H2.36V1.58H2.395C2.41833 1.48666 2.44167 1.38166 2.465 1.265V1.125L2.5 0.949998H2.745L2.78 1.965V2.98H2.64L2.605 3.225L2.535 3.47C2.48833 3.68 2.47667 3.86667 2.5 4.03C2.5 4.1 2.52333 4.12333 2.57 4.1C2.61667 4.1 2.64 4.11167 2.64 4.135H2.5V4.66H2.64C2.66333 4.82333 2.61667 4.92833 2.5 4.975V5.605H2.64C2.66333 5.72167 2.68667 5.885 2.71 6.095V6.655C2.68667 7.145 2.69833 7.47167 2.745 7.635V10.015C2.65167 10.0383 2.61667 10.1317 2.64 10.295H2.745V10.785C2.76833 10.785 2.80333 10.7967 2.85 10.82L2.92 10.89V12.85L2.85 12.955C2.80333 12.9783 2.76833 12.99 2.745 12.99V13.2H2.64C2.64 13.41 2.675 13.6083 2.745 13.795H2.64C2.64 13.9817 2.675 14.2033 2.745 14.46H2.64V14.88H2.745C2.675 15.3233 2.64 15.7667 2.64 16.21H2.78V16.91H2.745L2.78 17.19V17.505L2.71 17.575L2.64 17.61C2.64 17.82 2.675 18.0533 2.745 18.31H2.78V19.01C2.82667 19.5 2.86167 20.095 2.885 20.795L2.92 22.615ZM0.715 3.365L0.645 3.4L0.61 3.435H0.47V3.75H0.75L0.715 3.365ZM0.89 5.99L0.715 5.85L0.61 6.13H0.715V6.375L0.75 6.27L0.89 6.095V5.99ZM0.715 6.515L0.61 6.655H0.715V6.795H0.75L0.715 6.515ZM0.89 7.46H0.75V7.6L0.715 7.635V7.74H0.89V7.46ZM0.89 8.545H0.75V8.58H0.715V8.86H0.89V8.545ZM9.08027 5.71H9.04527C9.06861 5.71 9.09194 5.72167 9.11527 5.745L9.08027 5.71ZM8.90527 5.745C8.90527 5.79167 8.82361 5.97833 8.66027 6.305H8.52027V6.165H8.38027C8.42694 6.11833 8.46194 6.03667 8.48527 5.92L8.52027 5.71H8.80027V5.745H8.90527ZM11.3553 23.21C11.0753 23.1633 10.5969 23.14 9.92027 23.14L9.50027 23.175H9.11527C8.83527 23.1983 8.63694 23.21 8.52027 23.21V22.93H8.38027C8.42694 22.72 8.46194 22.4517 8.48527 22.125L8.52027 21.32H8.62527V20.515C8.50861 20.1883 8.46194 19.6867 8.48527 19.01V18.205C8.50861 17.855 8.52027 17.5983 8.52027 17.435V15.93H8.62527V15.79H8.52027V15.44H8.62527C8.60194 15.3467 8.56694 15.2533 8.52027 15.16H8.62527C8.62527 14.9733 8.59027 14.845 8.52027 14.775V14.355H8.62527C8.60194 14.3083 8.57861 14.25 8.55527 14.18C8.53194 14.0633 8.52027 13.97 8.52027 13.9H8.62527L8.55527 13.025L8.52027 12.185C8.56694 12.1617 8.61361 12.115 8.66027 12.045L8.76527 12.01H8.62527C8.62527 11.9167 8.63694 11.8233 8.66027 11.73V11.59H8.62527V11.415H8.52027C8.49694 11.3217 8.50861 11.2633 8.55527 11.24L8.59027 11.205L8.62527 11.17C8.62527 11.1467 8.61361 11.135 8.59027 11.135H8.55527L8.52027 11.1C8.52027 11.03 8.53194 11.0067 8.55527 11.03H8.62527L8.55527 10.75L8.52027 10.47C8.59027 10.4467 8.63694 10.3883 8.66027 10.295L8.80027 10.33L8.90527 10.4C8.97527 10.4467 9.03361 10.47 9.08027 10.47C9.17361 10.3767 9.25527 10.3183 9.32527 10.295V10.085C9.23194 10.0617 9.13861 10.05 9.04527 10.05L8.83527 10.015C8.67194 10.015 8.52027 10.0033 8.38027 9.98C8.42694 9.79333 8.49694 9.63 8.59027 9.49L8.69527 9.35L8.80027 9.14H8.62527L8.59027 8.965L8.55527 8.79C8.53194 8.67333 8.52027 8.56833 8.52027 8.475H8.80027V8.335H8.90527V8.755C8.95194 8.755 8.99861 8.74333 9.04527 8.72H9.18527C9.18527 8.62667 9.17361 8.545 9.15027 8.475L9.11527 8.3C9.06861 8.18333 9.04527 8.055 9.04527 7.915H8.62527L8.55527 7.39L8.52027 6.865H8.66027L8.62527 6.76V6.585C8.92861 6.585 9.11527 6.67833 9.18527 6.865H9.46527V6.34L9.36027 6.305L9.25527 6.27C9.16194 6.22333 9.13861 6.13 9.18527 5.99C9.27861 5.99 9.37194 5.955 9.46527 5.885V5.745C9.41861 5.72167 9.40694 5.65167 9.43027 5.535V5.36L9.46527 5.15H9.32527L9.22027 5.115L9.04527 5.08C9.06861 4.98667 9.06861 4.94 9.04527 4.94C9.04527 4.91667 9.05694 4.89333 9.08027 4.87V4.765C9.29027 4.88167 9.41861 4.95167 9.46527 4.975V4.275C9.23194 4.22833 9.09194 4.18167 9.04527 4.135C8.97527 4.25167 8.92861 4.38 8.90527 4.52L8.80027 4.87C8.87027 4.89333 8.90527 4.96333 8.90527 5.08H8.80027V5.395C8.68361 5.34833 8.62527 5.31333 8.62527 5.29C8.53194 5.19667 8.49694 5.01 8.52027 4.73L8.55527 4.38C8.55527 4.26333 8.54361 4.15833 8.52027 4.065H8.38027C8.42694 3.90167 8.46194 3.69167 8.48527 3.435V3.085L8.52027 2.735H8.62527V2.7H8.52027V2H8.38027V1.895H8.52027V1.37H8.38027V1.265H8.52027V0.67C8.66027 0.646665 8.82361 0.623331 9.01027 0.599998L9.46527 0.564999V0.424999C9.65194 0.471666 9.85027 0.506666 10.0603 0.529999H10.3403L10.6553 0.564999V0.424999H10.9353V0.564999C11.0286 0.681665 11.0753 0.903332 11.0753 1.23V2.035L11.1453 3.085L11.2153 4.135H11.0753V5.395H11.2153L11.1803 5.85C11.1569 6.01333 11.1219 6.165 11.0753 6.305C11.1453 6.53833 11.1919 6.85333 11.2153 7.25V12.185C11.2153 16.2683 11.2619 19.9433 11.3553 23.21ZM9.32527 2.035H9.08027C9.12694 2.105 9.20861 2.15167 9.32527 2.175V2.035ZM9.18527 2.875C9.18527 2.805 9.17361 2.74667 9.15027 2.7L9.11527 2.56C9.06861 2.49 9.04527 2.39667 9.04527 2.28H8.80027C8.80027 2.46667 8.75361 2.61833 8.66027 2.735C8.70694 2.78167 8.74194 2.805 8.76527 2.805C8.78861 2.805 8.80027 2.82833 8.80027 2.875H9.18527ZM9.81527 5.71C9.79194 5.61667 9.78027 5.55833 9.78027 5.535L9.74527 5.465V5.71H9.81527ZM9.46527 7.495C9.46527 7.23833 9.43027 7.09833 9.36027 7.075H9.29027L9.18527 7.04C9.09194 7.04 8.99861 7.01667 8.90527 6.97C8.90527 6.94667 8.82361 6.91167 8.66027 6.865C8.70694 6.95833 8.74194 7.06333 8.76527 7.18L8.80027 7.495L8.90527 7.565H9.32527V7.775H9.46527V7.495ZM9.08027 9.49V9.385C9.08027 9.36167 9.06861 9.35 9.04527 9.35V9.49H9.08027ZM9.08027 11.485H9.04527C8.92861 11.6717 8.84694 11.8467 8.80027 12.01H9.08027V11.485ZM9.46527 12.605C9.41861 12.4183 9.37194 12.2783 9.32527 12.185C9.02194 12.255 8.84694 12.395 8.80027 12.605H9.04527C9.06861 12.675 9.06861 12.71 9.04527 12.71C9.04527 12.7333 9.05694 12.745 9.08027 12.745V12.885H9.18527C9.23194 12.815 9.32527 12.7217 9.46527 12.605ZM9.18527 14.775C9.18527 14.7517 9.15027 14.6933 9.08027 14.6V14.775H9.18527ZM20.8589 22.195C20.8589 22.7083 20.8355 23.0467 20.7889 23.21H19.7039L18.6889 23.175C17.8955 23.175 17.3589 23.1983 17.0789 23.245C16.9155 23.315 16.6589 23.3383 16.3089 23.315C15.9589 23.315 15.7255 23.28 15.6089 23.21H15.1189C14.9322 23.1867 14.7805 23.1517 14.6639 23.105C14.6639 22.8017 14.6755 22.335 14.6989 21.705L14.7339 20.27H14.8039C14.8972 20.06 14.9205 19.815 14.8739 19.535L14.8039 19.15L14.7339 18.835C14.7805 18.3683 14.8039 17.96 14.8039 17.61H14.7339C14.7339 17.54 14.7222 17.435 14.6989 17.295C14.6755 17.155 14.6639 17.0383 14.6639 16.945C14.7339 16.945 14.7805 16.91 14.8039 16.84C14.8739 16.7233 14.8505 16.63 14.7339 16.56C14.7339 16.4433 14.7572 16.35 14.8039 16.28C14.8739 16.1167 14.8505 16.035 14.7339 16.035V14.775H14.6639C14.6639 14.6583 14.6755 14.4717 14.6989 14.215C14.7222 13.9817 14.7339 13.795 14.7339 13.655C14.6639 13.6083 14.6405 13.5033 14.6639 13.34H14.7339V13.235H14.6639C14.5705 13.165 14.5239 13.0133 14.5239 12.78H14.7339L14.6989 11.87C14.6755 11.4733 14.6639 11.1583 14.6639 10.925H14.7339C14.7805 10.505 14.8039 10.19 14.8039 9.98H14.7339V9.595H14.6639C14.6639 9.455 14.6755 9.26833 14.6989 9.035C14.7222 8.80167 14.7339 8.62667 14.7339 8.51H14.6639V8.125H14.5239C14.5005 7.985 14.5472 7.89167 14.6639 7.845V5.325H14.5239C14.5705 5.27833 14.6172 5.22 14.6639 5.15L14.6289 4.835C14.6055 4.71833 14.5705 4.61333 14.5239 4.52H14.6639V4.415H14.5239V4.31H14.6639V3.715H14.5239V2.21H14.6639V1.825H14.5239V0.495H16.2389V0.459998H16.6589V0.495H16.9389C17.0555 0.844999 17.1372 1.17167 17.1839 1.475C17.2305 1.895 17.2072 2.28 17.1139 2.63V2.7L17.0789 2.84C17.0555 2.93333 17.0555 3.03833 17.0789 3.155H17.1139V3.925H17.2189C17.2189 3.94833 17.2072 3.98333 17.1839 4.03L17.1489 4.17C17.1022 4.31 17.0905 4.42667 17.1139 4.52H17.2189V5.045C17.2189 5.115 17.1839 5.20833 17.1139 5.325H17.2189V8.37H17.3589L17.3239 8.86C17.3005 9.04667 17.2655 9.21 17.2189 9.35C17.2655 9.46667 17.3122 9.67667 17.3589 9.98H17.2189C17.2189 10.0967 17.2655 10.155 17.3589 10.155V12.64H17.4989C17.4522 12.85 17.4172 13.0833 17.3939 13.34L17.3589 14.075V14.145L17.3939 14.215L17.4289 14.46C17.4755 14.67 17.4989 14.8333 17.4989 14.95H17.3589V16.035H17.4989C17.4522 16.2683 17.4172 16.5367 17.3939 16.84L17.3589 17.645C17.4522 18.0183 17.5105 18.5667 17.5339 19.29L17.4989 20.2V21.075L17.7089 21.11C17.8022 21.1333 17.8722 21.1683 17.9189 21.215L17.9539 21.18L17.9889 21.145C18.0355 21.075 18.0939 21.0517 18.1639 21.075L18.1989 21.145C18.2222 21.1917 18.2455 21.2267 18.2689 21.25H18.6889V21.215H19.0039C19.1672 21.2383 19.2955 21.25 19.3889 21.25V21.495L19.1789 21.53C19.1322 21.5533 19.0972 21.5883 19.0739 21.635C19.0739 21.6817 19.0855 21.7633 19.1089 21.88V22.195H19.3889C19.3889 22.0083 19.4239 21.8683 19.4939 21.775H19.6689C19.6689 21.705 19.6222 21.6117 19.5289 21.495C19.6455 21.4017 19.7272 21.32 19.7739 21.25H20.6489C20.6489 21.32 20.6722 21.39 20.7189 21.46L20.7889 21.635H20.8589L20.8239 21.74L20.7889 21.88C20.7422 21.9967 20.7422 22.1017 20.7889 22.195H20.8589ZM15.4689 1.44H15.0489C15.0255 1.34667 14.9905 1.28833 14.9439 1.265V1.44H15.0489V1.545H15.1189V1.65H15.4689V1.44ZM20.2639 21.635H20.1939V21.495C19.9372 21.5183 19.7972 21.6583 19.7739 21.915H19.9489C19.9255 22.0317 19.8672 22.125 19.7739 22.195V22.265C19.8905 22.265 20.0539 22.195 20.2639 22.055V21.635ZM18.7589 21.915V21.775H18.6889V21.985C18.7589 21.9617 18.8055 21.9383 18.8289 21.915H18.7589ZM33.9784 23C33.7451 22.9533 33.4534 22.9417 33.1034 22.965L32.6484 23H32.1234C31.7267 22.8833 31.4117 22.8833 31.1784 23V22.86H31.0734C31.0734 22.8133 31.0851 22.7317 31.1084 22.615L31.1784 22.335H31.0734C31.0501 22.265 31.0734 22.055 31.1434 21.705L31.2134 21.32C31.2134 21.18 31.2017 21.0633 31.1784 20.97C31.0617 20.5733 31.0151 20.0367 31.0384 19.36V18.45L31.0734 17.575L31.0384 17.225L31.0034 16.875C30.9801 16.5717 30.9567 16.35 30.9334 16.21L31.0034 16.035L31.0734 15.86C31.0967 15.6733 31.0967 15.5217 31.0734 15.405C30.9567 15.405 30.9101 15.335 30.9334 15.195C31.0267 15.195 31.0734 15.1367 31.0734 15.02H30.9334V12.185L30.8634 12.115L30.7934 12.08C30.7934 12.0567 30.8051 12.045 30.8284 12.045V11.695H30.9334V11.24H30.8284L30.8634 11.17L30.8984 11.065C30.9451 10.9717 30.9567 10.8783 30.9334 10.785L30.8984 10.75C30.8517 10.7267 30.8284 10.6917 30.8284 10.645H30.9334C31.0501 10.3183 31.0617 9.93333 30.9684 9.49C30.9217 9.74667 30.8517 9.98 30.7584 10.19L30.7934 11.03L30.7234 11.205C30.7001 11.2983 30.7001 11.4033 30.7234 11.52V11.765C30.7234 11.835 30.7001 11.87 30.6534 11.87V12.57C30.6301 12.57 30.6184 12.5817 30.6184 12.605C30.5951 12.6283 30.5717 12.64 30.5484 12.64V12.815L30.5134 13.025C30.4667 13.095 30.4317 13.13 30.4084 13.13L30.4434 14.075H30.4084L30.3384 14.32L30.2334 14.565H30.0934C30.0934 14.5883 30.1167 14.6233 30.1634 14.67L30.2334 14.88C30.3034 15.0433 30.3151 15.1833 30.2684 15.3H30.1284C30.1284 15.6033 30.1167 15.8717 30.0934 16.105C30.1167 16.175 30.0934 16.21 30.0234 16.21L30.0584 16.91H30.0234V17.225L29.9884 17.54C30.0117 17.54 29.9767 17.575 29.8834 17.645L29.9184 18.17L29.8834 18.205C29.8601 18.2517 29.8367 18.275 29.8134 18.275V18.38L29.6734 18.485C29.7901 18.8117 29.8484 19.1383 29.8484 19.465H29.7084L29.7434 20.06L29.6734 20.2C29.6734 20.3167 29.6967 20.5617 29.7434 20.935H29.6384V21.6L29.6034 21.67C29.5801 21.7167 29.5451 21.74 29.4984 21.74C29.4751 21.8567 29.4984 22.02 29.5684 22.23L29.6384 22.475V22.545L29.6734 22.615L29.6384 22.825V23C29.6151 23.14 29.5917 23.2567 29.5684 23.35C29.2884 23.3267 28.9501 23.3267 28.5534 23.35H27.3284V22.545H27.2934L27.3284 22.3V21.635L27.2934 21.075C27.2701 21.075 27.2584 21.0633 27.2584 21.04L27.2234 21.005V20.095H27.0834V19.5C27.0601 19.2667 27.0484 19.08 27.0484 18.94C27.0484 18.8933 27.0251 18.87 26.9784 18.87V18.03C26.9551 17.6567 26.9434 17.3767 26.9434 17.19H26.9084V16.7C26.8617 16.7 26.8267 16.6767 26.8034 16.63L26.7684 16.56C26.7451 16.5133 26.7917 16.4667 26.9084 16.42C26.9084 16.3033 26.8617 16.2217 26.7684 16.175L26.8034 16.105V16C26.8267 15.9067 26.8617 15.825 26.9084 15.755C26.8617 15.755 26.8267 15.72 26.8034 15.65L26.7684 15.58V14.705L26.7334 14.6C26.7101 14.53 26.6751 14.495 26.6284 14.495C26.6284 13.8417 26.5934 13.3517 26.5234 13.025H26.4884V12.43H26.3484L26.4534 12.08L26.5234 11.73L26.4534 11.695H26.3484V11.205H26.2434C26.2201 11.135 26.2317 11.0767 26.2784 11.03L26.3134 10.96L26.3484 10.855H26.2434V10.75H26.1384V10.61L26.2084 10.47C26.2551 10.3533 26.2551 10.26 26.2084 10.19H26.1034C26.1034 9.81667 26.0917 9.54833 26.0684 9.385L26.0334 9.315V8.895L25.9984 8.545H25.8934C25.9401 8.335 25.9284 8.17167 25.8584 8.055C25.8117 8.00833 25.7767 7.97333 25.7534 7.95H25.6834L25.2284 7.845L25.0884 8.09H25.2634V8.16C25.3334 8.18333 25.4034 8.16 25.4734 8.09C25.5201 8.09 25.5667 8.10167 25.6134 8.125H25.6484L25.7184 8.16C25.7184 8.27667 25.7067 8.38167 25.6834 8.475H25.3684V8.3C25.2517 8.32333 25.1817 8.34667 25.1584 8.37H25.1234L25.0884 8.405C25.0884 8.42833 25.0184 8.45167 24.8784 8.475C24.8784 8.42833 24.8434 8.39333 24.7734 8.37C24.7034 8.34667 24.6684 8.32333 24.6684 8.3H24.5984V8.02H24.3884V8.09H24.3184C24.3184 8.23 24.3417 8.335 24.3884 8.405H24.4584V8.685H24.5284V8.825L24.6684 8.965L24.8434 9.105C24.8201 9.19833 24.8551 9.22167 24.9484 9.175H25.0184C25.0417 9.175 25.0534 9.19833 25.0534 9.245C25.1234 9.26833 25.1467 9.35 25.1234 9.49L25.0884 9.63C25.0651 9.67667 25.0651 9.71167 25.0884 9.735C25.1351 9.68833 25.1934 9.61833 25.2634 9.525L25.3684 9.35H25.4734V9.175C25.4967 9.175 25.5084 9.16333 25.5084 9.14C25.4851 9.14 25.4851 9.105 25.5084 9.035L25.4034 9L25.2984 8.965V8.755L25.3334 8.72C25.3567 8.72 25.3684 8.70833 25.3684 8.685C25.5084 8.685 25.5901 8.74333 25.6134 8.86L25.6484 9C25.6717 9.04667 25.7067 9.08167 25.7534 9.105C25.7067 9.40833 25.6834 10.7383 25.6834 13.095C25.7067 15.475 25.7534 16.7933 25.8234 17.05V18.205H25.6834C25.6834 18.3683 25.7301 18.4733 25.8234 18.52V19.08H25.6834C25.6601 19.22 25.6717 19.36 25.7184 19.5L25.7884 19.675L25.8234 19.85C25.8234 19.9433 25.8117 20.165 25.7884 20.515V20.97L25.7534 21.425C25.7301 22.1717 25.7884 22.6033 25.9284 22.72C25.9284 22.9533 25.8934 23.1167 25.8234 23.21C25.5901 23.2567 25.3217 23.2917 25.0184 23.315L24.2134 23.35V23.21H23.4784V23.105H23.4084V23.21C23.3851 23.2567 23.3384 23.2917 23.2684 23.315L23.0934 23.35L23.0584 23.245L23.0234 23.105C22.9767 22.9883 22.9884 22.86 23.0584 22.72H23.0934C23.1167 22.6033 23.1284 22.3467 23.1284 21.95C23.1284 21.53 23.1167 21.1917 23.0934 20.935C23.0467 19.885 23.0467 18.6833 23.0934 17.33L23.1984 14.88C23.1984 14.7867 23.2334 14.705 23.3034 14.635L23.4084 14.53C23.4317 14.4833 23.4551 14.425 23.4784 14.355L23.1984 14.075C23.1284 13.8183 23.1051 13.48 23.1284 13.06C23.1284 12.71 23.1517 12.4067 23.1984 12.15C23.1751 12.0567 23.1517 11.9517 23.1284 11.835L23.0934 11.59H23.1984L23.1634 10.855L23.0934 10.68L23.4784 10.54V10.4H23.6534L23.5134 10.225L23.3034 10.085L23.1984 9.84V8.72C23.1984 8.67333 23.2101 8.55667 23.2334 8.37C23.2567 8.16 23.2684 7.95 23.2684 7.74C23.2917 7.11 23.2684 6.69 23.1984 6.48H23.1634C23.1867 6.48 23.1984 6.45667 23.1984 6.41L23.2684 5.78L23.5834 5.71C23.6534 5.71 23.7351 5.745 23.8284 5.815C23.9451 5.885 24.0034 5.955 24.0034 6.025L24.0384 5.78C24.1317 5.52333 24.1901 5.395 24.2134 5.395C24.1667 5.30167 24.1317 5.255 24.1084 5.255H24.0384C23.9684 5.255 23.8867 5.23167 23.7934 5.185V5.045H23.6534C23.6534 5.255 23.6301 5.38333 23.5834 5.43C23.5601 5.45333 23.5251 5.45333 23.4784 5.43L23.3734 5.395C23.3501 5.395 23.3151 5.40667 23.2684 5.43V5.29C23.2451 5.22 23.2451 5.10333 23.2684 4.94C23.2917 4.8 23.3384 4.67167 23.4084 4.555H23.6884C23.8517 4.71833 23.9334 4.81167 23.9334 4.835L24.0734 4.625C24.1201 4.57833 24.1084 4.50833 24.0384 4.415L23.9684 4.345C23.9451 4.29833 23.9334 4.26333 23.9334 4.24L23.4434 4.45V4.38C23.3501 4.28667 23.2801 4.05333 23.2334 3.68C23.2101 3.42333 23.1984 3.10833 23.1984 2.735V0.67H23.8284C23.9917 0.67 24.1667 0.658332 24.3534 0.634998H25.0534V0.529999L25.1234 0.495L25.1584 0.459998H25.9634V0.389999H26.2084V0.249999H26.7334V0.389999H26.8034V0.249999H27.2234C27.3401 0.483332 27.4101 0.716665 27.4334 0.949998H27.3634V1.02C27.3634 1.09 27.3751 1.125 27.3984 1.125C27.4217 1.10167 27.4334 1.10167 27.4334 1.125C27.4334 1.265 27.4451 1.76667 27.4684 2.63C27.4917 3.49333 27.5034 3.98333 27.5034 4.1C27.5267 4.1 27.5501 4.12333 27.5734 4.17C27.5734 4.24 27.5851 4.275 27.6084 4.275C27.6084 4.43833 27.6317 4.66 27.6784 4.94C27.7251 5.24333 27.7484 5.45333 27.7484 5.57H27.8184L27.8534 5.605C27.8534 5.815 27.8651 5.96667 27.8884 6.06H27.9234V7.11C27.9701 7.11 28.0051 7.15667 28.0284 7.25C28.0284 7.34333 28.0401 7.68167 28.0634 8.265C28.0867 8.84833 28.0984 9.21 28.0984 9.35H28.2384L28.2034 9.525C28.1801 9.61833 28.1567 9.7 28.1334 9.77H28.2734C28.2734 10.4233 28.3084 11.065 28.3784 11.695H28.5534C28.5534 11.4383 28.5884 11.1583 28.6584 10.855C28.6817 10.7383 28.7051 10.6217 28.7284 10.505C28.7517 10.4117 28.7751 10.3417 28.7984 10.295V9.91L28.8334 9.49H28.8684V8.895C28.8917 8.895 28.9384 8.825 29.0084 8.685C29.0084 8.615 29.0201 8.32333 29.0434 7.81V6.97L29.0784 6.935H29.1134C29.1367 6.74833 29.1484 6.515 29.1484 6.235L29.1834 6.2L29.2184 6.165C29.2184 5.955 29.2417 5.66333 29.2884 5.29L29.4984 3.33V2.84L29.6034 2.735C29.6034 2.40833 29.6151 2.15167 29.6384 1.965H29.7084C29.7551 1.825 29.7901 1.63833 29.8134 1.405L29.8484 0.844999H29.9184L29.8834 0.704999C29.8601 0.634999 29.8484 0.576665 29.8484 0.529999L29.9534 0.495C30.0234 0.471665 30.0817 0.459998 30.1284 0.459998C30.2451 0.343332 30.4784 0.308332 30.8284 0.354999L31.2484 0.424999C31.3884 0.448332 31.5051 0.459998 31.5984 0.459998L31.6334 0.495V0.564999C32.1934 0.448332 32.8467 0.471665 33.5934 0.634998V4.38H33.6634C33.6634 4.42667 33.6517 4.45 33.6284 4.45C33.6051 4.42667 33.5934 4.45 33.5934 4.52V5.22H33.6634V5.29H33.5934C33.5467 5.54667 33.5351 5.885 33.5584 6.305L33.5934 6.795C33.6167 6.935 33.6401 7.075 33.6634 7.215V8.16L33.6284 8.37L33.5934 8.51C33.5701 8.62667 33.5701 8.685 33.5934 8.685H33.6634C33.6634 8.80167 33.6517 8.97667 33.6284 9.21C33.6051 9.42 33.5934 9.56 33.5934 9.63C33.5934 9.79333 33.6051 10.0617 33.6284 10.435C33.6517 10.785 33.6634 11.0533 33.6634 11.24H33.7684C33.7917 11.38 33.7567 11.4733 33.6634 11.52V12.15H33.7684V14.145H33.6634V14.18H33.7684C33.7684 14.32 33.7334 14.4017 33.6634 14.425C33.6634 14.5883 33.6984 14.6467 33.7684 14.6V15.265L33.8384 15.3C33.8617 15.3233 33.8734 15.3583 33.8734 15.405H33.7684V17.89H33.8734V18.555C33.7334 18.555 33.6984 18.6133 33.7684 18.73H33.8734V19.535H33.9784V19.64L33.9434 19.675L33.8734 19.71C33.8034 19.7567 33.7684 19.8033 33.7684 19.85H33.8734C33.8734 20.27 33.8851 20.795 33.9084 21.425L33.9434 22.195L33.9784 23ZM30.7934 2.735H30.7234L30.7934 2.875L30.8284 2.98L30.7934 2.735ZM30.6184 3.225L30.3384 3.155V3.435C30.5017 3.435 30.6767 3.45833 30.8634 3.505V3.47C30.8867 3.42333 30.8984 3.37667 30.8984 3.33L30.6184 3.225ZM30.8284 6.41C30.5951 6.45667 30.4784 6.70167 30.4784 7.145H30.1984C30.1984 7.19167 30.2101 7.22667 30.2334 7.25V7.32L30.4434 7.285H30.6184L30.5834 7.075H30.6534V6.935C30.6534 6.865 30.6417 6.80667 30.6184 6.76C30.7117 6.71333 30.7817 6.66667 30.8284 6.62V6.41ZM25.2634 16.945H25.1234V16.875L24.9484 16.91L24.7384 16.945V16.875C24.7151 16.8517 24.6217 16.8167 24.4584 16.77V16.875H24.3184V17.365H23.9684C23.9684 17.3883 23.9567 17.435 23.9334 17.505C23.9101 17.5517 23.8984 17.5983 23.8984 17.645L23.9334 17.68L23.9684 17.785L24.0384 17.75H24.1084C24.1784 17.7267 24.2367 17.6917 24.2834 17.645V17.89H24.3884L24.5984 17.925L24.7384 17.505C24.7851 17.3183 24.8317 17.1667 24.8784 17.05H25.2634V16.945ZM24.3884 18.135C24.3417 18.1583 24.3067 18.1817 24.2834 18.205V17.925H24.1784V17.96H24.0384C24.0384 18.1467 24.0267 18.2867 24.0034 18.38H24.1434C24.1434 18.4733 24.1551 18.5783 24.1784 18.695L24.2134 18.835L24.2484 19.01H24.2834C24.2834 18.8233 24.3884 18.52 24.5984 18.1L24.3884 18.135ZM24.4934 19.43L24.4234 19.36C24.3534 19.29 24.3067 19.1967 24.2834 19.08C24.1434 19.1267 24.0501 19.22 24.0034 19.36L24.1784 19.395L24.2834 19.465C24.3534 19.4883 24.4467 19.5117 24.5634 19.535L24.4934 19.43ZM24.3184 20.865L24.2484 20.655H24.1084V20.97H24.2134L24.2484 21.005C24.2717 21.005 24.3184 21.0283 24.3884 21.075L24.3184 20.865ZM23.8984 21.25V21.495L23.9334 21.425C23.9334 21.4017 23.9451 21.3433 23.9684 21.25H23.8984ZM24.7734 22.37H24.4934C24.4934 22.1367 24.5284 21.9733 24.5984 21.88H24.3534C24.3067 21.88 24.2834 21.8917 24.2834 21.915C24.2834 21.8917 24.2484 21.9033 24.1784 21.95C24.1551 22.1833 24.1667 22.4633 24.2134 22.79L24.3534 22.685L24.4934 22.58C24.6101 22.51 24.7034 22.5217 24.7734 22.615V22.37ZM24.0734 22.51H23.9334V21.95H23.7934L23.6534 22.51H23.7934V22.615H24.0734V22.51ZM50.1982 17.4C50.1048 17.4933 50.0232 17.54 49.9532 17.54V18.065C49.9298 18.135 49.9065 18.2283 49.8832 18.345L49.8482 18.52C49.8015 18.6367 49.6965 18.7417 49.5332 18.835V18.975L49.7432 18.905L49.9182 18.835C50.0582 19.7683 49.9065 20.6433 49.4632 21.46C49.0432 22.2067 48.4832 22.7433 47.7832 23.07C47.3632 23.1167 47.0248 23.14 46.7682 23.14V23.245L46.2082 23.21L45.6482 23.14V23.245C45.4848 23.2917 45.2748 23.3267 45.0182 23.35L44.3532 23.385L44.0382 23.35L43.7232 23.28C43.4898 23.2567 43.3265 23.2917 43.2332 23.385H42.7432V23.245C42.6732 23.175 42.6382 23.0233 42.6382 22.79L42.6032 22.51L42.5682 22.265H42.4632L42.4982 21.11C42.5215 20.6667 42.5448 20.2817 42.5682 19.955H42.6732L42.6032 19.535V19.29L42.5682 19.045L42.6032 18.345L42.6732 17.645V16.945H42.5682V16.84H42.6732V16.315H42.5682L42.6032 16.21V16.07C42.6265 15.9533 42.6498 15.86 42.6732 15.79H42.5682V12.745H42.4632L42.4982 12.15C42.5215 11.9167 42.5448 11.7417 42.5682 11.625C42.5682 11.5317 42.5332 11.45 42.4632 11.38V10.995H42.5682C42.5915 10.8783 42.5798 10.75 42.5332 10.61L42.4982 10.435L42.4632 10.295C42.4165 10.1783 42.4282 9.98 42.4982 9.7L42.5682 9.385V9.21H42.4632V5.745H42.3232L42.3582 5.43L42.3932 5.15C42.4398 4.91667 42.4632 4.73 42.4632 4.59C42.4165 4.49667 42.3815 4.45 42.3582 4.45V4.205L42.3232 3.995H42.2882L42.2182 3.05L42.1832 2.105H42.0432C42.0665 1.895 42.2065 1.72 42.4632 1.58V1.3H42.3232L42.3932 0.949998C42.4398 0.809998 42.4632 0.693332 42.4632 0.599998L42.7782 0.529999C42.8948 0.506666 42.9998 0.495 43.0932 0.495V0.599998L43.2682 0.564999L43.4432 0.529999C43.6065 0.506666 43.7582 0.495 43.8982 0.495V0.424999L44.3532 0.459998H44.5982L44.8782 0.495V0.424999H46.3482V0.495C46.4648 0.518333 46.5582 0.518333 46.6282 0.495L46.6982 0.459998L46.7682 0.424999V0.495H47.5032L47.5732 0.634998L47.6432 0.774998L47.9932 0.844999L48.3432 0.879999L48.3782 0.949998L48.4482 0.985C48.4715 1.00833 48.4832 1.03167 48.4832 1.055C48.5532 1.10167 48.6232 1.13667 48.6932 1.16H48.8682L49.0432 1.37C49.0898 1.46333 49.1248 1.53333 49.1482 1.58L49.2882 1.65L49.3932 1.72V1.86L49.5332 2C49.7432 2.30333 49.8715 2.79333 49.9182 3.47V5.22C49.9182 5.40667 49.9298 5.71 49.9532 6.13L50.0232 7.075C50.0698 7.86833 50.0698 8.53333 50.0232 9.07C49.9532 10.5633 49.5682 11.5083 48.8682 11.905C49.1482 12.0217 49.3582 12.2317 49.4982 12.535L49.5682 12.64L49.6382 12.78C49.6848 12.85 49.7198 12.9433 49.7432 13.06L49.7782 13.2V13.34C49.8015 13.34 49.8248 13.3633 49.8482 13.41L49.9182 13.515V14.53H49.9532V14.81H50.0932V16.315H49.9532C50.0465 16.525 50.0932 16.7583 50.0932 17.015H49.9532L50.0232 17.155L50.0932 17.26C50.1165 17.33 50.1515 17.3767 50.1982 17.4ZM47.1882 8.335C47.2115 8.10167 47.2115 7.78667 47.1882 7.39V5.36H47.0832L47.1532 4.94L47.1882 4.52H47.0832C47.0598 4.38 47.0482 4.24 47.0482 4.1L47.0832 3.89L47.1182 3.715C47.1648 3.435 47.1065 3.21333 46.9432 3.05C46.8732 2.79333 46.6748 2.64167 46.3482 2.595C46.2082 2.57167 46.0332 2.57167 45.8232 2.595H45.2282C45.1115 2.945 45.0648 3.61 45.0882 4.59L45.1232 5.15L45.1582 5.71C45.1815 6.08333 45.1815 6.35167 45.1582 6.515V6.9L45.1232 7.39C45.1232 7.78667 45.1582 8.03167 45.2282 8.125C45.2282 8.28833 45.2165 8.53333 45.1932 8.86V9.665C45.1698 10.3183 45.2282 10.7967 45.3682 11.1C46.1148 11.1 46.6632 10.995 47.0132 10.785C47.0598 10.715 47.0948 10.6217 47.1182 10.505V10.365L47.1532 10.26L47.1882 9.91V8.335ZM47.2582 16.21V14.95H47.1882V14.075H47.0832V13.795H46.9432V13.69C46.9198 13.6433 46.8965 13.585 46.8732 13.515C46.1732 13.3983 45.6715 13.3633 45.3682 13.41C45.3682 13.62 45.3565 13.9467 45.3332 14.39V15.44C45.3332 16.28 45.3798 16.9217 45.4732 17.365L45.4382 17.715L45.3682 18.065H45.4732L45.4382 18.31V18.59C45.4148 18.8233 45.3915 18.9983 45.3682 19.115C45.3915 19.395 45.4148 19.745 45.4382 20.165V20.655L45.4732 21.11H45.7532L46.1032 21.075C46.3365 21.075 46.4998 21.04 46.5932 20.97C46.7798 20.9 46.8732 20.83 46.8732 20.76L46.9082 20.655C46.9082 20.6083 46.9198 20.55 46.9432 20.48H47.0832V20.2H47.1882V19.535H47.2582V18.205C47.3282 18.0417 47.3748 17.7383 47.3982 17.295C47.4448 16.805 47.4332 16.4433 47.3632 16.21H47.2582ZM48.4832 20.655C48.4832 20.8883 48.4365 21.145 48.3432 21.425C48.4132 21.3783 48.4832 21.2733 48.5532 21.11L48.6232 20.865L48.6932 20.655H48.4832ZM53.1062 2.315C53.0362 2.33833 52.9778 2.36167 52.9312 2.385L52.8262 2.49C52.7328 2.53667 52.6278 2.56 52.5112 2.56C52.5112 2.44333 52.4995 2.315 52.4762 2.175V1.825C52.4528 1.56833 52.4645 1.335 52.5112 1.125L52.7912 1.09L53.1062 1.02V1.265H52.6862V1.335L52.6512 1.37C52.6278 1.37 52.6162 1.38167 52.6162 1.405H52.7912V1.65H53.0012V1.825C52.9078 1.77833 52.8378 1.74333 52.7912 1.72H52.6862V2.14H53.0012V2.035H53.1062V2.315ZM59.5812 0.844999V1.545L59.5462 2.245L59.4412 2.28L59.3012 2.315C59.2778 2.385 59.2662 2.455 59.2662 2.525V2.63C59.2662 2.67667 59.1845 2.75833 59.0212 2.875C59.0678 2.89833 59.1262 2.945 59.1962 3.015V3.295L59.1612 3.54L59.2312 3.575C59.2545 3.59833 59.2778 3.63333 59.3012 3.68V3.715H59.1962V3.89L59.1612 4.065H58.9162L58.9512 4.24C58.9745 4.33333 58.9978 4.415 59.0212 4.485H59.1612C59.1612 4.53167 59.1262 4.56667 59.0562 4.59L58.9862 4.625H58.9162V5.15H58.8112V5.85L58.7062 5.885C58.6828 5.90833 58.6595 5.94333 58.6362 5.99V6.27C58.5662 6.29333 58.4845 6.31667 58.3912 6.34L58.4262 6.55L58.4612 6.76C58.5078 6.92333 58.5312 7.05167 58.5312 7.145H58.3912V7.355L58.3562 7.565H58.2162V8.265H58.1112V8.58H57.9712V9.035H57.9362V9.56L57.8312 9.595C57.7845 9.61833 57.7378 9.65333 57.6912 9.7V10.26H57.5862V10.47H57.5512V11.73H57.4112V12.045H57.2712V12.885H57.2012V13.2H57.1312V14.635C57.0145 14.7283 56.9678 14.8217 56.9912 14.915H57.1312V15.335H56.9912V15.475H57.1312L57.0962 15.965C57.0728 16.175 57.0378 16.35 56.9912 16.49H56.9212C56.9445 16.5833 56.9795 16.7 57.0262 16.84L57.0962 17.015L57.1312 17.19H56.9912V17.47H56.9212C56.8978 17.5633 56.8978 17.645 56.9212 17.715L56.9562 17.785L56.9912 17.89H56.9212V18.17H56.9912L56.9562 18.835L56.9212 19.5C56.9445 19.5933 56.9562 19.6983 56.9562 19.815L56.9912 20.2C57.0145 20.5733 57.0145 20.9 56.9912 21.18C56.9912 21.5067 56.9678 21.95 56.9212 22.51C56.9445 22.51 56.9795 22.5217 57.0262 22.545L57.1312 22.615L57.0612 22.65C57.0612 22.6733 57.0378 22.685 56.9912 22.685C56.8978 22.7783 56.8045 22.7783 56.7112 22.685L56.6412 22.65L56.5362 22.615C56.4895 22.5917 56.4195 22.5917 56.3262 22.615V22.685C56.1162 22.7317 55.8828 22.7433 55.6262 22.72L55.2762 22.685H54.9962C54.8795 22.7083 54.7512 22.7317 54.6112 22.755L54.2262 22.79C54.1562 22.6967 54.1212 22.5333 54.1212 22.3H54.2262V22.125H54.3312V21.075H54.4012V19.36C54.3078 19.36 54.2845 19.3133 54.3312 19.22H54.4012V18.17C54.3078 18.17 54.2845 18.1233 54.3312 18.03H54.4012V17.75H54.5062C54.5528 17.6567 54.5528 17.54 54.5062 17.4L54.4362 17.26L54.4012 17.19C54.5178 17.1433 54.5995 17.1083 54.6462 17.085C54.6695 16.9683 54.6228 16.91 54.5062 16.91V15.755H54.7862V15.58H54.5062V14.915C54.5295 14.915 54.5645 14.9033 54.6112 14.88H54.7162C54.7395 14.81 54.7395 14.7517 54.7162 14.705L54.6112 14.6C54.5178 14.53 54.4828 14.4483 54.5062 14.355H54.6462L54.6812 14.075V13.935L54.7162 13.76H54.9262V13.62C54.7395 13.55 54.6462 13.4917 54.6462 13.445L54.6812 13.41V13.375C54.6812 13.3283 54.6695 13.27 54.6462 13.2L54.5762 13.165L54.5412 13.13C54.4945 13.1067 54.4478 13.0833 54.4012 13.06C54.3778 13.0133 54.3662 12.9783 54.3662 12.955V12.92C54.3662 12.8967 54.3195 12.85 54.2262 12.78C54.2495 12.57 54.3078 12.465 54.4012 12.465L54.3662 12.325C54.3428 12.255 54.3312 12.1967 54.3312 12.15C54.4478 12.08 54.5062 12.0333 54.5062 12.01C54.4362 11.94 54.3078 11.8933 54.1212 11.87L54.1562 11.66L54.1912 11.45C54.1912 11.2633 54.1678 11.0883 54.1212 10.925L54.0862 10.89H54.0512L53.9812 10.785C53.9578 10.7617 53.9345 10.715 53.9112 10.645H54.1212C54.1212 10.505 54.0978 10.3767 54.0512 10.26L53.9812 10.085C53.9578 10.015 53.9345 9.93333 53.9112 9.84C53.8178 9.81667 53.7478 9.78167 53.7012 9.735H53.5612C53.6078 9.68833 53.6662 9.63 53.7362 9.56L53.9112 9.42H53.7012V9.28H53.8062V9.175L53.9462 9.21C54.0162 9.23333 54.0745 9.25667 54.1212 9.28V9.035H53.7012V8.58H53.4912C53.4912 8.39333 53.5262 8.24167 53.5962 8.125C53.6662 7.985 53.7012 7.83333 53.7012 7.67H53.9112V7.46H53.4912C53.4912 7.43667 53.5028 7.39 53.5262 7.32C53.5495 7.25 53.5612 7.19167 53.5612 7.145C53.5145 7.12167 53.4678 7.08667 53.4212 7.04V6.865L53.3162 6.83C53.2695 6.80667 53.2228 6.77167 53.1762 6.725L53.2462 6.48L53.2812 6.27H53.1762L53.2812 6.165L53.2462 5.955L53.1762 5.745H53.3512L53.4912 5.71H53.8062V5.045H53.9112V4.87H53.9812C54.0745 4.75333 54.1212 4.625 54.1212 4.485C53.7478 4.485 53.5145 4.40333 53.4212 4.24H53.1762L53.2112 4.345L53.2812 4.415C53.3045 4.485 53.3045 4.555 53.2812 4.625H53.1762V4.765H53.2812V5.045C53.2345 5.045 53.1762 4.99833 53.1062 4.905H53.0012L53.0712 4.835L53.1062 4.765L53.0712 4.73L53.0012 4.695C52.9545 4.67167 52.9195 4.64833 52.8962 4.625V4.24H53.0012C53.0012 4.17 52.9662 4.12333 52.8962 4.1H52.8262L52.7912 4.065V3.715H52.6862C52.6862 3.645 52.7095 3.55167 52.7562 3.435C52.7795 3.295 52.7912 3.20167 52.7912 3.155H53.1062V2.91C53.0128 2.88667 52.9662 2.88667 52.9662 2.91C52.9428 2.91 52.9195 2.89833 52.8962 2.875L53.0012 2.84L53.1062 2.805C53.1995 2.75833 53.3045 2.735 53.4212 2.735V2.455C53.5845 2.385 53.6778 2.28 53.7012 2.14H53.2812L53.3512 1.895L53.4212 1.65C53.3045 1.62667 53.2228 1.59167 53.1762 1.545L53.1062 1.405C53.1295 1.405 53.2345 1.38167 53.4212 1.335V1.02C53.5845 1.02 53.7478 0.996666 53.9112 0.949998C54.0978 0.879999 54.2378 0.798333 54.3312 0.704999C54.4712 0.704999 54.5528 0.763332 54.5762 0.879999L54.6112 1.02C54.6345 1.09 54.6695 1.13667 54.7162 1.16C54.7162 1.25333 54.7278 1.37 54.7512 1.51L54.7862 1.895C54.8328 2.19833 54.8562 2.37333 54.8562 2.42C54.7395 2.49 54.7162 2.58333 54.7862 2.7C54.8095 2.7 54.8445 2.72333 54.8912 2.77L54.9612 2.84V3.015L54.9262 3.155C54.9262 3.295 54.9145 3.4 54.8912 3.47H54.9962C54.9962 3.63333 55.0195 3.855 55.0662 4.135C55.1128 4.43833 55.1362 4.64833 55.1362 4.765H55.2062L55.2412 5.115V5.5H55.3462V5.885H55.4862C55.5095 6.025 55.5212 6.15333 55.5212 6.27H55.5562C55.6962 7.11 55.8128 8.07833 55.9062 9.175H56.0812C56.1045 8.77833 56.1628 8.31167 56.2562 7.775L56.3962 7.11L56.5012 6.48V6.095L56.4662 5.745C56.4895 5.745 56.5245 5.72167 56.5712 5.675L56.6412 5.64L56.6762 5.605V3.925H56.8162C56.8395 3.715 56.8512 3.4 56.8512 2.98H57.0612V2.595H56.9912C56.9678 1.825 56.9912 1.25333 57.0612 0.879999C57.3878 0.926665 57.8195 0.938332 58.3562 0.914999L58.9862 0.844999H59.5812ZM58.3562 2.245H57.9712V2.35C57.9478 2.39667 57.9362 2.43167 57.9362 2.455C58.0062 2.50167 58.0645 2.50167 58.1112 2.455L58.1812 2.385L58.2162 2.315H58.3562V2.245ZM58.9162 3.715C58.9162 3.69167 58.8578 3.63333 58.7412 3.54C58.7178 3.56333 58.6945 3.58667 58.6712 3.61L58.6362 3.715H58.9162ZM57.3412 4.38C57.2478 4.40333 57.1895 4.415 57.1662 4.415L57.1312 4.45H57.0612V4.975H57.2012C57.2478 4.835 57.2945 4.63667 57.3412 4.38ZM57.1662 5.745C57.2362 5.65167 57.2245 5.605 57.1312 5.605H56.9562V5.5H56.7462C56.8395 5.64 56.8862 5.76833 56.8862 5.885C56.9795 5.83833 57.0495 5.79167 57.0962 5.745H57.1662ZM54.2262 2.56C53.9695 2.58333 53.7945 2.68833 53.7012 2.875H53.5612V2.91H53.9812C54.0978 2.74667 54.1795 2.64167 54.2262 2.595V2.56ZM57.2012 6.48C57.2012 6.52667 57.1895 6.585 57.1662 6.655C57.1428 6.725 57.1312 6.795 57.1312 6.865C57.1545 6.84167 57.1778 6.83 57.2012 6.83V6.795C57.1778 6.74833 57.1778 6.70167 57.2012 6.655C57.3178 6.63167 57.3878 6.57333 57.4112 6.48H57.2012ZM54.4012 5.325L54.3662 5.22L54.3312 5.15V5.29L54.2612 5.325H54.4012ZM55.3812 7.145H55.2062C55.2295 7.19167 55.2878 7.23833 55.3812 7.285V7.145ZM54.3312 7.285H53.9812V7.39H53.9112V7.46H54.3312V7.285ZM54.9262 8.475H54.6462C54.6928 8.545 54.7862 8.59167 54.9262 8.615V8.475ZM54.9962 14.285H54.7862C54.8562 14.3083 54.9262 14.3317 54.9962 14.355V14.285ZM55.9412 15.755H55.5562V15.86H55.9412V15.755ZM55.3812 15.475H55.2062C55.2295 15.4983 55.2878 15.5333 55.3812 15.58V15.475ZM54.9962 16.14H54.9262V16.49H54.9962V16.14ZM56.0812 16.945H55.9762C55.9528 17.085 55.9412 17.26 55.9412 17.47C55.6612 17.47 55.4745 17.4233 55.3812 17.33H55.2762C55.3462 17.4467 55.3812 17.575 55.3812 17.715C55.4512 17.6917 55.5562 17.6683 55.6962 17.645L55.9762 17.61V17.33H56.0812V16.945ZM55.2062 16.665H54.9962L55.0312 16.7V16.735L55.0662 16.77H55.1012L55.2062 16.91V16.665ZM55.9412 18.03H55.6962C55.7195 18.0533 55.7428 18.065 55.7662 18.065C55.7895 18.065 55.8478 18.0767 55.9412 18.1V18.03ZM54.9962 17.085H54.7162V17.33H54.9962V17.085ZM56.0812 18.975C56.0578 18.975 55.9295 18.87 55.6962 18.66C55.6728 18.7067 55.6262 18.7533 55.5562 18.8C55.6495 18.94 55.7312 19.08 55.8012 19.22H56.0812V18.975Z" fill="#CCCCCC" fill-opacity="0.77"/>
</svg>
