<svg width="199" height="36" viewBox="0 0 199 36" fill="none" xmlns="http://www.w3.org/2000/svg">
<path d="M43.77 18.15V18.06H43.68V17.94H43.89V18.15H43.77ZM43.77 24.72C43.77 24.8 43.78 24.88 43.8 24.96L43.86 25.11C43.9 25.23 43.87 25.34 43.77 25.44V25.89H43.71C43.67 25.91 43.62 25.93 43.56 25.95V26.16H43.53V26.31H43.44L43.38 26.4L43.32 26.49H43.2L43.14 26.58L43.08 26.67H42.9V26.76H42.66L42.6 26.82L42.54 26.91H42.39V27L41.85 27.03C41.63 27.05 41.44 27.08 41.28 27.12V27.15C40.96 27.25 40.51 27.22 39.93 27.06C39.73 27 39.52 26.93 39.3 26.85C39.14 26.79 39 26.73 38.88 26.67V26.55L38.7 26.52L38.52 26.49L38.43 26.4L38.37 26.28C38.29 26.18 38.22 26.11 38.16 26.07L38.1 26.01L38.04 25.95C38 25.91 37.96 25.89 37.92 25.89C37.9 25.83 37.88 25.75 37.86 25.65L37.83 25.44C37.71 25.2 37.62 24.85 37.56 24.39C37.48 23.87 37.49 23.44 37.59 23.1H37.65L37.59 22.86V18.54C37.61 18.12 37.61 17.84 37.59 17.7H37.5L37.53 17.49L37.59 17.28H37.65V17.19H37.59V16.23H37.5C37.54 16.15 37.57 16.1 37.59 16.08C37.59 15.96 37.56 15.79 37.5 15.57H37.59C37.57 15.43 37.55 15.28 37.53 15.12L37.5 14.73H37.59V13.47H37.65V13.44H37.59C37.55 13.2 37.53 12.79 37.53 12.21C37.53 11.65 37.55 11.32 37.59 11.22L37.53 10.86V10.65L37.5 10.44C37.52 10.44 37.55 10.43 37.59 10.41L37.65 10.38L37.62 10.23L37.59 10.11H37.65V9.69H37.74C37.8 9.57 37.86 9.39 37.92 9.15H38.01V9.03H38.07L38.13 8.82C38.15 8.76 38.16 8.71 38.16 8.67L38.22 8.64L38.28 8.61L38.34 8.58L38.52 8.34L38.7 8.13H38.88C38.88 8.09 38.9 8.05 38.94 8.01L39 7.95L39.06 7.89C39.2 7.89 39.38 7.87 39.6 7.83L39.87 7.74L40.17 7.68C40.65 7.56 41.04 7.55 41.34 7.65V7.68H42.06V7.8H42.18V7.89H42.39V7.98H42.66V8.04L42.81 8.16L42.96 8.28C43.04 8.38 43.13 8.44 43.23 8.46L43.26 8.55L43.29 8.61L43.32 8.7H43.44L43.47 8.94C43.49 9.04 43.51 9.11 43.53 9.15L43.59 9.18C43.63 9.2 43.66 9.23 43.68 9.27V10.44C43.76 10.72 43.8 11.21 43.8 11.91L43.77 12.33V13.47C43.77 13.57 43.78 13.69 43.8 13.83L43.86 14.22C43.92 14.58 43.93 14.87 43.89 15.09H43.77C43.77 15.13 43.79 15.2 43.83 15.3L43.89 15.45V15.63H43.77V16.47H43.68V16.83H43.56C43.5 16.95 43.46 17.1 43.44 17.28C43.54 17.3 43.62 17.33 43.68 17.37L43.77 17.46L43.89 17.52V17.79C43.75 17.79 43.64 17.76 43.56 17.7V17.88C43.56 18.16 43.58 18.57 43.62 19.11C43.66 19.67 43.68 20.09 43.68 20.37H43.77C43.79 20.45 43.83 20.57 43.89 20.73H43.68C43.76 21.09 43.76 21.43 43.68 21.75H43.56V22.11C43.68 22.11 43.75 22.14 43.77 22.2V22.44H43.89V22.74H43.77C43.77 22.8 43.79 22.92 43.83 23.1L43.89 23.34V23.55C43.87 23.57 43.85 23.58 43.83 23.58H43.8C43.78 23.58 43.77 23.61 43.77 23.67H43.89V24.72H43.77ZM41.58 23.79C41.58 23.55 41.56 23.35 41.52 23.19H41.58V22.62H41.52V22.5L41.55 22.44L41.58 22.38C41.62 22.34 41.62 22.28 41.58 22.2C41.58 22.14 41.56 22.07 41.52 21.99H41.58V20.73H41.52C41.52 20.65 41.51 20.56 41.49 20.46L41.46 20.22C41.56 19.82 41.6 19.2 41.58 18.36L41.55 17.37C41.53 16.95 41.52 16.64 41.52 16.44V15.69L41.55 14.94C41.55 14.36 41.52 13.91 41.46 13.59V13.47H41.52V13.44H41.46V11.88L41.49 11.79C41.51 11.73 41.52 11.68 41.52 11.64C41.5 11.52 41.48 11.35 41.46 11.13L41.43 10.59C41.39 10.11 41.34 9.75 41.28 9.51C41.22 9.49 41.15 9.47 41.07 9.45L40.77 9.39C40.51 9.37 40.33 9.41 40.23 9.51C40.07 9.61 39.98 9.69 39.96 9.75H39.87C39.93 9.85 39.96 9.97 39.96 10.11H39.87V11.07H39.81C39.85 11.15 39.87 11.23 39.87 11.31V14.82H39.81V15.12H39.87C39.93 15.28 39.91 15.36 39.81 15.36C39.81 15.44 39.82 15.51 39.84 15.57C39.86 15.63 39.87 15.68 39.87 15.72C39.87 15.84 39.85 16.08 39.81 16.44H39.87V17.4L39.9 17.67L39.93 18C39.97 18.56 39.95 18.95 39.87 19.17H39.81V19.68C39.91 19.74 39.93 19.82 39.87 19.92H39.81V20.61H39.87C39.93 20.73 39.91 20.82 39.81 20.88V21.63H39.87C39.87 21.71 39.85 21.81 39.81 21.93H39.87V24.03H39.96C39.98 24.09 39.97 24.19 39.93 24.33L39.87 24.48C39.85 24.56 39.85 24.63 39.87 24.69H39.99L40.05 24.72H40.08V25.05H40.11V25.17C40.21 25.21 40.28 25.28 40.32 25.38H41.16V25.29H41.34C41.38 25.29 41.41 25.27 41.43 25.23L41.49 25.17L41.52 25.14V23.79H41.58ZM40.11 11.58V11.49H40.08L40.11 11.4V11.31C40.27 11.39 40.31 11.48 40.23 11.58H40.11ZM51.5524 11.07L51.6124 11.34L51.4924 11.37L51.5824 11.7H51.5224L51.5524 11.94H51.4924L51.5224 12.24H51.4024L51.4324 12.63H51.3424L51.3724 12.87L51.1924 13.32C51.1724 13.44 51.1624 13.54 51.1624 13.62V13.8C51.1624 13.9 51.1324 14.07 51.0724 14.31L50.8624 14.82C50.8424 14.88 50.8124 14.97 50.7724 15.09C50.7524 15.21 50.7224 15.31 50.6824 15.39H50.5624C50.5624 15.45 50.5524 15.5 50.5324 15.54L50.5024 15.63C50.4624 15.71 50.4324 15.81 50.4124 15.93L50.2924 16.05V16.29H50.2024V16.41H50.1724L49.9624 16.86L49.8424 16.95L49.7524 17.31L49.6624 17.37L49.5724 17.7L49.5124 17.67L49.4824 17.82L49.3924 17.88L49.3324 18.15H49.2424L49.1824 18.36H49.1224L49.0924 18.51L48.9424 18.6V18.72L48.8824 18.96L48.8224 19.2H48.7624L48.6424 19.38H48.5524V19.74L48.4324 19.89V20.19L48.4024 20.49H48.2824V20.61L48.1924 20.73V20.94L48.1024 21.06V21.36H48.0424C47.9424 21.72 47.8824 22.02 47.8624 22.26L47.7724 22.29L47.8324 22.5L47.7424 22.56L47.8024 22.74L47.7124 22.8L47.7724 23.07H47.7124C47.6724 23.59 47.6524 24.04 47.6524 24.42H47.5624V25.14C47.6024 25.22 47.6624 25.26 47.7424 25.26H47.8924L47.9224 25.35L47.9524 25.38L47.9824 25.47H48.5224C48.5424 25.43 48.6524 25.38 48.8524 25.32L49.0624 25.29C49.1224 25.27 49.1624 25.26 49.1824 25.26V25.35H49.6924V25.26H50.2624V25.35H50.5024V25.47H50.8324V25.35C51.0124 25.35 51.1824 25.39 51.3424 25.47L51.3724 25.59L51.4024 25.74L51.4324 26.1C51.4724 26.42 51.4424 26.63 51.3424 26.73V27.09C51.2824 27.19 51.0724 27.27 50.7124 27.33C50.3324 27.39 50.0224 27.39 49.7824 27.33L49.7224 27.3H49.6324L49.3924 27.21C49.1924 27.17 49.0324 27.17 48.9124 27.21C48.8724 27.33 48.7924 27.4 48.6724 27.42H47.7124L47.6824 27.33L47.6524 27.21C47.5324 27.19 47.4724 27.23 47.4724 27.33C47.3724 27.35 47.2724 27.36 47.1724 27.36H46.9624C46.8224 27.36 46.7024 27.43 46.6024 27.57H46.4824V27.33L46.2124 27.36H45.9124C45.6724 27.36 45.5124 27.31 45.4324 27.21C45.3324 27.21 45.2324 27.18 45.1324 27.12V24.9H45.2224L45.1924 24.24L45.3124 24.12L45.2824 23.88H45.3724L45.3424 23.28H45.3724L45.3124 23.04L45.4024 22.92L45.3424 22.68L45.4324 22.65L45.4024 22.53L45.4624 22.41L45.4024 22.17H45.4624L45.4924 21.93L45.5224 21.72C45.5624 21.54 45.6024 21.36 45.6424 21.18H45.7024V21.06H45.7624L45.8224 20.7C45.8424 20.54 45.8624 20.42 45.8824 20.34H46.0024V19.92L46.1224 19.8V19.59L46.2424 19.47L46.3624 19.17H46.4524V18.81H46.4824C46.5224 18.75 46.5724 18.59 46.6324 18.33H46.7224L46.7524 18.18L46.8724 18.12L46.9024 17.97H46.9324C46.9924 17.63 47.1024 17.32 47.2624 17.04H47.3224L47.3524 16.8H47.4424L47.6524 16.41L47.7724 16.29L47.8024 16.05L47.8624 16.08C48.0024 15.68 48.0824 15.45 48.1024 15.39L48.3124 15.12V15H48.4024L48.4324 14.67L48.5524 14.55L48.6124 14.28L48.6424 14.07C48.6624 13.91 48.6924 13.77 48.7324 13.65L48.8524 13.41L48.8224 13.14H48.8824L48.9724 12.96L49.0324 12.84V12.6H49.1224L49.0924 12.45L49.2124 12.33L49.1824 12.03H49.2124V11.85L49.1824 11.67C49.1624 11.53 49.1624 11.43 49.1824 11.37H49.2724L49.2424 11.01C49.2624 10.97 49.2724 10.85 49.2724 10.65V10.23C49.2324 10.23 49.2224 10.18 49.2424 10.08C49.2624 10 49.2624 9.96 49.2424 9.96V9.75C49.1624 9.73 49.0924 9.7 49.0324 9.66L48.9724 9.57L48.8524 9.51L47.8324 9.54C47.7124 9.68 47.6224 9.76 47.5624 9.78C47.5224 9.94 47.4924 10.17 47.4724 10.47V11.94H47.4124V12L47.2924 11.94L47.2024 11.88C47.1424 11.84 47.0624 11.83 46.9624 11.85V11.94C46.7424 11.98 46.4524 11.98 46.0924 11.94L45.6724 11.88C45.5124 11.86 45.4024 11.85 45.3424 11.85L45.3124 11.46L45.2524 11.01C45.2124 10.65 45.1924 10.35 45.1924 10.11C45.1924 9.39 45.3224 8.9 45.5824 8.64C45.6424 8.56 45.7224 8.52 45.8224 8.52C45.8624 8.42 46.0024 8.26 46.2424 8.04C46.3024 7.96 46.3824 7.88 46.4824 7.8L46.5724 7.77H46.6624C46.7424 7.75 46.8024 7.73 46.8424 7.71V7.65C46.9024 7.65 46.9624 7.63 47.0224 7.59L47.1124 7.56L47.2024 7.53V7.44C47.3224 7.4 47.6724 7.37 48.2524 7.35C48.8524 7.33 49.2324 7.34 49.3924 7.38V7.44H49.6324V7.53L49.8124 7.59C49.8724 7.63 49.9124 7.65 49.9324 7.65V7.71H50.1424C50.1424 7.75 50.1824 7.81 50.2624 7.89H50.3824L50.4424 7.98L50.5024 8.04H50.6224C50.6824 8.12 50.7224 8.17 50.7424 8.19H50.9224C50.9824 8.29 51.0624 8.41 51.1624 8.55L51.3124 8.73L51.4024 8.88V9.09H51.5224C51.5624 9.19 51.5924 9.47 51.6124 9.93C51.6324 10.09 51.6424 10.26 51.6424 10.44V10.8L51.5524 11.07ZM49.9024 25.11C49.8224 25.07 49.7724 25.05 49.7524 25.05C49.7324 25.05 49.7124 25.03 49.6924 24.99C49.7924 25.03 49.8624 25.07 49.9024 25.11ZM55.758 15.3C55.758 16.08 55.728 16.52 55.668 16.62C55.588 16.62 55.458 16.63 55.278 16.65L54.858 16.68C54.518 16.72 54.288 16.7 54.168 16.62L53.928 16.47L52.998 16.38C52.998 16.22 52.988 15.69 52.968 14.79C52.948 13.89 52.938 13.26 52.938 12.9L52.878 12.78L52.848 12.72C52.808 12.66 52.788 12.62 52.788 12.6C52.768 12.54 52.808 12.46 52.908 12.36C52.928 12.3 52.928 12.24 52.908 12.18V12.09C52.888 12.03 52.898 11.98 52.938 11.94C53.118 11.9 53.378 11.87 53.718 11.85H54.138L54.528 11.82C54.648 11.6 55.068 11.6 55.788 11.82L55.668 12.36L55.788 12.6V12.9C55.768 12.92 55.758 13.02 55.758 13.2H55.638C55.618 13.26 55.598 13.36 55.578 13.5V13.77C55.598 13.83 55.618 14.01 55.638 14.31C55.638 14.41 55.648 14.51 55.668 14.61V14.76H55.788C55.808 14.98 55.828 15.13 55.848 15.21L55.878 15.27L55.908 15.3H55.758ZM56.088 26.43C56.048 26.61 55.978 26.75 55.878 26.85C55.698 26.89 55.438 26.92 55.098 26.94H54.678L54.288 26.97C53.908 26.87 53.488 26.83 53.028 26.85V26.76H52.998L53.028 26.01V25.23H53.148C53.168 25.19 53.158 25.15 53.118 25.11L53.058 25.08L53.028 25.02C53.008 24.96 53.028 24.89 53.088 24.81L53.118 24.72L53.148 24.66H53.028C53.008 24.28 52.968 23.89 52.908 23.49H52.788C52.788 22.89 52.858 22.49 52.998 22.29H53.418L53.928 22.32C54.328 22.32 54.568 22.27 54.648 22.17L55.758 22.23L55.878 22.62V25.89C55.918 25.97 55.938 26.04 55.938 26.1V26.16L55.908 26.22C55.908 26.3 55.968 26.37 56.088 26.43ZM53.808 12.48H53.568V12.6H53.388V12.78C53.448 12.78 53.568 12.72 53.748 12.6L53.778 12.57L53.808 12.54V12.48ZM54.108 13.71H53.868V13.59H53.688C53.748 13.77 53.888 13.87 54.108 13.89V13.71ZM55.128 23.67H54.948L54.978 23.76C54.978 23.78 54.988 23.79 55.008 23.79V23.91H55.128V23.67ZM54.048 22.89V23.13H53.928V23.31C54.108 23.25 54.208 23.11 54.228 22.89H54.048ZM54.468 23.91C54.468 23.85 54.408 23.73 54.288 23.55L54.258 23.52L54.228 23.49H54.168V23.73H54.288V23.91H54.468ZM63.7448 22.14L63.6548 22.17V22.59L63.5948 22.8L63.5648 22.98C63.5248 23.1 63.4348 23.19 63.2948 23.25V23.37C63.4148 23.37 63.5248 23.33 63.6248 23.25L63.6548 23.4L63.6848 23.58C63.7048 23.72 63.6948 23.84 63.6548 23.94H63.6248V25.2C63.5648 25.3 63.4548 25.5 63.2948 25.8C63.1348 26.04 63.0148 26.22 62.9348 26.34H62.7248C62.7048 26.34 62.6748 26.38 62.6348 26.46H62.4848C62.4448 26.48 62.4148 26.51 62.3948 26.55V26.67H62.2448C62.1648 26.69 62.1248 26.74 62.1248 26.82H61.9148V26.91L61.8548 26.94H61.7948C61.7348 26.96 61.6648 26.99 61.5848 27.03V27.06C61.4248 27.12 61.1048 27.17 60.6248 27.21C60.0848 27.23 59.7248 27.21 59.5448 27.15V27.06H59.1848V27.03C59.1448 26.99 59.0948 26.96 59.0348 26.94L58.8548 26.91V26.82C58.7348 26.82 58.5948 26.78 58.4348 26.7C58.3948 26.68 58.3348 26.6 58.2548 26.46C58.0748 26.4 57.9248 26.32 57.8048 26.22V26.07L57.6848 26.01L57.5648 25.98L57.4748 25.71L57.3848 25.44H57.3248V25.29H57.2348V24.39C57.1948 24.17 57.1648 23.89 57.1448 23.55V23.1L57.1148 22.65C57.1948 22.65 57.3148 22.63 57.4748 22.59V22.53C57.5948 22.51 57.6848 22.53 57.7448 22.59H58.9448V22.65H59.1848V22.77C59.3048 22.83 59.3948 22.87 59.4548 22.89V24.6H59.5448V24.72H59.6048L59.6648 24.81L59.6948 24.9C59.7348 24.96 59.7748 25.01 59.8148 25.05H60.8348L60.8648 24.93L60.8948 24.84H61.0748C61.0948 24.78 61.1148 24.74 61.1348 24.72L61.1948 24.63H61.2248L61.2548 24.6L61.2248 24.51C61.2048 24.45 61.1948 24.41 61.1948 24.39H61.2548V23.91H61.3148V22.77C61.3748 22.63 61.4248 22.36 61.4648 21.96C61.5048 21.54 61.4948 21.24 61.4348 21.06H61.3148C61.3548 20.94 61.3948 20.72 61.4348 20.4H61.3148V19.23H61.2548V18.45C61.2148 18.49 61.1948 18.44 61.1948 18.3L60.9548 18.24L60.7148 18.18C60.4948 18.12 60.3248 18.08 60.2048 18.06H59.8148V18.09C59.6548 18.09 59.4248 18.08 59.1248 18.06L59.0948 17.97H59.0648C58.9448 17.11 58.9448 16.47 59.0648 16.05H59.4548C59.6148 16.03 59.7648 16.01 59.9048 15.99C60.3048 15.95 60.5548 15.89 60.6548 15.81V15.72L60.8648 15.54L61.0748 15.39C61.0748 15.35 61.0948 15.28 61.1348 15.18L61.1948 15H61.2548V13.26H61.3148V13.14H61.2548L61.2248 12.45L61.1948 11.76H61.2548V11.31H61.1948C61.1348 11.19 61.1248 11.03 61.1648 10.83L61.1948 10.62C61.2148 10.56 61.2348 10.51 61.2548 10.47C61.0148 10.35 60.8548 10.15 60.7748 9.87H59.8148V9.96H59.6048L59.5748 9.99L59.5448 10.05C59.5248 10.09 59.4948 10.12 59.4548 10.14C59.4348 10.2 59.4248 10.24 59.4248 10.26L59.3648 10.32V10.83L59.3948 11.37C59.3948 11.81 59.3648 12.13 59.3048 12.33C59.1248 12.41 59.0048 12.49 58.9448 12.57H58.4948L58.0148 12.54C57.6548 12.54 57.3948 12.51 57.2348 12.45C57.1948 12.15 57.1648 11.78 57.1448 11.34L57.1148 10.2C57.2548 10.14 57.3748 10.06 57.4748 9.96V9.03H57.5648V8.82H57.6548V8.67L57.8948 8.46L58.0448 8.34L58.1348 8.25C58.1948 8.15 58.2348 8.1 58.2548 8.1C58.2948 8.06 58.3548 8.03 58.4348 8.01L58.6148 7.98C58.6148 7.92 58.6448 7.85 58.7048 7.77H58.8548V7.74C58.9348 7.72 59.0248 7.7 59.1248 7.68H59.2448L59.3648 7.65V7.53H59.8148V7.44C60.3548 7.5 60.8948 7.53 61.4348 7.53C61.4348 7.57 61.4548 7.61 61.4948 7.65L61.5548 7.74L61.6448 7.77L61.7948 7.8C61.8948 7.84 61.9748 7.87 62.0348 7.89L62.0648 7.98L62.1248 8.1H62.2748L62.3048 8.16C62.3248 8.18 62.3548 8.21 62.3948 8.25H62.5748L62.7248 8.46C62.7848 8.54 62.8548 8.61 62.9348 8.67L63.0548 8.79V8.91L63.1448 8.97L63.2648 9.03C63.2848 9.09 63.3048 9.2 63.3248 9.36L63.3548 9.54L63.4148 9.72H63.5048V10.47H63.6248V10.71H63.5048C63.4848 10.87 63.5248 10.93 63.6248 10.89V12.33H63.6548C63.7148 12.53 63.7248 12.99 63.6848 13.71C63.6848 13.97 63.6748 14.24 63.6548 14.52C63.6348 14.74 63.6248 14.9 63.6248 15V15.39H63.5048V15.54H63.4148V15.87C63.3948 15.91 63.3648 15.94 63.3248 15.96L63.2648 15.99V16.14C63.1248 16.34 62.9448 16.52 62.7248 16.68C62.8048 16.9 62.9548 17.09 63.1748 17.25C63.1948 17.29 63.2148 17.32 63.2348 17.34L63.2948 17.37L63.3548 17.46L63.4148 17.61C63.4548 17.71 63.4848 17.79 63.5048 17.85H63.6248V18.9H63.6548V19.14H63.7448V20.43H63.6548L63.7148 20.79L63.7448 21.15H63.6548C63.6548 21.29 63.6848 21.38 63.7448 21.42C63.7648 21.52 63.7348 21.66 63.6548 21.84H63.7448L63.7748 21.9V21.96C63.7948 22.02 63.8248 22.07 63.8648 22.11L63.7448 22.14ZM58.1348 23.58C58.1148 23.54 58.1048 23.51 58.1048 23.49L58.0748 23.46V23.61C58.1348 23.59 58.1748 23.59 58.1948 23.61L58.2548 23.58H58.1348ZM58.3448 23.82H58.2548L58.0748 23.73V24.06C57.9148 24.02 57.8248 23.94 57.8048 23.82C57.7248 23.86 57.6348 23.91 57.5348 23.97L57.4448 24.06L57.3248 24.15V24.24L57.4448 24.27L57.5648 24.3V24.39C57.6248 24.41 57.6748 24.41 57.7148 24.39L57.8348 24.33C57.9148 24.29 58.0148 24.34 58.1348 24.48H58.2548V24.24H58.3448V23.82ZM71.7778 18.15V18.06H71.6878V17.94H71.8978V18.15H71.7778ZM71.7778 24.72C71.7778 24.8 71.7878 24.88 71.8078 24.96L71.8678 25.11C71.9078 25.23 71.8778 25.34 71.7778 25.44V25.89H71.7178C71.6778 25.91 71.6278 25.93 71.5678 25.95V26.16H71.5378V26.31H71.4478L71.3878 26.4L71.3278 26.49H71.2078L71.1478 26.58L71.0878 26.67H70.9078V26.76H70.6678L70.6078 26.82L70.5478 26.91H70.3978V27L69.8578 27.03C69.6378 27.05 69.4478 27.08 69.2878 27.12V27.15C68.9678 27.25 68.5178 27.22 67.9378 27.06C67.7378 27 67.5278 26.93 67.3078 26.85C67.1478 26.79 67.0078 26.73 66.8878 26.67V26.55L66.7078 26.52L66.5278 26.49L66.4378 26.4L66.3778 26.28C66.2978 26.18 66.2278 26.11 66.1678 26.07L66.1078 26.01L66.0478 25.95C66.0078 25.91 65.9678 25.89 65.9278 25.89C65.9078 25.83 65.8878 25.75 65.8678 25.65L65.8378 25.44C65.7178 25.2 65.6278 24.85 65.5678 24.39C65.4878 23.87 65.4978 23.44 65.5978 23.1H65.6578L65.5978 22.86V18.54C65.6178 18.12 65.6178 17.84 65.5978 17.7H65.5078L65.5378 17.49L65.5978 17.28H65.6578V17.19H65.5978V16.23H65.5078C65.5478 16.15 65.5778 16.1 65.5978 16.08C65.5978 15.96 65.5678 15.79 65.5078 15.57H65.5978C65.5778 15.43 65.5578 15.28 65.5378 15.12L65.5078 14.73H65.5978V13.47H65.6578V13.44H65.5978C65.5578 13.2 65.5378 12.79 65.5378 12.21C65.5378 11.65 65.5578 11.32 65.5978 11.22L65.5378 10.86V10.65L65.5078 10.44C65.5278 10.44 65.5578 10.43 65.5978 10.41L65.6578 10.38L65.6278 10.23L65.5978 10.11H65.6578V9.69H65.7478C65.8078 9.57 65.8678 9.39 65.9278 9.15H66.0178V9.03H66.0778L66.1378 8.82C66.1578 8.76 66.1678 8.71 66.1678 8.67L66.2278 8.64L66.2878 8.61L66.3478 8.58L66.5278 8.34L66.7078 8.13H66.8878C66.8878 8.09 66.9078 8.05 66.9478 8.01L67.0078 7.95L67.0678 7.89C67.2078 7.89 67.3878 7.87 67.6078 7.83L67.8778 7.74L68.1778 7.68C68.6578 7.56 69.0478 7.55 69.3478 7.65V7.68H70.0678V7.8H70.1878V7.89H70.3978V7.98H70.6678V8.04L70.8178 8.16L70.9678 8.28C71.0478 8.38 71.1378 8.44 71.2378 8.46L71.2678 8.55L71.2978 8.61L71.3278 8.7H71.4478L71.4778 8.94C71.4978 9.04 71.5178 9.11 71.5378 9.15L71.5978 9.18C71.6378 9.2 71.6678 9.23 71.6878 9.27V10.44C71.7678 10.72 71.8078 11.21 71.8078 11.91L71.7778 12.33V13.47C71.7778 13.57 71.7878 13.69 71.8078 13.83L71.8678 14.22C71.9278 14.58 71.9378 14.87 71.8978 15.09H71.7778C71.7778 15.13 71.7978 15.2 71.8378 15.3L71.8978 15.45V15.63H71.7778V16.47H71.6878V16.83H71.5678C71.5078 16.95 71.4678 17.1 71.4478 17.28C71.5478 17.3 71.6278 17.33 71.6878 17.37L71.7778 17.46L71.8978 17.52V17.79C71.7578 17.79 71.6478 17.76 71.5678 17.7V17.88C71.5678 18.16 71.5878 18.57 71.6278 19.11C71.6678 19.67 71.6878 20.09 71.6878 20.37H71.7778C71.7978 20.45 71.8378 20.57 71.8978 20.73H71.6878C71.7678 21.09 71.7678 21.43 71.6878 21.75H71.5678V22.11C71.6878 22.11 71.7578 22.14 71.7778 22.2V22.44H71.8978V22.74H71.7778C71.7778 22.8 71.7978 22.92 71.8378 23.1L71.8978 23.34V23.55C71.8778 23.57 71.8578 23.58 71.8378 23.58H71.8078C71.7878 23.58 71.7778 23.61 71.7778 23.67H71.8978V24.72H71.7778ZM69.5878 23.79C69.5878 23.55 69.5678 23.35 69.5278 23.19H69.5878V22.62H69.5278V22.5L69.5578 22.44L69.5878 22.38C69.6278 22.34 69.6278 22.28 69.5878 22.2C69.5878 22.14 69.5678 22.07 69.5278 21.99H69.5878V20.73H69.5278C69.5278 20.65 69.5178 20.56 69.4978 20.46L69.4678 20.22C69.5678 19.82 69.6078 19.2 69.5878 18.36L69.5578 17.37C69.5378 16.95 69.5278 16.64 69.5278 16.44V15.69L69.5578 14.94C69.5578 14.36 69.5278 13.91 69.4678 13.59V13.47H69.5278V13.44H69.4678V11.88L69.4978 11.79C69.5178 11.73 69.5278 11.68 69.5278 11.64C69.5078 11.52 69.4878 11.35 69.4678 11.13L69.4378 10.59C69.3978 10.11 69.3478 9.75 69.2878 9.51C69.2278 9.49 69.1578 9.47 69.0778 9.45L68.7778 9.39C68.5178 9.37 68.3378 9.41 68.2378 9.51C68.0778 9.61 67.9878 9.69 67.9678 9.75H67.8778C67.9378 9.85 67.9678 9.97 67.9678 10.11H67.8778V11.07H67.8178C67.8578 11.15 67.8778 11.23 67.8778 11.31V14.82H67.8178V15.12H67.8778C67.9378 15.28 67.9178 15.36 67.8178 15.36C67.8178 15.44 67.8278 15.51 67.8478 15.57C67.8678 15.63 67.8778 15.68 67.8778 15.72C67.8778 15.84 67.8578 16.08 67.8178 16.44H67.8778V17.4L67.9078 17.67L67.9378 18C67.9778 18.56 67.9578 18.95 67.8778 19.17H67.8178V19.68C67.9178 19.74 67.9378 19.82 67.8778 19.92H67.8178V20.61H67.8778C67.9378 20.73 67.9178 20.82 67.8178 20.88V21.63H67.8778C67.8778 21.71 67.8578 21.81 67.8178 21.93H67.8778V24.03H67.9678C67.9878 24.09 67.9778 24.19 67.9378 24.33L67.8778 24.48C67.8578 24.56 67.8578 24.63 67.8778 24.69H67.9978L68.0578 24.72H68.0878V25.05H68.1178V25.17C68.2178 25.21 68.2878 25.28 68.3278 25.38H69.1678V25.29H69.3478C69.3878 25.29 69.4178 25.27 69.4378 25.23L69.4978 25.17L69.5278 25.14V23.79H69.5878ZM68.1178 11.58V11.49H68.0878L68.1178 11.4V11.31C68.2778 11.39 68.3178 11.48 68.2378 11.58H68.1178Z" fill="#4D4D4D"/>
<path d="M10.7892 8C4.8276 8 0 12.48 0 18C0 23.52 4.8276 28 10.7892 28C16.7616 28 21.6 23.52 21.6 18C21.6 12.48 16.7616 8 10.7892 8ZM10.8 26C6.0264 26 2.16 22.42 2.16 18C2.16 13.58 6.0264 10 10.8 10C15.5736 10 19.44 13.58 19.44 18C19.44 22.42 15.5736 26 10.8 26ZM11.34 13H9.72V19L15.39 22.15L16.2 20.92L11.34 18.25V13Z" fill="#4D4D4D"/>
<path d="M136.81 26.43C136.77 26.61 136.7 26.75 136.6 26.85C136.42 26.89 136.2 26.92 135.94 26.94H135.58L135.22 26.97C134.86 26.87 134.51 26.83 134.17 26.85V26.76H134.14L134.17 26.01V25.23H134.29C134.31 25.19 134.3 25.15 134.26 25.11L134.2 25.08L134.17 25.02C134.15 24.96 134.17 24.89 134.23 24.81L134.26 24.72L134.29 24.66H134.17V23.43H134.14C134.16 23.33 134.19 23.17 134.23 22.95L134.26 22.71L134.29 22.5H134.17V21.12H134.14V20.67H134.05C134.05 20.63 134.07 20.55 134.11 20.43L134.14 20.28V20.07H134.05C134.11 19.93 134.14 19.82 134.14 19.74V19.14H134.05V18.72H134.14V18.18H134.05C134.05 18.12 134.06 18.03 134.08 17.91L134.11 17.79L134.14 17.64H134.05V17.1H134.14C134.14 17.02 134.13 16.97 134.11 16.95L134.05 16.92V15.9L134.08 15.45C134.1 15.09 134.09 14.83 134.05 14.67V11.37C134.03 10.67 133.99 10.17 133.93 9.87C133.97 9.73 134 9.58 134.02 9.42L134.05 9H133.93C133.93 8.4 134 8 134.14 7.8H134.53L134.95 7.83C135.29 7.83 135.5 7.78 135.58 7.68H136.12V7.8C136.3 7.98 136.36 8.4 136.3 9.06L136.24 9.48L136.21 9.87C136.19 10.17 136.2 10.4 136.24 10.56H136.36L136.33 10.86C136.31 10.98 136.28 11.08 136.24 11.16H136.36V11.49C136.28 11.51 136.24 11.56 136.24 11.64C136.3 11.9 136.34 12.24 136.36 12.66V14.67H136.48C136.44 14.77 136.41 14.89 136.39 15.03L136.36 15.39H136.48V16.41H136.36C136.34 16.51 136.38 16.56 136.48 16.56V17.01C136.48 17.23 136.47 17.52 136.45 17.88L136.42 18.78C136.4 19.5 136.42 20.05 136.48 20.43V20.91C136.48 20.95 136.49 21.02 136.51 21.12L136.54 21.36C136.54 21.6 136.52 21.79 136.48 21.93V23.61C136.5 23.77 136.51 23.98 136.51 24.24V24.87C136.49 25.39 136.52 25.77 136.6 26.01C136.64 26.09 136.66 26.15 136.66 26.19V26.25L136.63 26.28C136.63 26.32 136.69 26.37 136.81 26.43ZM134.98 8.4V8.64H134.86V8.82C135.04 8.76 135.14 8.62 135.16 8.4H134.98ZM135.4 9.42C135.4 9.36 135.34 9.24 135.22 9.06L135.19 9.03L135.16 9H135.1V9.24H135.22V9.42H135.4ZM135.34 23.19H135.16L135.19 23.28C135.19 23.3 135.2 23.31 135.22 23.31V23.43H135.34V23.19ZM147.684 27C147.484 26.96 147.234 26.95 146.934 26.97L146.544 27H146.094C145.754 26.9 145.484 26.9 145.284 27V26.88H145.194C145.194 26.84 145.204 26.77 145.224 26.67L145.284 26.43H145.194C145.174 26.37 145.194 26.19 145.254 25.89L145.314 25.56C145.314 25.44 145.304 25.34 145.284 25.26C145.184 24.92 145.144 24.46 145.164 23.88V23.1L145.194 22.35L145.164 22.05L145.134 21.75C145.114 21.49 145.094 21.3 145.074 21.18L145.134 21.03L145.194 20.88C145.214 20.72 145.214 20.59 145.194 20.49C145.094 20.49 145.054 20.43 145.074 20.31C145.154 20.31 145.194 20.26 145.194 20.16H145.074V17.73L145.014 17.67L144.954 17.64C144.954 17.62 144.964 17.61 144.984 17.61V17.31H145.074V16.92H144.984L145.014 16.86L145.044 16.77C145.084 16.69 145.094 16.61 145.074 16.53L145.044 16.5C145.004 16.48 144.984 16.45 144.984 16.41H145.074C145.174 16.13 145.184 15.8 145.104 15.42C145.064 15.64 145.004 15.84 144.924 16.02L144.954 16.74L144.894 16.89C144.874 16.97 144.874 17.06 144.894 17.16V17.37C144.894 17.43 144.874 17.46 144.834 17.46V18.06C144.814 18.06 144.804 18.07 144.804 18.09C144.784 18.11 144.764 18.12 144.744 18.12V18.27L144.714 18.45C144.674 18.51 144.644 18.54 144.624 18.54L144.654 19.35H144.624L144.564 19.56L144.474 19.77H144.354C144.354 19.79 144.374 19.82 144.414 19.86L144.474 20.04C144.534 20.18 144.544 20.3 144.504 20.4H144.384C144.384 20.66 144.374 20.89 144.354 21.09C144.374 21.15 144.354 21.18 144.294 21.18L144.324 21.78H144.294V22.05L144.264 22.32C144.284 22.32 144.254 22.35 144.174 22.41L144.204 22.86L144.174 22.89C144.154 22.93 144.134 22.95 144.114 22.95V23.04L143.994 23.13C144.094 23.41 144.144 23.69 144.144 23.97H144.024L144.054 24.48L143.994 24.6C143.994 24.7 144.014 24.91 144.054 25.23H143.964V25.8L143.934 25.86C143.914 25.9 143.884 25.92 143.844 25.92C143.824 26.02 143.844 26.16 143.904 26.34L143.964 26.55V26.61L143.994 26.67L143.964 26.85V27C143.944 27.12 143.924 27.22 143.904 27.3C143.664 27.28 143.374 27.28 143.034 27.3H141.984V26.61H141.954L141.984 26.4V25.83L141.954 25.35C141.934 25.35 141.924 25.34 141.924 25.32L141.894 25.29V24.51H141.774V24C141.754 23.8 141.744 23.64 141.744 23.52C141.744 23.48 141.724 23.46 141.684 23.46V22.74C141.664 22.42 141.654 22.18 141.654 22.02H141.624V21.6C141.584 21.6 141.554 21.58 141.534 21.54L141.504 21.48C141.484 21.44 141.524 21.4 141.624 21.36C141.624 21.26 141.584 21.19 141.504 21.15L141.534 21.09V21C141.554 20.92 141.584 20.85 141.624 20.79C141.584 20.79 141.554 20.76 141.534 20.7L141.504 20.64V19.89L141.474 19.8C141.454 19.74 141.424 19.71 141.384 19.71C141.384 19.15 141.354 18.73 141.294 18.45H141.264V17.94H141.144L141.234 17.64L141.294 17.34L141.234 17.31H141.144V16.89H141.054C141.034 16.83 141.044 16.78 141.084 16.74L141.114 16.68L141.144 16.59H141.054V16.5H140.964V16.38L141.024 16.26C141.064 16.16 141.064 16.08 141.024 16.02H140.934C140.934 15.7 140.924 15.47 140.904 15.33L140.874 15.27V14.91L140.844 14.61H140.754C140.794 14.43 140.784 14.29 140.724 14.19C140.684 14.15 140.654 14.12 140.634 14.1H140.574L140.184 14.01L140.064 14.22H140.214V14.28C140.274 14.3 140.334 14.28 140.394 14.22C140.434 14.22 140.474 14.23 140.514 14.25H140.544L140.604 14.28C140.604 14.38 140.594 14.47 140.574 14.55H140.304V14.4C140.204 14.42 140.144 14.44 140.124 14.46H140.094L140.064 14.49C140.064 14.51 140.004 14.53 139.884 14.55C139.884 14.51 139.854 14.48 139.794 14.46C139.734 14.44 139.704 14.42 139.704 14.4H139.644V14.16H139.464V14.22H139.404C139.404 14.34 139.424 14.43 139.464 14.49H139.524V14.73H139.584V14.85L139.704 14.97L139.854 15.09C139.834 15.17 139.864 15.19 139.944 15.15H140.004C140.024 15.15 140.034 15.17 140.034 15.21C140.094 15.23 140.114 15.3 140.094 15.42L140.064 15.54C140.044 15.58 140.044 15.61 140.064 15.63C140.104 15.59 140.154 15.53 140.214 15.45L140.304 15.3H140.394V15.15C140.414 15.15 140.424 15.14 140.424 15.12C140.404 15.12 140.404 15.09 140.424 15.03L140.334 15L140.244 14.97V14.79L140.274 14.76C140.294 14.76 140.304 14.75 140.304 14.73C140.424 14.73 140.494 14.78 140.514 14.88L140.544 15C140.564 15.04 140.594 15.07 140.634 15.09C140.594 15.35 140.574 16.49 140.574 18.51C140.594 20.55 140.634 21.68 140.694 21.9V22.89H140.574C140.574 23.03 140.614 23.12 140.694 23.16V23.64H140.574C140.554 23.76 140.564 23.88 140.604 24L140.664 24.15L140.694 24.3C140.694 24.38 140.684 24.57 140.664 24.87V25.26L140.634 25.65C140.614 26.29 140.664 26.66 140.784 26.76C140.784 26.96 140.754 27.1 140.694 27.18C140.494 27.22 140.264 27.25 140.004 27.27L139.314 27.3V27.18H138.684V27.09H138.624V27.18C138.604 27.22 138.564 27.25 138.504 27.27L138.354 27.3L138.324 27.21L138.294 27.09C138.254 26.99 138.264 26.88 138.324 26.76H138.354C138.374 26.66 138.384 26.44 138.384 26.1C138.384 25.74 138.374 25.45 138.354 25.23C138.314 24.33 138.314 23.3 138.354 22.14L138.444 20.04C138.444 19.96 138.474 19.89 138.534 19.83L138.624 19.74C138.644 19.7 138.664 19.65 138.684 19.59L138.444 19.35C138.384 19.13 138.364 18.84 138.384 18.48C138.384 18.18 138.404 17.92 138.444 17.7C138.424 17.62 138.404 17.53 138.384 17.43L138.354 17.22H138.444L138.414 16.59L138.354 16.44L138.684 16.32V16.2H138.834L138.714 16.05L138.534 15.93L138.444 15.72V14.76C138.444 14.72 138.454 14.62 138.474 14.46C138.494 14.28 138.504 14.1 138.504 13.92C138.524 13.38 138.504 13.02 138.444 12.84H138.414C138.434 12.84 138.444 12.82 138.444 12.78L138.504 12.24L138.774 12.18C138.834 12.18 138.904 12.21 138.984 12.27C139.084 12.33 139.134 12.39 139.134 12.45L139.164 12.24C139.244 12.02 139.294 11.91 139.314 11.91C139.274 11.83 139.244 11.79 139.224 11.79H139.164C139.104 11.79 139.034 11.77 138.954 11.73V11.61H138.834C138.834 11.79 138.814 11.9 138.774 11.94C138.754 11.96 138.724 11.96 138.684 11.94L138.594 11.91C138.574 11.91 138.544 11.92 138.504 11.94V11.82C138.484 11.76 138.484 11.66 138.504 11.52C138.524 11.4 138.564 11.29 138.624 11.19H138.864C139.004 11.33 139.074 11.41 139.074 11.43L139.194 11.25C139.234 11.21 139.224 11.15 139.164 11.07L139.104 11.01C139.084 10.97 139.074 10.94 139.074 10.92L138.654 11.1V11.04C138.574 10.96 138.514 10.76 138.474 10.44C138.454 10.22 138.444 9.95 138.444 9.63V7.86H138.984C139.124 7.86 139.274 7.85 139.434 7.83H140.034V7.74L140.094 7.71L140.124 7.68H140.814V7.62H141.024V7.5H141.474V7.62H141.534V7.5H141.894C141.994 7.7 142.054 7.9 142.074 8.1H142.014V8.16C142.014 8.22 142.024 8.25 142.044 8.25C142.064 8.23 142.074 8.23 142.074 8.25C142.074 8.37 142.084 8.8 142.104 9.54C142.124 10.28 142.134 10.7 142.134 10.8C142.154 10.8 142.174 10.82 142.194 10.86C142.194 10.92 142.204 10.95 142.224 10.95C142.224 11.09 142.244 11.28 142.284 11.52C142.324 11.78 142.344 11.96 142.344 12.06H142.404L142.434 12.09C142.434 12.27 142.444 12.4 142.464 12.48H142.494V13.38C142.534 13.38 142.564 13.42 142.584 13.5C142.584 13.58 142.594 13.87 142.614 14.37C142.634 14.87 142.644 15.18 142.644 15.3H142.764L142.734 15.45C142.714 15.53 142.694 15.6 142.674 15.66H142.794C142.794 16.22 142.824 16.77 142.884 17.31H143.034C143.034 17.09 143.064 16.85 143.124 16.59C143.144 16.49 143.164 16.39 143.184 16.29C143.204 16.21 143.224 16.15 143.244 16.11V15.78L143.274 15.42H143.304V14.91C143.324 14.91 143.364 14.85 143.424 14.73C143.424 14.67 143.434 14.42 143.454 13.98V13.26L143.484 13.23H143.514C143.534 13.07 143.544 12.87 143.544 12.63L143.574 12.6L143.604 12.57C143.604 12.39 143.624 12.14 143.664 11.82L143.844 10.14V9.72L143.934 9.63C143.934 9.35 143.944 9.13 143.964 8.97H144.024C144.064 8.85 144.094 8.69 144.114 8.49L144.144 8.01H144.204L144.174 7.89C144.154 7.83 144.144 7.78 144.144 7.74L144.234 7.71C144.294 7.69 144.344 7.68 144.384 7.68C144.484 7.58 144.684 7.55 144.984 7.59L145.344 7.65C145.464 7.67 145.564 7.68 145.644 7.68L145.674 7.71V7.77C146.154 7.67 146.714 7.69 147.354 7.83V11.04H147.414C147.414 11.08 147.404 11.1 147.384 11.1C147.364 11.08 147.354 11.1 147.354 11.16V11.76H147.414V11.82H147.354C147.314 12.04 147.304 12.33 147.324 12.69L147.354 13.11C147.374 13.23 147.394 13.35 147.414 13.47V14.28L147.384 14.46L147.354 14.58C147.334 14.68 147.334 14.73 147.354 14.73H147.414C147.414 14.83 147.404 14.98 147.384 15.18C147.364 15.36 147.354 15.48 147.354 15.54C147.354 15.68 147.364 15.91 147.384 16.23C147.404 16.53 147.414 16.76 147.414 16.92H147.504C147.524 17.04 147.494 17.12 147.414 17.16V17.7H147.504V19.41H147.414V19.44H147.504C147.504 19.56 147.474 19.63 147.414 19.65C147.414 19.79 147.444 19.84 147.504 19.8V20.37L147.564 20.4C147.584 20.42 147.594 20.45 147.594 20.49H147.504V22.62H147.594V23.19C147.474 23.19 147.444 23.24 147.504 23.34H147.594V24.03H147.684V24.12L147.654 24.15L147.594 24.18C147.534 24.22 147.504 24.26 147.504 24.3H147.594C147.594 24.66 147.604 25.11 147.624 25.65L147.654 26.31L147.684 27ZM144.954 9.63H144.894L144.954 9.75L144.984 9.84L144.954 9.63ZM144.804 10.05L144.564 9.99V10.23C144.704 10.23 144.854 10.25 145.014 10.29V10.26C145.034 10.22 145.044 10.18 145.044 10.14L144.804 10.05ZM144.984 12.78C144.784 12.82 144.684 13.03 144.684 13.41H144.444C144.444 13.45 144.454 13.48 144.474 13.5V13.56L144.654 13.53H144.804L144.774 13.35H144.834V13.23C144.834 13.17 144.824 13.12 144.804 13.08C144.884 13.04 144.944 13 144.984 12.96V12.78ZM140.214 21.81H140.094V21.75L139.944 21.78L139.764 21.81V21.75C139.744 21.73 139.664 21.7 139.524 21.66V21.75H139.404V22.17H139.104C139.104 22.19 139.094 22.23 139.074 22.29C139.054 22.33 139.044 22.37 139.044 22.41L139.074 22.44L139.104 22.53L139.164 22.5H139.224C139.284 22.48 139.334 22.45 139.374 22.41V22.62H139.464L139.644 22.65L139.764 22.29C139.804 22.13 139.844 22 139.884 21.9H140.214V21.81ZM139.464 22.83C139.424 22.85 139.394 22.87 139.374 22.89V22.65H139.284V22.68H139.164C139.164 22.84 139.154 22.96 139.134 23.04H139.254C139.254 23.12 139.264 23.21 139.284 23.31L139.314 23.43L139.344 23.58H139.374C139.374 23.42 139.464 23.16 139.644 22.8L139.464 22.83ZM139.554 23.94L139.494 23.88C139.434 23.82 139.394 23.74 139.374 23.64C139.254 23.68 139.174 23.76 139.134 23.88L139.284 23.91L139.374 23.97C139.434 23.99 139.514 24.01 139.614 24.03L139.554 23.94ZM139.404 25.17L139.344 24.99H139.224V25.26H139.314L139.344 25.29C139.364 25.29 139.404 25.31 139.464 25.35L139.404 25.17ZM139.044 25.5V25.71L139.074 25.65C139.074 25.63 139.084 25.58 139.104 25.5H139.044ZM139.794 26.46H139.554C139.554 26.26 139.584 26.12 139.644 26.04H139.434C139.394 26.04 139.374 26.05 139.374 26.07C139.374 26.05 139.344 26.06 139.284 26.1C139.264 26.3 139.274 26.54 139.314 26.82L139.434 26.73L139.554 26.64C139.654 26.58 139.734 26.59 139.794 26.67V26.46ZM139.194 26.58H139.074V26.1H138.954L138.834 26.58H138.954V26.67H139.194V26.58ZM155.876 23.31V24.27L155.906 24.3C155.926 24.34 155.916 24.39 155.876 24.45V24.81H155.756V25.08H155.636V25.26L155.576 25.38L155.486 25.53C155.406 25.65 155.356 25.75 155.336 25.83C155.196 25.91 155.076 25.99 154.976 26.07V26.13H154.826V26.19H154.616C154.616 26.27 154.586 26.34 154.526 26.4H154.376V26.49H154.016V26.55H153.776V26.64H153.446V26.76L153.356 26.73L153.296 26.67C153.236 26.63 153.176 26.62 153.116 26.64V26.76H152.816V26.82L152.456 26.76V26.82H151.646V26.88C151.526 26.88 151.446 26.87 151.406 26.85C151.366 26.83 151.306 26.82 151.226 26.82V26.88C151.026 26.94 150.756 26.96 150.416 26.94L150.026 26.88L149.846 26.85L149.726 26.82V26.52L149.696 26.16C149.676 25.86 149.686 25.62 149.726 25.44H149.846C149.866 25.34 149.836 25.24 149.756 25.14L149.666 25.02L149.636 24.93H149.726V24.12H149.846C149.866 24.02 149.826 23.94 149.726 23.88V22.26C149.726 22.24 149.736 22.23 149.756 22.23H149.786C149.826 22.23 149.846 22.2 149.846 22.14H149.726V21.66C149.826 21.6 149.866 21.51 149.846 21.39H149.726V20.52H149.636C149.656 20.48 149.676 20.42 149.696 20.34L149.726 20.16H149.846C149.846 20.12 149.826 20.08 149.786 20.04L149.726 20.01V19.29H149.636C149.656 19.21 149.676 19.13 149.696 19.05L149.726 18.81H149.636L149.666 18.72L149.696 18.63L149.756 18.36C149.796 18.14 149.786 17.95 149.726 17.79H149.636V17.34C149.716 17.12 149.746 16.92 149.726 16.74H149.636C149.616 16.64 149.626 16.49 149.666 16.29L149.696 16.11C149.716 16.03 149.726 15.98 149.726 15.96H149.636V14.73L149.666 14.67H149.696C149.716 14.67 149.726 14.65 149.726 14.61H149.636V9.45H149.606V9.09H149.486V8.4H149.606L149.546 8.37H149.516C149.496 8.39 149.486 8.38 149.486 8.34V7.83C149.846 7.77 150.266 7.73 150.746 7.71V7.83H151.436C151.836 7.83 152.396 7.85 153.116 7.89L153.176 7.98H153.386V8.07H153.626V8.16L153.806 8.22C153.866 8.24 153.906 8.25 153.926 8.25V8.34H154.076L154.136 8.4H154.376L154.436 8.49C154.456 8.53 154.476 8.56 154.496 8.58H154.616V8.7C154.756 8.78 154.836 8.83 154.856 8.85C154.856 9.03 154.846 9.18 154.826 9.3H154.616C154.636 9.36 154.656 9.46 154.676 9.6L154.736 9.96C154.976 9.94 155.176 9.85 155.336 9.69H155.516C155.496 9.79 155.456 9.85 155.396 9.87C155.436 9.89 155.466 9.91 155.486 9.93L155.576 9.96C155.616 10.06 155.636 10.26 155.636 10.56V10.8H155.756V12.03H155.876L155.846 12.45C155.826 12.61 155.796 12.75 155.756 12.87H155.576V12.75C155.436 12.69 155.316 12.65 155.216 12.63V12.54L155.096 12.57L154.976 12.63V12.54H154.856V12.63H154.736L154.826 12.72L154.916 12.75C155.016 12.79 155.066 12.83 155.066 12.87C155.106 12.91 155.136 12.96 155.156 13.02L155.216 13.17C155.256 13.27 155.356 13.35 155.516 13.41L155.546 13.5C155.546 13.52 155.556 13.54 155.576 13.56L155.606 13.62V13.65C155.606 13.67 155.616 13.67 155.636 13.65V13.56C155.676 13.56 155.726 13.55 155.786 13.53C155.826 13.51 155.856 13.49 155.876 13.47C155.976 13.93 155.976 14.68 155.876 15.72V16.5C155.956 16.78 155.956 17.01 155.876 17.19C155.856 17.19 155.856 17.24 155.876 17.34V19.86H155.996V19.92H155.876C155.876 20 155.896 20.09 155.936 20.19C155.976 20.27 155.996 20.33 155.996 20.37L155.966 20.4L155.936 20.43C155.896 20.47 155.876 20.54 155.876 20.64H155.996C155.996 20.82 155.956 20.95 155.876 21.03H155.996C155.996 21.59 155.956 22.08 155.876 22.5C155.836 22.62 155.856 22.72 155.936 22.8L155.996 22.89C156.016 22.95 156.016 23.02 155.996 23.1H155.876C155.956 23.18 155.996 23.25 155.996 23.31H155.876ZM154.526 9.6H154.376L154.436 9.66C154.436 9.64 154.466 9.65 154.526 9.69V9.6ZM153.506 8.52C153.446 8.5 153.396 8.47 153.356 8.43C153.316 8.39 153.256 8.36 153.176 8.34L153.116 8.4C153.176 8.58 153.306 8.7 153.506 8.76V8.52ZM153.026 8.25H152.756V8.16L152.606 8.1L152.456 8.07L152.426 8.16C152.406 8.2 152.396 8.23 152.396 8.25C152.496 8.25 152.606 8.26 152.726 8.28L153.026 8.34V8.25ZM154.376 9.87V10.11H154.496L154.526 9.99V9.87H154.376ZM153.506 9.09H153.446C153.406 9.03 153.376 9 153.356 9H153.326C153.306 8.98 153.286 8.96 153.266 8.94L153.176 9.06L153.236 9.12C153.256 9.14 153.266 9.17 153.266 9.21H153.506V9.09ZM153.116 9.09H153.026V9.06H153.116V8.76H153.026V8.85C152.986 8.83 152.936 8.81 152.876 8.79L152.756 8.76L152.666 8.85C152.726 8.75 152.776 8.64 152.816 8.52L152.276 8.34L151.706 8.16L151.676 8.28L151.646 8.4H151.706V8.52H151.646V8.7H151.556C151.516 8.72 151.426 8.84 151.286 9.06H151.436V9.09C151.516 9.11 151.566 9.11 151.586 9.09L151.616 9.06H151.706L151.676 8.97V8.85C151.676 8.77 151.666 8.72 151.646 8.7H151.886C151.886 8.96 151.856 9.16 151.796 9.3H151.886V9.33C151.966 9.37 152.026 9.37 152.066 9.33L152.096 9.27L152.126 9.21H152.336C152.336 9.11 152.356 9.06 152.396 9.06L152.366 8.97L152.336 8.88C152.296 8.82 152.296 8.76 152.336 8.7H152.396V8.58H152.576C152.456 8.72 152.416 8.84 152.456 8.94H152.576C152.616 9 152.646 9.09 152.666 9.21H153.116V9.09ZM150.896 8.37L150.746 8.34C150.846 8.48 150.916 8.56 150.956 8.58V8.52L151.046 8.4L150.896 8.37ZM154.256 11.76H154.136V12.03H154.256V11.76ZM150.956 8.85H150.746V9.09H150.956V8.85ZM150.566 8.85H150.446C150.446 8.91 150.466 8.98 150.506 9.06V9.09H150.566V8.85ZM151.466 11.4C151.346 11.46 151.226 11.49 151.106 11.49L151.166 11.64C151.186 11.7 151.206 11.74 151.226 11.76L151.256 11.79C151.236 11.79 151.236 11.8 151.256 11.82H151.346C151.346 11.78 151.316 11.7 151.256 11.58H151.466V11.4ZM151.256 11.94C151.196 11.92 151.086 11.88 150.926 11.82V12.03H151.256V11.94ZM151.226 12.39H151.106V12.75H151.226V12.39ZM150.926 12.42H150.746C150.786 12.46 150.806 12.49 150.806 12.51C150.806 12.53 150.826 12.54 150.866 12.54L150.896 12.6L150.926 12.63V12.42ZM153.866 21.57C153.866 20.51 153.856 19.18 153.836 17.58L153.776 13.56C153.776 13.32 153.756 12.99 153.716 12.57L153.656 12.09L153.626 11.58H153.686V11.49H153.626V10.92H153.686C153.686 10.7 153.626 10.51 153.506 10.35H153.446V10.2H153.386C153.346 10.16 153.306 10.08 153.266 9.96C153.146 9.92 153.006 9.86 152.846 9.78L152.666 9.69L152.456 9.6H151.796L151.826 9.93V10.23C151.846 10.45 151.876 10.64 151.916 10.8C151.816 11.14 151.766 11.8 151.766 12.78C151.766 13.74 151.816 14.4 151.916 14.76V15.12H151.796C151.736 15.32 151.726 15.62 151.766 16.02C151.806 16.38 151.856 16.66 151.916 16.86C151.876 16.94 151.846 17.03 151.826 17.13V17.28L151.796 17.43H151.916V18.39H151.796V18.81H151.916V21.33H151.946V21.57L151.916 21.84V23.1H151.946V23.28L151.916 23.43H151.946C151.966 23.57 151.956 23.64 151.916 23.64C151.856 23.78 151.866 23.86 151.946 23.88V24.09L151.916 24.33H151.946C151.946 24.49 151.956 24.63 151.976 24.75C151.996 24.91 152.026 25.02 152.066 25.08C152.506 25.08 152.786 25.03 152.906 24.93C153.486 24.93 153.776 24.65 153.776 24.09V23.55C153.836 23.29 153.866 22.63 153.866 21.57ZM154.856 20.64H154.616L154.676 20.67L154.736 20.7C154.796 20.74 154.836 20.73 154.856 20.67V20.64ZM154.856 20.88H154.826V21.03H154.856V20.88ZM154.376 22.35H154.166V22.5H154.376V22.35ZM155.066 23.79C155.046 23.77 155.026 23.76 155.006 23.76C154.986 23.76 154.936 23.75 154.856 23.73L154.916 23.79H154.946C154.986 23.77 155.026 23.77 155.066 23.79ZM155.516 24.45H155.336V24.57H155.516V24.45ZM154.856 24.12C154.836 24.12 154.836 24.11 154.856 24.09L154.736 23.97V24.21H154.826V24.12H154.856ZM154.166 24.57H154.136V24.81H154.166V24.57ZM154.016 25.83H153.866V26.07H154.016V25.83ZM153.686 26.31C153.686 26.25 153.666 26.19 153.626 26.13V26.07C153.546 26.03 153.486 26.05 153.446 26.13C153.346 26.13 153.286 26.11 153.266 26.07C153.166 26.07 153.086 26.09 153.026 26.13V26.07H152.906V26.31H153.116V26.19C153.216 26.19 153.266 26.23 153.266 26.31H153.686ZM152.126 8.58L152.096 8.64L152.066 8.7V8.52C152.126 8.54 152.176 8.56 152.216 8.58H152.126ZM151.886 8.58V8.4H151.976V8.58H151.886ZM164.826 22.2C164.746 22.28 164.676 22.32 164.616 22.32V22.77C164.596 22.83 164.576 22.91 164.556 23.01L164.526 23.16C164.486 23.26 164.396 23.35 164.256 23.43V23.55L164.436 23.49L164.586 23.43C164.706 24.23 164.576 24.98 164.196 25.68C163.836 26.32 163.356 26.78 162.756 27.06C162.396 27.1 162.106 27.12 161.886 27.12V27.21L161.406 27.18L160.926 27.12V27.21C160.786 27.25 160.606 27.28 160.386 27.3L159.816 27.33L159.546 27.3L159.276 27.24C159.076 27.22 158.936 27.25 158.856 27.33H158.436V27.21C158.376 27.15 158.346 27.02 158.346 26.82L158.316 26.58L158.286 26.37H158.196L158.226 25.38C158.246 25 158.266 24.67 158.286 24.39H158.376L158.316 24.03V23.82L158.286 23.61L158.316 23.01L158.376 22.41V21.81H158.286V21.72H158.376V21.27H158.286L158.316 21.18V21.06C158.336 20.96 158.356 20.88 158.376 20.82H158.286V18.21H158.196L158.226 17.7C158.246 17.5 158.266 17.35 158.286 17.25C158.286 17.17 158.256 17.1 158.196 17.04V16.71H158.286C158.306 16.61 158.296 16.5 158.256 16.38L158.226 16.23L158.196 16.11C158.156 16.01 158.166 15.84 158.226 15.6L158.286 15.33V15.18H158.196V12.21H158.076L158.106 11.94L158.136 11.7C158.176 11.5 158.196 11.34 158.196 11.22C158.156 11.14 158.126 11.1 158.106 11.1V10.89L158.076 10.71H158.046L157.986 9.9L157.956 9.09H157.836C157.856 8.91 157.976 8.76 158.196 8.64V8.4H158.076L158.136 8.1C158.176 7.98 158.196 7.88 158.196 7.8L158.466 7.74C158.566 7.72 158.656 7.71 158.736 7.71V7.8L158.886 7.77L159.036 7.74C159.176 7.72 159.306 7.71 159.426 7.71V7.65L159.816 7.68H160.026L160.266 7.71V7.65H161.526V7.71C161.626 7.73 161.706 7.73 161.766 7.71L161.826 7.68L161.886 7.65V7.71H162.516L162.576 7.83L162.636 7.95L162.936 8.01L163.236 8.04L163.266 8.1L163.326 8.13C163.346 8.15 163.356 8.17 163.356 8.19C163.416 8.23 163.476 8.26 163.536 8.28H163.686L163.836 8.46C163.876 8.54 163.906 8.6 163.926 8.64L164.046 8.7L164.136 8.76V8.88L164.256 9C164.436 9.26 164.546 9.68 164.586 10.26V11.76C164.586 11.92 164.596 12.18 164.616 12.54L164.676 13.35C164.716 14.03 164.716 14.6 164.676 15.06C164.616 16.34 164.286 17.15 163.686 17.49C163.926 17.59 164.106 17.77 164.226 18.03L164.286 18.12L164.346 18.24C164.386 18.3 164.416 18.38 164.436 18.48L164.466 18.6V18.72C164.486 18.72 164.506 18.74 164.526 18.78L164.586 18.87V19.74H164.616V19.98H164.736V21.27H164.616C164.696 21.45 164.736 21.65 164.736 21.87H164.616L164.676 21.99L164.736 22.08C164.756 22.14 164.786 22.18 164.826 22.2ZM162.246 14.43C162.266 14.23 162.266 13.96 162.246 13.62V11.88H162.156L162.216 11.52L162.246 11.16H162.156C162.136 11.04 162.126 10.92 162.126 10.8L162.156 10.62L162.186 10.47C162.226 10.23 162.176 10.04 162.036 9.9C161.976 9.68 161.806 9.55 161.526 9.51C161.406 9.49 161.256 9.49 161.076 9.51H160.566C160.466 9.81 160.426 10.38 160.446 11.22L160.476 11.7L160.506 12.18C160.526 12.5 160.526 12.73 160.506 12.87V13.2L160.476 13.62C160.476 13.96 160.506 14.17 160.566 14.25C160.566 14.39 160.556 14.6 160.536 14.88V15.57C160.516 16.13 160.566 16.54 160.686 16.8C161.326 16.8 161.796 16.71 162.096 16.53C162.136 16.47 162.166 16.39 162.186 16.29V16.17L162.216 16.08L162.246 15.78V14.43ZM162.306 21.18V20.1H162.246V19.35H162.156V19.11H162.036V19.02C162.016 18.98 161.996 18.93 161.976 18.87C161.376 18.77 160.946 18.74 160.686 18.78C160.686 18.96 160.676 19.24 160.656 19.62V20.52C160.656 21.24 160.696 21.79 160.776 22.17L160.746 22.47L160.686 22.77H160.776L160.746 22.98V23.22C160.726 23.42 160.706 23.57 160.686 23.67C160.706 23.91 160.726 24.21 160.746 24.57V24.99L160.776 25.38H161.016L161.316 25.35C161.516 25.35 161.656 25.32 161.736 25.26C161.896 25.2 161.976 25.14 161.976 25.08L162.006 24.99C162.006 24.95 162.016 24.9 162.036 24.84H162.156V24.6H162.246V24.03H162.306V22.89C162.366 22.75 162.406 22.49 162.426 22.11C162.466 21.69 162.456 21.38 162.396 21.18H162.306ZM163.356 24.99C163.356 25.19 163.316 25.41 163.236 25.65C163.296 25.61 163.356 25.52 163.416 25.38L163.476 25.17L163.536 24.99H163.356Z" fill="#4D4D4D"/>
<path d="M187.15 10.11V10.47L187.03 10.56V10.68H186.94V11.25H186.85V11.34C186.93 11.38 186.96 11.43 186.94 11.49H186.85V11.79H186.79V12.09L186.7 12.18V12.63H186.61C186.57 12.77 186.54 12.94 186.52 13.14L186.49 13.65C186.45 13.77 186.39 13.99 186.31 14.31L186.19 14.67L186.1 15C186.1 15.08 186.11 15.18 186.13 15.3V15.57H186.07L186.01 15.6V15.96L185.89 16.08V16.32H185.8V16.74L185.77 17.1C185.83 17.14 185.84 17.21 185.8 17.31H185.74C185.72 17.33 185.69 17.34 185.65 17.34V17.97H185.62L185.56 18L185.47 18.03V18.69H185.41L185.35 19.05L185.29 19.41C185.23 19.57 185.18 19.76 185.14 19.98L185.02 20.58C184.94 21.08 184.85 21.44 184.75 21.66V22.17L184.72 22.71H184.63V23.04L184.51 23.13V23.4L184.42 23.49V23.97L184.39 24.45H184.27V25.08L184.15 25.44L184.06 25.8C183.96 26.08 183.91 26.31 183.91 26.49C183.73 26.49 183.6 26.52 183.52 26.58V26.64H183.34L183.31 26.7V26.76L183.28 26.82H182.83V26.91C182.73 26.93 182.62 26.94 182.5 26.94L182.17 26.91C181.91 26.87 181.75 26.87 181.69 26.91C181.55 26.89 181.43 26.86 181.33 26.82C181.35 26.58 181.4 26.33 181.48 26.07L181.57 25.77L181.69 25.44L181.72 25.08C181.74 24.92 181.76 24.79 181.78 24.69L181.84 24.63L181.9 24.6L181.96 24.57L181.99 24.27L182.02 23.97H182.11V23.07L182.23 22.95V22.71H182.29V22.47H182.35L182.38 22.14L182.47 22.02L182.5 21.78L182.56 21.66L182.59 21.45L182.65 21.33V20.79H182.71L182.74 20.34L182.83 20.28V19.92H182.92L182.95 19.44L183.01 19.38V18.81H183.07L183.1 18.39L183.16 18.33L183.19 17.85L183.28 17.79C183.28 17.59 183.3 17.31 183.34 16.95H183.4V16.5C183.46 16.36 183.53 16.13 183.61 15.81L183.7 15.45L183.82 15.12V14.73C183.86 14.63 183.9 14.47 183.94 14.25L184 13.98L184.06 13.77L184.42 13.65L184.48 13.44L184.51 13.2C184.51 13.02 184.48 12.87 184.42 12.75H184.39L184.27 12.51H184.39L184.42 12.03V11.58H184.51C184.53 11.48 184.55 11.33 184.57 11.13C184.59 10.91 184.61 10.76 184.63 10.68H184.72C184.72 10.6 184.73 10.5 184.75 10.38V10.11L184.45 10.14L184.09 10.17C183.81 10.19 183.56 10.2 183.34 10.2C182.74 10.22 182.39 10.18 182.29 10.08H182.23C182.21 10 182.21 9.95 182.23 9.93L182.26 9.9L182.29 9.87C182.29 9.67 182.09 9.48 181.69 9.3L181.72 8.91L181.75 8.58C181.75 8.32 181.73 8.12 181.69 7.98C181.75 7.98 181.84 7.96 181.96 7.92L182.08 7.86L182.23 7.83V7.89H182.65V7.83C182.77 7.83 182.83 7.85 182.83 7.89H187.18V10.11H187.15ZM189.649 26.43C189.609 26.61 189.539 26.75 189.439 26.85C189.259 26.89 188.999 26.92 188.659 26.94H188.239L187.849 26.97C187.469 26.87 187.049 26.83 186.589 26.85V26.76H186.559L186.589 26.01V25.23H186.709C186.729 25.19 186.719 25.15 186.679 25.11L186.619 25.08L186.589 25.02C186.569 24.96 186.589 24.89 186.649 24.81L186.679 24.72L186.709 24.66H186.589C186.569 24.28 186.529 23.89 186.469 23.49H186.349C186.349 22.89 186.419 22.49 186.559 22.29H186.979L187.489 22.32C187.889 22.32 188.129 22.27 188.209 22.17L189.319 22.23L189.439 22.62V25.89C189.479 25.97 189.499 26.04 189.499 26.1V26.16L189.469 26.22C189.469 26.3 189.529 26.37 189.649 26.43ZM188.689 23.67H188.509L188.539 23.76C188.539 23.78 188.549 23.79 188.569 23.79V23.91H188.689V23.67ZM187.609 22.89V23.13H187.489V23.31C187.669 23.25 187.769 23.11 187.789 22.89H187.609ZM188.029 23.91C188.029 23.85 187.969 23.73 187.849 23.55L187.819 23.52L187.789 23.49H187.729V23.73H187.849V23.91H188.029ZM197.456 8.58C197.456 9 197.366 9.23 197.186 9.27L197.216 8.91L197.246 8.58H197.456ZM197.606 9.9V9.78C197.706 9.78 197.796 9.75 197.876 9.69V9.9H197.606ZM197.186 9.9V9.45H197.366V9.9H197.186ZM194.006 7.71V7.59H194.486V7.71H194.006ZM193.226 7.71C193.126 7.77 192.956 7.78 192.716 7.74C192.496 7.7 192.366 7.65 192.326 7.59H193.226V7.71ZM197.426 20.7C197.426 20.86 197.406 20.95 197.366 20.97V25.53H197.246V26.04C197.166 26.1 197.066 26.21 196.946 26.37L196.796 26.58L196.646 26.76V26.82C196.586 26.84 196.516 26.85 196.436 26.85H196.226C196.046 26.83 195.936 26.84 195.896 26.88C195.816 26.94 195.776 26.98 195.776 27H195.896C195.856 27.1 195.816 27.16 195.776 27.18C195.516 27.42 194.976 27.5 194.156 27.42C193.396 27.34 192.846 27.2 192.506 27C192.506 26.94 192.486 26.89 192.446 26.85L192.386 26.82L192.326 26.76H192.206V26.64L192.056 26.52L191.906 26.4C191.806 26.3 191.706 26.24 191.606 26.22C191.526 26.06 191.486 25.95 191.486 25.89H191.396V25.62H191.276V25.47H191.246V24.9C191.226 24.84 191.206 24.8 191.186 24.78L191.126 24.72C191.086 24.68 191.096 24.57 191.156 24.39H191.246L191.216 24.24L191.186 24.12C191.166 24.02 191.156 23.94 191.156 23.88H191.036C191.076 23.84 191.116 23.7 191.156 23.46H191.036V23.13H191.156C191.156 23.01 191.116 22.95 191.036 22.95C191.016 22.81 191.036 22.66 191.096 22.5C191.136 22.34 191.186 22.23 191.246 22.17C191.266 22.13 191.296 22.08 191.336 22.02C191.356 21.98 191.376 21.95 191.396 21.93C191.536 21.93 191.786 21.91 192.146 21.87C192.526 21.81 192.736 21.76 192.776 21.72H193.226V21.81C193.306 21.91 193.356 22.21 193.376 22.71C193.376 22.87 193.366 23.07 193.346 23.31V23.82C193.366 23.98 193.386 24.11 193.406 24.21L193.436 24.3L193.466 24.39C193.506 24.55 193.546 24.76 193.586 25.02H193.676V25.23H193.706L193.736 25.26L193.796 25.32C193.856 25.38 193.896 25.43 193.916 25.47C193.956 25.47 194.006 25.49 194.066 25.53C194.246 25.51 194.506 25.42 194.846 25.26C194.966 25 195.026 24.59 195.026 24.03C195.046 23.51 195.016 23.07 194.936 22.71C194.936 22.41 194.976 22.14 195.056 21.9V19.62L195.086 18.72V17.88H195.056C194.936 17.68 194.866 17.57 194.846 17.55V17.43C194.806 17.43 194.736 17.42 194.636 17.4H194.276C193.936 17.38 193.746 17.36 193.706 17.34C193.586 17.48 193.526 17.54 193.526 17.52C193.466 17.52 193.396 17.62 193.316 17.82C193.256 18.04 193.216 18.15 193.196 18.15L193.136 18.42H192.656L192.146 18.45C191.726 18.43 191.476 18.36 191.396 18.24H191.276V18.09H191.396V17.52C191.456 17.38 191.476 17.1 191.456 16.68V16.2C191.456 16.04 191.466 15.9 191.486 15.78H191.606C191.606 15.62 191.616 15.19 191.636 14.49V13.23H191.606V12.72H191.636V11.61H191.726V10.98L191.846 10.8V9.96L191.966 9.78V8.28H192.086V7.95C192.146 7.93 192.166 7.94 192.146 7.98L192.206 7.92H194.576L194.816 7.89C195.016 7.89 195.146 7.91 195.206 7.95H196.196C196.656 7.97 196.966 8.01 197.126 8.07C197.166 8.29 197.156 8.58 197.096 8.94L197.036 9.39C197.016 9.57 197.006 9.74 197.006 9.9C196.906 9.86 196.846 9.82 196.826 9.78H194.366C194.226 9.94 194.126 10.02 194.066 10.02C194.066 10.84 194.016 11.41 193.916 11.73V12.84H193.826V13.5H193.706C193.686 13.58 193.676 13.67 193.676 13.77L193.706 14.07C193.746 14.31 193.736 14.47 193.676 14.55V14.88H193.706C193.806 14.98 193.966 15.02 194.186 15H194.456C194.556 15 194.646 15.02 194.726 15.06V15.15H195.056V15.21H195.656V15.3H196.046V15.42H196.196C196.276 15.44 196.366 15.49 196.466 15.57L196.556 15.69L196.646 15.81L196.736 15.84L196.826 15.9L196.856 16.08L196.886 16.29H197.006C197.006 16.37 197.016 16.44 197.036 16.5L197.096 16.65H197.156L197.186 16.95C197.206 17.07 197.226 17.18 197.246 17.28H197.366V18.96H197.426V19.41H197.366C197.366 19.53 197.386 19.61 197.426 19.65L197.396 19.74L197.366 19.8C197.346 19.86 197.346 19.93 197.366 20.01H197.426V20.61H197.366V20.7H197.426ZM196.406 20.46C196.406 20.08 196.336 19.84 196.196 19.74C196.176 19.82 196.156 19.9 196.136 19.98L196.106 20.25C196.086 20.49 196.116 20.64 196.196 20.7V20.82H196.286V20.46H196.406ZM195.956 21.57L195.926 21.36L195.896 21.12H195.956C195.936 21.06 195.926 20.96 195.926 20.82L195.896 20.46V19.41H195.956L195.926 19.11L195.896 18.84H195.956V18.72C195.936 18.68 195.926 18.6 195.926 18.48L195.896 18.24H195.956C195.976 18.16 195.976 18.07 195.956 17.97L195.926 17.79C195.886 17.63 195.896 17.51 195.956 17.43C195.956 17.13 195.896 16.94 195.776 16.86C195.776 17.36 195.766 18.1 195.746 19.08C195.726 20.06 195.716 20.81 195.716 21.33C195.716 21.39 195.706 21.52 195.686 21.72L195.656 22.2C195.656 22.6 195.696 22.85 195.776 22.95V23.4H195.896V23.28C195.936 23.22 195.936 22.97 195.896 22.53C195.876 22.31 195.866 22.14 195.866 22.02C195.866 21.84 195.876 21.69 195.896 21.57H195.956ZM192.326 17.19C192.246 17.19 192.226 17.14 192.266 17.04H192.326V16.92C192.286 16.96 192.166 17 191.966 17.04V16.8H191.846C191.846 17.18 191.766 17.42 191.606 17.52V17.79C191.626 17.73 191.726 17.71 191.906 17.73L192.116 17.76C192.196 17.78 192.246 17.79 192.266 17.79L192.296 17.67L192.326 17.52C192.346 17.42 192.346 17.31 192.326 17.19ZM196.286 23.28C196.166 23.32 196.086 23.36 196.046 23.4C196.026 23.54 196.036 23.72 196.076 23.94L196.106 24.18L196.136 24.42V24.57L196.106 24.72C196.066 24.84 196.046 24.94 196.046 25.02H196.136V25.14H196.196V24.66H196.286V23.28ZM196.286 26.04C196.206 26 196.156 25.97 196.136 25.95H196.046V26.49H196.136L196.196 26.58C196.256 26.5 196.286 26.32 196.286 26.04ZM192.026 17.46L191.996 17.43H191.966V17.4C191.926 17.36 191.896 17.34 191.876 17.34L191.846 17.28H191.966V17.25L191.936 17.22L191.966 17.19L192.026 17.34C192.046 17.4 192.066 17.44 192.086 17.46H192.026Z" fill="#4D4D4D"/>
</svg>
